<svg id="Layer_1" data-name="Layer 1" xmlns="http://www.w3.org/2000/svg" viewBox="0 0 64 64"><defs><style>.cls-1{fill:#231f20;}</style></defs><path class="cls-1" d="M56.42,3.92H7.58a7,7,0,0,0-7,7V52.88a7.05,7.05,0,0,0,7,7H56.42a7.05,7.05,0,0,0,7-7V11A7,7,0,0,0,56.42,3.92Zm-51.86,49V11a3,3,0,0,1,3-3H56.42a3,3,0,0,1,3,3V25.84c-6.79.63-28.82,4.69-36.77,30.06H7.58A3,3,0,0,1,4.56,52.88Zm51.86,3H26.87c7.51-22,26.36-25.51,32.57-26.06v23A3,3,0,0,1,56.42,55.9Z"/><path class="cls-1" d="M22.79,33.71a8.3,8.3,0,1,0-8.3-8.29A8.31,8.31,0,0,0,22.79,33.71Zm0-12.57a4.28,4.28,0,1,1-4.28,4.28A4.28,4.28,0,0,1,22.79,21.14Z"/></svg>