<?xml version="1.0" encoding="utf-8"?>
<!-- Generator: Adobe Illustrator 26.2.1, SVG Export Plug-In . SVG Version: 6.00 Build 0)  -->
<svg version="1.1" id="Layer_1" xmlns="http://www.w3.org/2000/svg" xmlns:xlink="http://www.w3.org/1999/xlink" x="0px" y="0px"
	 viewBox="0 0 64 64" style="enable-background:new 0 0 64 64;" xml:space="preserve">
<style type="text/css">
	.st0{fill:#FFFFFF;}
</style>
<g>
	<path d="M48.62,57.34c0.36,1.21-0.18,2.52-1.3,3.11c-3.67,1.92-8.93,3.39-16.44,3.39c-17.13,0-29.6-11.77-29.6-30.24
		c0-19.22,12.96-33.41,32.93-33.41c15.45,0,28.49,9.2,28.49,26.39c0,13.48-7.02,21.83-17,21.83c-4.36,0-7.46-1.68-7.81-5.64
		c-2.52,3.6-5.53,5.61-10.57,5.61c-6.15,0-10.76-4.4-10.76-13.16c0-11.37,6.91-20.24,15.6-20.24c5.69,0,8.05,3.02,8.76,5.55
		l0.71-2.79c0.3-1.18,1.36-2.01,2.58-2.01h1.26c1.7,0,2.97,1.57,2.61,3.23L44.25,36.7c-1,4.66,0.19,6.09,2.85,6.09
		c5.47,0,9.48-6.33,9.48-15.92c0-13.04-9.08-21.25-22.56-21.25c-15.91,0-26.21,11.09-26.25,28.01
		c-0.04,13.84,9.09,24.51,23.44,24.51c5.09,0,9.66-0.72,13.79-2.48C46.47,55.02,48.17,55.8,48.62,57.34L48.62,57.34z M23.71,34.86
		c0,5.11,1.96,7.85,5.48,7.85c4.3,0,7.51-2.92,9.24-10.81c1.75-7.74-0.15-11.47-5.39-11.47C27.18,20.44,23.71,27.58,23.71,34.86z"/>
</g>
</svg>
