<svg id="Layer_1" data-name="Layer 1" xmlns="http://www.w3.org/2000/svg" viewBox="0 0 64 64"><defs><style>.cls-1{fill:#231f20;}</style></defs><path class="cls-1" d="M32,50.25A17.16,17.16,0,0,0,49.15,33.1V19.16a17.15,17.15,0,0,0-34.3,0V33.1A17.16,17.16,0,0,0,32,50.25ZM18.86,19.16a13.14,13.14,0,0,1,26.27,0V33.1a13.14,13.14,0,1,1-26.27,0Z"/><path class="cls-1" d="M59,26a2,2,0,0,0-2,2V34.7A23.3,23.3,0,0,1,33.7,58H30.29A23.3,23.3,0,0,1,7,34.7V28a2,2,0,0,0-4,0V34.7A27.32,27.32,0,0,0,30.29,62H33.7A27.33,27.33,0,0,0,61,34.7V28A2,2,0,0,0,59,26Z"/></svg>