<svg id="Layer_1" data-name="Layer 1" xmlns="http://www.w3.org/2000/svg" viewBox="0 0 64 64"><defs><style>.cls-1{fill:#231f20;}</style></defs><path class="cls-1" d="M56.81,11.76h-6A8.8,8.8,0,0,0,42.06,4H21.94a8.81,8.81,0,0,0-8.74,7.76h-6A6.65,6.65,0,0,0,.54,18.4v35A6.65,6.65,0,0,0,7.19,60H56.81a6.65,6.65,0,0,0,6.65-6.65V18.4A6.65,6.65,0,0,0,56.81,11.76Zm2.63,41.59A2.63,2.63,0,0,1,56.81,56H7.19a2.63,2.63,0,0,1-2.63-2.63V18.4a2.63,2.63,0,0,1,2.63-2.63h10v-3A4.78,4.78,0,0,1,21.94,8H42.06a4.79,4.79,0,0,1,4.78,4.78v3h10a2.63,2.63,0,0,1,2.63,2.63Z"/><path class="cls-1" d="M32,20.32A13.53,13.53,0,1,0,45.52,33.85,13.54,13.54,0,0,0,32,20.32Zm0,23a9.51,9.51,0,1,1,9.51-9.5A9.52,9.52,0,0,1,32,43.35Z"/></svg>