<svg width="62" height="63" viewBox="0 0 62 63" fill="none" xmlns="http://www.w3.org/2000/svg">
<circle cx="31" cy="31.7415" r="31" fill="#3E3E3E"/>
<path d="M38 30.7415H24C22.8954 30.7415 22 31.6369 22 32.7415V39.7415C22 40.8461 22.8954 41.7415 24 41.7415H38C39.1046 41.7415 40 40.8461 40 39.7415V32.7415C40 31.6369 39.1046 30.7415 38 30.7415Z" stroke="white" stroke-width="2" stroke-linecap="round" stroke-linejoin="round"/>
<path d="M26 30.7415V26.7415C26 25.4154 26.5268 24.1437 27.4645 23.206C28.4021 22.2683 29.6739 21.7415 31 21.7415C32.3261 21.7415 33.5979 22.2683 34.5355 23.206C35.4732 24.1437 36 25.4154 36 26.7415V30.7415" stroke="white" stroke-width="2" stroke-linecap="round" stroke-linejoin="round"/>
</svg>
