<svg width="62" height="63" viewBox="0 0 62 63" fill="none" xmlns="http://www.w3.org/2000/svg">
<circle cx="31" cy="31.7415" r="31" fill="#E5341A"/>
<g clip-path="url(#clip0_2_102)">
<path d="M20.45 35.3336L18.3287 33.2123C18.1309 33.0161 17.9763 32.7809 17.8748 32.5215C17.7733 32.2622 17.727 31.9845 17.739 31.7063C17.751 31.428 17.8209 31.1554 17.9444 30.9057C18.0678 30.6561 18.2421 30.435 18.4559 30.2566C20.8683 28.3171 23.7019 26.9705 26.7291 26.3251C29.5232 25.7022 32.4202 25.7022 35.2144 26.3251C38.2541 26.9747 41.098 28.3313 43.5158 30.2849C43.729 30.4627 43.9029 30.683 44.0263 30.9318C44.1496 31.1805 44.2199 31.4522 44.2325 31.7296C44.2452 32.007 44.1999 32.2839 44.0997 32.5428C43.9994 32.8018 43.8463 33.037 43.6502 33.2335L41.5288 35.3548C41.1891 35.7014 40.7349 35.9125 40.2509 35.9489C39.7669 35.9854 39.2862 35.8446 38.8984 35.5528C38.13 34.9635 37.2974 34.463 36.4165 34.0608C36.0682 33.9029 35.7726 33.6484 35.5645 33.3276C35.3565 33.0067 35.2448 32.633 35.2427 32.2506L35.2427 30.4546C32.4658 29.6909 29.5343 29.6909 26.7574 30.4546L26.7574 32.2506C26.7552 32.633 26.6435 33.0067 26.4355 33.3276C26.2275 33.6484 25.9318 33.9029 25.5836 34.0608C24.7027 34.463 23.87 34.9635 23.1016 35.5528C22.7097 35.8478 22.223 35.9885 21.7341 35.9481C21.2452 35.9077 20.7882 35.689 20.45 35.3336Z" fill="white"/>
</g>
<defs>
<clipPath id="clip0_2_102">
<rect width="24" height="24" fill="white" transform="translate(47.9706 31.7415) rotate(135)"/>
</clipPath>
</defs>
</svg>
