<svg width="62" height="63" viewBox="0 0 62 63" fill="none" xmlns="http://www.w3.org/2000/svg">
<circle cx="31" cy="31.7415" r="31" fill="#3E3E3E"/>
<path d="M41.0928 27.8826L41.093 27.8826L41.0921 27.8759C41.0641 27.6724 40.9635 27.4859 40.8087 27.3509C40.6539 27.2159 40.4554 27.1415 40.25 27.1415C40.0246 27.1415 39.8084 27.231 39.649 27.3905C39.4896 27.5499 39.4 27.7661 39.4 27.9915V36.4894L39.3942 36.6283C39.3599 37.0404 39.1721 37.4247 38.8679 37.7049C38.5633 37.9856 38.1642 38.1415 37.75 38.1415H25.3014L25.8507 37.5922L25.8509 37.5924L25.8555 37.5871L25.9285 37.5031L25.9287 37.5033L25.9336 37.4966C26.0602 37.3241 26.117 37.1103 26.0928 36.8977C26.0686 36.6851 25.9651 36.4895 25.803 36.3499C25.6409 36.2103 25.4321 36.1369 25.2183 36.1444C25.0045 36.1519 24.8014 36.2398 24.6496 36.3905L24.6493 36.3908L22.6493 38.3908L22.6491 38.3909C22.5924 38.448 22.5437 38.5126 22.5046 38.5829L22.5041 38.5837C22.4165 38.7449 22.3832 38.93 22.4091 39.1117C22.4297 39.2558 22.4867 39.3917 22.574 39.5067L22.5744 39.5073L22.5739 39.5076L22.5798 39.5143C22.6009 39.5414 22.6236 39.5674 22.648 39.5919L22.6485 39.5914L22.6493 39.5922L24.6493 41.5922L24.6491 41.5924L24.6544 41.597L24.7384 41.67L24.7382 41.6702L24.7446 41.6749C24.9083 41.7959 25.11 41.854 25.313 41.8389C25.516 41.8237 25.7068 41.7362 25.8507 41.5922L25.8509 41.5924L25.8555 41.5871L25.9285 41.5031L25.9287 41.5033L25.9334 41.497C26.0545 41.3334 26.1128 41.1318 26.0979 40.9288C26.0829 40.7258 25.9956 40.5349 25.8518 40.3909L25.8517 40.3908L25.3024 39.8415H37.75V39.8415L37.7527 39.8415L37.9367 39.8365L37.9367 39.8365L37.9397 39.8363C38.794 39.7879 39.5974 39.4144 40.185 38.7924C40.7727 38.1704 41.1001 37.3472 41.1 36.4915V27.9915H41.1002L41.0998 27.9846L41.0928 27.8826ZM37.2616 21.813L37.2618 21.8128L37.2554 21.8081C37.0917 21.6871 36.89 21.6289 36.687 21.6441C36.484 21.6593 36.2932 21.7468 36.1493 21.8908L36.1491 21.8906L36.1445 21.8959L36.0715 21.9799L36.0713 21.9797L36.0666 21.986C35.9455 22.1496 35.8872 22.3512 35.9021 22.5542C35.9171 22.7572 36.0044 22.9481 36.1482 23.0921L36.1483 23.0922L36.6976 23.6415H24.25V23.6415L24.2473 23.6415L24.0633 23.6465L24.0633 23.6465L24.0603 23.6467C23.206 23.6951 22.4026 24.0686 21.815 24.6906C21.2273 25.3126 20.8999 26.1358 20.9 26.9915V35.4915H20.8998L20.9002 35.4983L20.9072 35.6003L20.907 35.6004L20.9079 35.6071C20.9373 35.8205 21.0465 36.0147 21.2136 36.1506C21.3807 36.2865 21.5931 36.354 21.8079 36.3393C22.0228 36.3246 22.2241 36.2289 22.3711 36.0716C22.5181 35.9142 22.5999 35.7069 22.6 35.4915V35.4915V26.9936L22.6058 26.8537C22.6403 26.4418 22.8282 26.0578 23.1323 25.7777C23.437 25.4972 23.8359 25.3415 24.25 25.3415C24.25 25.3415 24.25 25.3415 24.25 25.3415H36.6971L36.1492 25.8909L36.149 25.8907L36.1445 25.8959L36.0715 25.9799L36.0713 25.9797L36.0664 25.9863C35.9398 26.1588 35.883 26.3727 35.9072 26.5853C35.9314 26.7979 36.0349 26.9935 36.197 27.1331C36.3591 27.2727 36.5679 27.3461 36.7817 27.3386C36.9955 27.331 37.1986 27.2432 37.3504 27.0925L37.3507 27.0922L39.3468 25.0961L39.3475 25.0956L39.3479 25.0962L39.3565 25.0874C39.5131 24.9274 39.6004 24.7122 39.5995 24.4883C39.5988 24.3048 39.539 24.1277 39.4306 23.9823L39.4307 23.9821C39.4257 23.9755 39.4206 23.969 39.4154 23.9625C39.3957 23.9376 39.3745 23.9137 39.3519 23.891L39.3514 23.8915C39.3511 23.8912 39.3508 23.8909 39.3506 23.8906C39.3505 23.8905 39.3504 23.8904 39.3503 23.8903L37.3507 21.8908L37.3509 21.8906L37.3456 21.886L37.2616 21.813ZM33.8991 28.8424C33.1302 28.0735 32.0874 27.6415 31 27.6415C29.9126 27.6415 28.8698 28.0735 28.1009 28.8424C27.332 29.6113 26.9 30.6541 26.9 31.7415C26.9 32.8289 27.332 33.8717 28.1009 34.6406C28.8698 35.4095 29.9126 35.8415 31 35.8415C32.0874 35.8415 33.1302 35.4095 33.8991 34.6406C34.668 33.8717 35.1 32.8289 35.1 31.7415C35.1 30.6541 34.668 29.6113 33.8991 28.8424ZM29.3029 30.0444C29.753 29.5943 30.3635 29.3415 31 29.3415C31.6365 29.3415 32.247 29.5943 32.6971 30.0444C33.1471 30.4945 33.4 31.105 33.4 31.7415C33.4 32.378 33.1471 32.9885 32.6971 33.4385C32.247 33.8886 31.6365 34.1415 31 34.1415C30.3635 34.1415 29.753 33.8886 29.3029 33.4385C28.8529 32.9885 28.6 32.378 28.6 31.7415C28.6 31.105 28.8529 30.4945 29.3029 30.0444Z" fill="white" stroke="white" stroke-width="0.2"/>
</svg>
