<svg width="62" height="63" viewBox="0 0 62 63" fill="none" xmlns="http://www.w3.org/2000/svg">
<circle cx="31" cy="31.7415" r="31" fill="#3E3E3E"/>
<path d="M38 30.7415H24C22.8954 30.7415 22 31.6369 22 32.7415V39.7415C22 40.8461 22.8954 41.7415 24 41.7415H38C39.1046 41.7415 40 40.8461 40 39.7415V32.7415C40 31.6369 39.1046 30.7415 38 30.7415Z" stroke="white" stroke-width="2" stroke-linecap="round" stroke-linejoin="round"/>
<path d="M26 30.7415V26.7415C25.9988 25.5015 26.4583 24.3054 27.2894 23.3852C28.1205 22.465 29.2638 21.8864 30.4975 21.7618C31.7312 21.6372 32.9671 21.9754 33.9655 22.7108C34.9638 23.4462 35.6533 24.5263 35.9 25.7415" stroke="white" stroke-width="2" stroke-linecap="round" stroke-linejoin="round"/>
</svg>
