<svg width="62" height="63" viewBox="0 0 62 63" fill="none" xmlns="http://www.w3.org/2000/svg">
<circle cx="31" cy="31.7415" r="31" fill="#3E3E3E"/>
<path d="M36 40.7415V38.7415C36 37.6807 35.5786 36.6632 34.8284 35.9131C34.0783 35.1629 33.0609 34.7415 32 34.7415H24C22.9391 34.7415 21.9217 35.1629 21.1716 35.9131C20.4214 36.6632 20 37.6807 20 38.7415V40.7415" stroke="white" stroke-width="2" stroke-linecap="round" stroke-linejoin="round"/>
<path d="M28 30.7415C30.2091 30.7415 32 28.9507 32 26.7415C32 24.5324 30.2091 22.7415 28 22.7415C25.7909 22.7415 24 24.5324 24 26.7415C24 28.9507 25.7909 30.7415 28 30.7415Z" stroke="white" stroke-width="2" stroke-linecap="round" stroke-linejoin="round"/>
<path d="M42 40.7415V38.7415C41.9993 37.8552 41.7044 36.9943 41.1614 36.2938C40.6184 35.5934 39.8581 35.0931 39 34.8715" stroke="white" stroke-width="2" stroke-linecap="round" stroke-linejoin="round"/>
<path d="M35 22.8715C35.8604 23.0918 36.623 23.5922 37.1676 24.2938C37.7122 24.9954 38.0078 25.8584 38.0078 26.7465C38.0078 27.6347 37.7122 28.4976 37.1676 29.1992C36.623 29.9008 35.8604 30.4012 35 30.6215" stroke="white" stroke-width="2" stroke-linecap="round" stroke-linejoin="round"/>
</svg>
