<?xml version="1.0" encoding="utf-8"?>
<!-- Generator: Adobe Illustrator 25.0.1, SVG Export Plug-In . SVG Version: 6.00 Build 0)  -->
<svg version="1.1" id="Layer_1" xmlns="http://www.w3.org/2000/svg" xmlns:xlink="http://www.w3.org/1999/xlink" x="0px" y="0px"
	 viewBox="0 0 64 64" style="enable-background:new 0 0 64 64;" xml:space="preserve">
<style type="text/css">
	.st0{clip-path:url(#SVGID_2_);}
	.st1{clip-path:url(#SVGID_4_);fill:#231F20;}
	.st2{clip-path:url(#SVGID_6_);}
	.st3{clip-path:url(#SVGID_8_);fill:#231F20;}
	.st4{clip-path:url(#SVGID_10_);}
	.st5{clip-path:url(#SVGID_12_);fill:#231F20;}
	.st6{clip-path:url(#SVGID_14_);}
	.st7{clip-path:url(#SVGID_16_);fill:#231F20;}
	.st8{stroke:#000000;stroke-width:1.1;stroke-miterlimit:10;}
	.st9{fill:url(#SVGID_17_);}
	.st10{fill:#FFFFFF;}
	.st11{fill-rule:evenodd;clip-rule:evenodd;}
	.st12{fill:none;stroke:#231F20;stroke-width:3;stroke-miterlimit:10;}
	.st13{fill:url(#SVGID_18_);}
	.st14{fill:url(#SVGID_19_);}
	.st15{opacity:0.66;fill:url(#SVGID_20_);}
	.st16{fill:none;stroke:#000000;stroke-width:7;stroke-miterlimit:10;}
	.st17{fill:none;stroke:#000000;stroke-width:3;stroke-linecap:round;stroke-miterlimit:10;}
	.st18{fill:#FF1A51;}
	.st19{fill:url(#SVGID_21_);}
	.st20{fill:url(#SVGID_22_);}
	.st21{fill:#853900;}
	.st22{fill:#6F53C2;}
	.st23{fill:url(#SVGID_23_);}
	.st24{fill:url(#SVGID_24_);}
	.st25{fill:#B66643;}
	.st26{fill:url(#SVGID_25_);}
	.st27{fill:url(#SVGID_26_);}
	.st28{fill:none;stroke:#FF1A51;stroke-width:2;stroke-miterlimit:10;}
	.st29{fill:none;stroke:#FF1A51;stroke-width:2;stroke-linecap:round;stroke-miterlimit:10;}
	.st30{stroke:#000000;stroke-width:2;stroke-miterlimit:10;}
	.st31{fill:none;stroke:#000000;stroke-width:2;stroke-miterlimit:10;}
	.st32{fill-rule:evenodd;clip-rule:evenodd;fill:none;stroke:#000000;stroke-width:2;stroke-miterlimit:10;}
	.st33{fill:url(#SVGID_27_);}
	.st34{fill:url(#SVGID_28_);}
	.st35{fill:url(#SVGID_29_);}
	.st36{fill:url(#SVGID_30_);}
	.st37{fill:url(#SVGID_31_);}
	.st38{opacity:0.84;}
	.st39{fill:#FEFEFE;}
	.st40{fill:#FCFCFC;}
	.st41{fill:#FDFDFD;}
	.st42{fill:#E94335;}
	.st43{fill:#34A753;}
	.st44{fill:#4284F3;}
	.st45{fill:#FABB05;}
	.st46{fill:none;stroke:#000000;stroke-width:3;stroke-miterlimit:10;}
	.st47{fill:url(#SVGID_32_);}
	.st48{fill:url(#SVGID_33_);}
	.st49{fill:url(#SVGID_34_);}
	.st50{fill:url(#SVGID_35_);}
</style>
<path d="M57.85,38.75V27.28c0-0.56-0.46-1.02-1.02-1.02h-5.79V14.78c0-0.56-0.46-1.02-1.02-1.02h-8.83V7.13
	c0-0.56-0.46-1.02-1.02-1.02H23.82c-0.56,0-1.02,0.46-1.02,1.02v6.63h-8.83c-0.56,0-1.02,0.46-1.02,1.02v11.47H7.15
	c-0.56,0-1.02,0.46-1.02,1.02v11.47H1.24c-0.56,0-1.02,0.46-1.02,1.02v18.12H22.8h4.19h10h4.19h22.6V39.77
	c0-0.56-0.46-1.02-1.02-1.02H57.85z M53.66,30.45v8.3H41.18V34.1v-3.65h9.85H53.66z M36.99,41.79h-10v-3.04V34.1h10v4.66V41.79z
	 M26.99,22.19h10v4.07v3.65h-10v-3.65V22.19z M46.84,17.95v8.3h-5.66v-4.07V18v-0.04H46.84z M26.99,10.3h10v3.46V18h-10v-4.23V10.3z
	 M17.14,17.95h5.66V18v4.19v4.07h-5.66V17.95z M10.32,30.45h2.62h9.85v3.65v4.66H10.32V30.45z M22.8,53.7H4.41V42.94h1.72H22.8V53.7
	z M36.99,53.7h-10v-7.72h10V53.7z M59.59,53.7H41.18V42.94h16.67h1.74V53.7z"/>
</svg>
