<?xml version="1.0" encoding="utf-8"?>
<!-- Generator: Adobe Illustrator 25.0.1, SVG Export Plug-In . SVG Version: 6.00 Build 0)  -->
<svg version="1.1" id="Layer_1" xmlns="http://www.w3.org/2000/svg" xmlns:xlink="http://www.w3.org/1999/xlink" x="0px" y="0px"
	 viewBox="0 0 64 64" style="enable-background:new 0 0 64 64;" xml:space="preserve">
<style type="text/css">
	.st0{clip-path:url(#SVGID_2_);}
	.st1{clip-path:url(#SVGID_4_);fill:#231F20;}
	.st2{clip-path:url(#SVGID_6_);}
	.st3{clip-path:url(#SVGID_8_);fill:#231F20;}
	.st4{clip-path:url(#SVGID_10_);}
	.st5{clip-path:url(#SVGID_12_);fill:#231F20;}
	.st6{clip-path:url(#SVGID_14_);}
	.st7{clip-path:url(#SVGID_16_);fill:#231F20;}
	.st8{stroke:#000000;stroke-width:1.1;stroke-miterlimit:10;}
	.st9{fill:url(#SVGID_17_);}
	.st10{fill:#FFFFFF;}
	.st11{fill-rule:evenodd;clip-rule:evenodd;}
	.st12{fill:none;stroke:#231F20;stroke-width:3;stroke-miterlimit:10;}
	.st13{fill:url(#SVGID_18_);}
	.st14{fill:url(#SVGID_19_);}
	.st15{opacity:0.66;fill:url(#SVGID_20_);}
	.st16{fill:none;stroke:#000000;stroke-width:7;stroke-miterlimit:10;}
	.st17{fill:none;stroke:#000000;stroke-width:3;stroke-linecap:round;stroke-miterlimit:10;}
	.st18{fill:#FF1A51;}
	.st19{fill:url(#SVGID_21_);}
	.st20{fill:url(#SVGID_22_);}
	.st21{fill:#853900;}
	.st22{fill:#6F53C2;}
	.st23{fill:url(#SVGID_23_);}
	.st24{fill:url(#SVGID_24_);}
	.st25{fill:#B66643;}
	.st26{fill:url(#SVGID_25_);}
	.st27{fill:url(#SVGID_26_);}
	.st28{fill:none;stroke:#FF1A51;stroke-width:2;stroke-miterlimit:10;}
	.st29{fill:none;stroke:#FF1A51;stroke-width:2;stroke-linecap:round;stroke-miterlimit:10;}
	.st30{stroke:#000000;stroke-width:2;stroke-miterlimit:10;}
	.st31{fill:none;stroke:#000000;stroke-width:2;stroke-miterlimit:10;}
	.st32{fill-rule:evenodd;clip-rule:evenodd;fill:none;stroke:#000000;stroke-width:2;stroke-miterlimit:10;}
	.st33{fill:url(#SVGID_27_);}
	.st34{fill:url(#SVGID_28_);}
	.st35{fill:url(#SVGID_29_);}
	.st36{fill:url(#SVGID_30_);}
	.st37{fill:url(#SVGID_31_);}
	.st38{opacity:0.84;}
	.st39{fill:#FEFEFE;}
	.st40{fill:#FCFCFC;}
	.st41{fill:#FDFDFD;}
	.st42{fill:#E94335;}
	.st43{fill:#34A753;}
	.st44{fill:#4284F3;}
	.st45{fill:#FABB05;}
	.st46{fill:none;stroke:#000000;stroke-width:3;stroke-miterlimit:10;}
	.st47{fill:url(#SVGID_32_);}
	.st48{fill:url(#SVGID_33_);}
	.st49{fill:url(#SVGID_34_);}
	.st50{fill:url(#SVGID_35_);}
</style>
<g>
	<linearGradient id="SVGID_2_" gradientUnits="userSpaceOnUse" x1="49.6804" y1="31.9795" x2="63.8724" y2="31.9795">
		<stop  offset="0" style="stop-color:#FFFFFF;stop-opacity:0.1"/>
		<stop  offset="1" style="stop-color:#FFFFFF"/>
	</linearGradient>
	<path style="fill:url(#SVGID_2_);" d="M63.87,21.23v21.49c0,3.1-2.95,5.6-6.59,5.6c-1.09,0-2.14-0.22-3.04-0.64
		c-0.1-0.02-0.17-0.08-0.23-0.1l-4.33-2.14c1-2.2,1.55-4.6,1.55-7.14V25.7c0-2.54-0.54-4.94-1.55-7.14l3.81-1.9l0.96-0.46
		c0.86-0.36,1.82-0.56,2.83-0.56C60.92,15.63,63.87,18.13,63.87,21.23z"/>
	<path class="st10" d="M49.68,18.68C46.92,12.35,40.6,7.91,33.3,7.91l-15.33,0c-9.81,0-17.84,8.03-17.84,17.84v12.49
		c0,9.81,8.03,17.84,17.84,17.84l15.33,0c7.3,0,13.62-4.44,16.38-10.76c0.95-2.18,1.47-4.56,1.47-7.08V25.75
		C51.15,23.24,50.63,20.86,49.68,18.68z M34.07,35.42c-0.2,0.2-0.43,0.36-0.68,0.5l-8.63,4.98c-3.01,1.74-6.79-0.43-6.79-3.92v-9.94
		c0-3.49,3.78-5.68,6.79-3.94l8.63,4.98c0.25,0.14,0.48,0.29,0.68,0.5C36.18,30.35,36.18,33.65,34.07,35.42z"/>
</g>
</svg>
