<?xml version="1.0" encoding="utf-8"?>
<!-- Generator: Adobe Illustrator 23.0.0, SVG Export Plug-In . SVG Version: 6.00 Build 0)  -->
<svg version="1.1" id="Layer_1" xmlns="http://www.w3.org/2000/svg" xmlns:xlink="http://www.w3.org/1999/xlink" x="0px" y="0px"
	 viewBox="0 0 65.6 64" style="enable-background:new 0 0 65.6 64;" xml:space="preserve">
<style type="text/css">
	.st0{clip-path:url(#SVGID_2_);}
	.st1{clip-path:url(#SVGID_4_);fill:#231F20;}
	.st2{clip-path:url(#SVGID_6_);}
	.st3{clip-path:url(#SVGID_8_);fill:#231F20;}
	.st4{clip-path:url(#SVGID_10_);}
	.st5{clip-path:url(#SVGID_12_);fill:#231F20;}
	.st6{clip-path:url(#SVGID_14_);}
	.st7{clip-path:url(#SVGID_16_);fill:#231F20;}
	.st8{stroke:#000000;stroke-width:1.1;stroke-miterlimit:10;}
	.st9{fill:url(#SVGID_17_);}
	.st10{fill:#FFFFFF;}
	.st11{fill-rule:evenodd;clip-rule:evenodd;}
	.st12{fill:none;stroke:#231F20;stroke-width:3;stroke-miterlimit:10;}
	.st13{fill:url(#SVGID_18_);}
	.st14{fill:url(#SVGID_19_);}
	.st15{opacity:0.66;fill:url(#SVGID_20_);}
	.st16{fill:none;stroke:#000000;stroke-width:7;stroke-miterlimit:10;}
	.st17{fill:none;stroke:#000000;stroke-width:3;stroke-linecap:round;stroke-miterlimit:10;}
	.st18{fill:#FF1A51;}
	.st19{fill:url(#SVGID_21_);}
	.st20{fill:url(#SVGID_22_);}
	.st21{fill:#853900;}
	.st22{fill:#6F53C2;}
	.st23{fill:url(#SVGID_23_);}
	.st24{fill:url(#SVGID_24_);}
	.st25{fill:#B66643;}
	.st26{fill:url(#SVGID_25_);}
	.st27{fill:url(#SVGID_26_);}
	.st28{fill:none;stroke:#FF1A51;stroke-width:2;stroke-miterlimit:10;}
	.st29{fill:none;stroke:#FF1A51;stroke-width:2;stroke-linecap:round;stroke-miterlimit:10;}
	.st30{stroke:#000000;stroke-width:2;stroke-miterlimit:10;}
	.st31{fill:none;stroke:#000000;stroke-width:2;stroke-miterlimit:10;}
	.st32{fill-rule:evenodd;clip-rule:evenodd;fill:none;stroke:#000000;stroke-width:2;stroke-miterlimit:10;}
	.st33{fill:url(#SVGID_27_);}
	.st34{fill:url(#SVGID_28_);}
	.st35{fill:url(#SVGID_29_);}
	.st36{fill:url(#SVGID_30_);}
	.st37{fill:url(#SVGID_31_);}
	.st38{opacity:0.84;}
	.st39{fill:#FEFEFE;}
	.st40{fill:#FCFCFC;}
	.st41{fill:#FDFDFD;}
	.st42{fill:#E94335;}
	.st43{fill:#34A753;}
	.st44{fill:#4284F3;}
	.st45{fill:#FABB05;}
	.st46{fill:none;stroke:#000000;stroke-width:3;stroke-miterlimit:10;}
	.st47{fill:url(#SVGID_32_);}
	.st48{fill:url(#SVGID_33_);}
	.st49{fill:url(#SVGID_34_);}
	.st50{fill:url(#SVGID_35_);}
	.st51{fill:none;}
	.st52{fill:#231F20;}
</style>
<g>
	<path d="M64.9,61.1l-8.5-9.4c4.5-5.6,6.9-12.5,6.9-19.6c0-17.4-14.1-31.5-31.5-31.5C14.4,0.5,0.3,14.6,0.3,32
		c0,17.4,14.1,31.5,31.5,31.5h32.1c0.8,0,1.4-0.6,1.4-1.4C65.3,61.7,65.1,61.3,64.9,61.1z M31.8,59.2C16.8,59.2,4.6,47,4.6,32
		S16.8,4.8,31.8,4.8C46.8,4.8,59,17,59,32c0,6.7-2.5,13.2-7.1,18.3l-1.3,1.4l6.8,7.5H31.8z"/>
	<rect x="19" y="23.1" width="24.7" height="4.3"/>
	<rect x="19" y="34.8" width="11.9" height="4.3"/>
</g>
</svg>
