<?xml version="1.0" encoding="utf-8"?>
<!-- Generator: Adobe Illustrator 25.0.1, SVG Export Plug-In . SVG Version: 6.00 Build 0)  -->
<svg version="1.1" id="Layer_1" xmlns="http://www.w3.org/2000/svg" xmlns:xlink="http://www.w3.org/1999/xlink" x="0px" y="0px"
	 viewBox="0 0 66.37 64" style="enable-background:new 0 0 66.37 64;" xml:space="preserve">
<style type="text/css">
	.st0{clip-path:url(#SVGID_2_);}
	.st1{clip-path:url(#SVGID_4_);fill:#231F20;}
	.st2{clip-path:url(#SVGID_6_);}
	.st3{clip-path:url(#SVGID_8_);fill:#231F20;}
	.st4{clip-path:url(#SVGID_10_);}
	.st5{clip-path:url(#SVGID_12_);fill:#231F20;}
	.st6{clip-path:url(#SVGID_14_);}
	.st7{clip-path:url(#SVGID_16_);fill:#231F20;}
	.st8{stroke:#000000;stroke-width:1.1;stroke-miterlimit:10;}
	.st9{fill:url(#SVGID_17_);}
	.st10{fill:#FFFFFF;}
	.st11{fill-rule:evenodd;clip-rule:evenodd;}
	.st12{fill:none;stroke:#231F20;stroke-width:3;stroke-miterlimit:10;}
	.st13{fill:url(#SVGID_18_);}
	.st14{fill:url(#SVGID_19_);}
	.st15{opacity:0.66;fill:url(#SVGID_20_);}
	.st16{fill:none;stroke:#000000;stroke-width:7;stroke-miterlimit:10;}
	.st17{fill:none;stroke:#000000;stroke-width:3;stroke-linecap:round;stroke-miterlimit:10;}
	.st18{fill:#FF1A51;}
	.st19{fill:url(#SVGID_21_);}
	.st20{fill:url(#SVGID_22_);}
	.st21{fill:#853900;}
	.st22{fill:#6F53C2;}
	.st23{fill:url(#SVGID_23_);}
	.st24{fill:url(#SVGID_24_);}
	.st25{fill:#B66643;}
	.st26{fill:url(#SVGID_25_);}
	.st27{fill:url(#SVGID_26_);}
	.st28{fill:none;stroke:#FF1A51;stroke-width:2;stroke-miterlimit:10;}
	.st29{fill:none;stroke:#FF1A51;stroke-width:2;stroke-linecap:round;stroke-miterlimit:10;}
	.st30{stroke:#000000;stroke-width:2;stroke-miterlimit:10;}
	.st31{fill:none;stroke:#000000;stroke-width:2;stroke-miterlimit:10;}
	.st32{fill-rule:evenodd;clip-rule:evenodd;fill:none;stroke:#000000;stroke-width:2;stroke-miterlimit:10;}
	.st33{fill:url(#SVGID_27_);}
	.st34{fill:url(#SVGID_28_);}
	.st35{fill:url(#SVGID_29_);}
	.st36{fill:url(#SVGID_30_);}
	.st37{fill:url(#SVGID_31_);}
	.st38{opacity:0.84;}
	.st39{fill:#FEFEFE;}
	.st40{fill:#FCFCFC;}
	.st41{fill:#FDFDFD;}
	.st42{fill:#E94335;}
	.st43{fill:#34A753;}
	.st44{fill:#4284F3;}
	.st45{fill:#FABB05;}
	.st46{fill:none;stroke:#000000;stroke-width:3;stroke-miterlimit:10;}
	.st47{fill:url(#SVGID_32_);}
	.st48{fill:url(#SVGID_33_);}
	.st49{fill:url(#SVGID_34_);}
	.st50{fill:url(#SVGID_35_);}
</style>
<path d="M64.11,31.4c0-6.12-11.59-9.41-24.26-10.27L38.37,6.42c-0.05-0.49-0.45-0.86-0.94-0.89l-0.97-0.04
	c-1.4-0.06-1.99-0.06-3.46-0.06C18.41,5.43,2.7,8.72,2.7,15.81L0.99,43.14l-0.04,0.67L0.07,57.52c-0.04,0.57,0.41,1.05,0.98,1.05
	h15.59c0.54,0,0.99-0.44,0.99-0.99v-6.02c0-1.36,1.11-2.47,2.47-2.47h0.55c1.36,0,2.47,1.11,2.47,2.47v6.02
	c0,0.54,0.44,0.99,0.99,0.99H65.3c0.58,0,1.03-0.49,0.98-1.07L64.11,31.4z M6.9,15.93c0-1.89,8.89-6.31,26.1-6.31h1.47l1.15,11.3
	C34.74,20.9,33.88,20.9,33,20.9c-10.19,0-20.9,1.51-26.71,4.76L6.9,15.93z M5.93,31.4H6.1c0-1.89,9.16-6.31,26.9-6.31
	c1.05,0,2.05,0,3.04,0.04l0.84,8.24c-1.3-0.04-2.6-0.06-3.88-0.06c-10.46,0-21.49,1.51-27.48,4.74L5.93,31.4z M27.32,54.38v-2.81
	c0-3.67-3-6.67-6.67-6.67h-0.55c-3.67,0-6.67,3-6.67,6.67v2.81H4.47l0.67-10.57l0.02-0.19C5.74,41.65,15.18,37.5,33,37.5
	c1.49,0,2.91,0.02,4.3,0.08l1.72,16.79H27.32z M40.27,25.34c12.98,0.99,19.64,4.47,19.64,6.23l0.52,6.46
	c-4.47-2.39-11.66-3.82-19.33-4.4L40.27,25.34z M43.23,54.38l-1.68-16.54c12.77,1.09,19.33,4.4,19.33,5.97h0.04l0.88,10.57H43.23z"
	/>
</svg>
