<?xml version="1.0" encoding="utf-8"?>
<!-- Generator: Adobe Illustrator 23.0.0, SVG Export Plug-In . SVG Version: 6.00 Build 0)  -->
<svg version="1.1" id="Layer_1" xmlns="http://www.w3.org/2000/svg" xmlns:xlink="http://www.w3.org/1999/xlink" x="0px" y="0px"
	 viewBox="0 0 64 64" style="enable-background:new 0 0 64 64;" xml:space="preserve">
<style type="text/css">
	.st0{clip-path:url(#SVGID_2_);}
	.st1{clip-path:url(#SVGID_4_);fill:#231F20;}
	.st2{clip-path:url(#SVGID_6_);}
	.st3{clip-path:url(#SVGID_8_);fill:#231F20;}
	.st4{clip-path:url(#SVGID_10_);}
	.st5{clip-path:url(#SVGID_12_);fill:#231F20;}
	.st6{clip-path:url(#SVGID_14_);}
	.st7{clip-path:url(#SVGID_16_);fill:#231F20;}
	.st8{stroke:#000000;stroke-width:1.1;stroke-miterlimit:10;}
	.st9{fill:url(#SVGID_17_);}
	.st10{fill:#FFFFFF;}
	.st11{fill-rule:evenodd;clip-rule:evenodd;}
	.st12{fill:none;stroke:#231F20;stroke-width:3;stroke-miterlimit:10;}
	.st13{fill:url(#SVGID_18_);}
	.st14{fill:url(#SVGID_19_);}
	.st15{opacity:0.66;fill:url(#SVGID_20_);}
	.st16{fill:none;stroke:#000000;stroke-width:7;stroke-miterlimit:10;}
	.st17{fill:none;stroke:#000000;stroke-width:3;stroke-linecap:round;stroke-miterlimit:10;}
	.st18{fill:#FF1A51;}
	.st19{fill:url(#SVGID_21_);}
	.st20{fill:url(#SVGID_22_);}
	.st21{fill:#853900;}
	.st22{fill:#6F53C2;}
	.st23{fill:url(#SVGID_23_);}
	.st24{fill:url(#SVGID_24_);}
	.st25{fill:#B66643;}
	.st26{fill:url(#SVGID_25_);}
	.st27{fill:url(#SVGID_26_);}
	.st28{fill:none;stroke:#FF1A51;stroke-width:2;stroke-miterlimit:10;}
	.st29{fill:none;stroke:#FF1A51;stroke-width:2;stroke-linecap:round;stroke-miterlimit:10;}
	.st30{stroke:#000000;stroke-width:2;stroke-miterlimit:10;}
	.st31{fill:none;stroke:#000000;stroke-width:2;stroke-miterlimit:10;}
	.st32{fill-rule:evenodd;clip-rule:evenodd;fill:none;stroke:#000000;stroke-width:2;stroke-miterlimit:10;}
	.st33{fill:url(#SVGID_27_);}
	.st34{fill:url(#SVGID_28_);}
	.st35{fill:url(#SVGID_29_);}
	.st36{fill:url(#SVGID_30_);}
	.st37{fill:url(#SVGID_31_);}
	.st38{opacity:0.84;}
	.st39{fill:#FEFEFE;}
	.st40{fill:#FCFCFC;}
	.st41{fill:#FDFDFD;}
	.st42{fill:#E94335;}
	.st43{fill:#34A753;}
	.st44{fill:#4284F3;}
	.st45{fill:#FABB05;}
	.st46{fill:none;stroke:#000000;stroke-width:3;stroke-miterlimit:10;}
	.st47{fill:url(#SVGID_32_);}
	.st48{fill:url(#SVGID_33_);}
	.st49{fill:url(#SVGID_34_);}
	.st50{fill:url(#SVGID_35_);}
	.st51{fill:none;}
	.st52{fill:#231F20;}
</style>
<g>
	<g>
		<g>
			<g>
				<path class="st11" d="M59,16.3c-1,0.9-2.3,1.7-3.4,2.4c0.4,1.5,0.6,3.1,0.6,4.8c0,4.8-1.2,9-3,12.7c6-2.2,6.7-2.8,9.7-12.3
					C66.1,14.1,61.4,14.2,59,16.3z"/>
				<path class="st11" d="M57.1,36.4c-1,0.5-3.1,1.1-4.8,1.6c-2,3.5-4.4,6.6-6.9,9.3l0,0.1c0,0,3.9-0.2,6.9-2.3
					C55.3,42.9,58.9,35.6,57.1,36.4z"/>
			</g>
		</g>
	</g>
	<path class="st11" d="M8.7,24c0-8.7,6.3-15.4,13.7-15.4c3.8,0,7.2,2.2,9.6,5c2.4-2.8,5.8-5,9.6-5c7.4,0,13.7,6.7,13.7,15.4
		c0,6-2.1,11.2-5,15.7c-2.9,4.4-6.7,8.2-10.3,11.3c-1.4,1.2-2.8,2.2-4.1,3c-1.2,0.7-2.6,1.4-3.9,1.4s-2.7-0.7-3.9-1.4
		c-1.3-0.8-2.7-1.9-4.1-3c-3.6-3.1-7.4-6.8-10.3-11.3C10.8,35.3,8.7,30,8.7,24z"/>
	<g>
		<g>
			<g>
				<path class="st11" d="M5,16.3c1,0.9,2.3,1.7,3.4,2.4c-0.4,1.5-0.6,3.1-0.6,4.8c0,4.8,1.2,9,3,12.7c-6-2.2-6.7-2.8-9.7-12.3
					C-2.1,14.1,2.6,14.2,5,16.3z"/>
				<path class="st11" d="M6.9,36.4c1,0.5,3.1,1.1,4.8,1.6c2,3.5,4.4,6.6,6.9,9.3l0,0.1c0,0-3.9-0.2-6.9-2.3
					C8.7,42.9,5.1,35.6,6.9,36.4z"/>
			</g>
		</g>
	</g>
</g>
</svg>
