<?xml version="1.0" encoding="utf-8"?>
<!-- Generator: Adobe Illustrator 25.0.1, SVG Export Plug-In . SVG Version: 6.00 Build 0)  -->
<svg version="1.1" id="Layer_1" xmlns="http://www.w3.org/2000/svg" xmlns:xlink="http://www.w3.org/1999/xlink" x="0px" y="0px"
	 viewBox="0 0 64 64" style="enable-background:new 0 0 64 64;" xml:space="preserve">
<style type="text/css">
	.st0{clip-path:url(#SVGID_2_);}
	.st1{clip-path:url(#SVGID_4_);fill:#231F20;}
	.st2{clip-path:url(#SVGID_6_);}
	.st3{clip-path:url(#SVGID_8_);fill:#231F20;}
	.st4{clip-path:url(#SVGID_10_);}
	.st5{clip-path:url(#SVGID_12_);fill:#231F20;}
	.st6{clip-path:url(#SVGID_14_);}
	.st7{clip-path:url(#SVGID_16_);fill:#231F20;}
	.st8{stroke:#000000;stroke-width:1.1;stroke-miterlimit:10;}
	.st9{fill:url(#SVGID_17_);}
	.st10{fill:#FFFFFF;}
	.st11{fill-rule:evenodd;clip-rule:evenodd;}
	.st12{fill:none;stroke:#231F20;stroke-width:3;stroke-miterlimit:10;}
	.st13{fill:url(#SVGID_18_);}
	.st14{fill:url(#SVGID_19_);}
	.st15{opacity:0.66;fill:url(#SVGID_20_);}
	.st16{fill:none;stroke:#000000;stroke-width:7;stroke-miterlimit:10;}
	.st17{fill:none;stroke:#000000;stroke-width:3;stroke-linecap:round;stroke-miterlimit:10;}
	.st18{fill:#FF1A51;}
	.st19{fill:url(#SVGID_21_);}
	.st20{fill:url(#SVGID_22_);}
	.st21{fill:#853900;}
	.st22{fill:#6F53C2;}
	.st23{fill:url(#SVGID_23_);}
	.st24{fill:url(#SVGID_24_);}
	.st25{fill:#B66643;}
	.st26{fill:url(#SVGID_25_);}
	.st27{fill:url(#SVGID_26_);}
	.st28{fill:none;stroke:#FF1A51;stroke-width:2;stroke-miterlimit:10;}
	.st29{fill:none;stroke:#FF1A51;stroke-width:2;stroke-linecap:round;stroke-miterlimit:10;}
	.st30{stroke:#000000;stroke-width:2;stroke-miterlimit:10;}
	.st31{fill:none;stroke:#000000;stroke-width:2;stroke-miterlimit:10;}
	.st32{fill-rule:evenodd;clip-rule:evenodd;fill:none;stroke:#000000;stroke-width:2;stroke-miterlimit:10;}
	.st33{fill:url(#SVGID_27_);}
	.st34{fill:url(#SVGID_28_);}
	.st35{fill:url(#SVGID_29_);}
	.st36{fill:url(#SVGID_30_);}
	.st37{fill:url(#SVGID_31_);}
	.st38{opacity:0.84;}
	.st39{fill:#FEFEFE;}
	.st40{fill:#FCFCFC;}
	.st41{fill:#FDFDFD;}
	.st42{fill:#E94335;}
	.st43{fill:#34A753;}
	.st44{fill:#4284F3;}
	.st45{fill:#FABB05;}
	.st46{fill:none;stroke:#000000;stroke-width:3;stroke-miterlimit:10;}
	.st47{fill:url(#SVGID_32_);}
	.st48{fill:url(#SVGID_33_);}
	.st49{fill:url(#SVGID_34_);}
	.st50{fill:url(#SVGID_35_);}
</style>
<g>
	<path class="st11" d="M10.85,25.06c0-7.58,5.73-13.42,12.45-13.42c3.46,0,6.51,1.89,8.7,4.33c2.19-2.44,5.24-4.33,8.7-4.33
		c6.72,0,12.45,5.84,12.45,13.42c0,5.19-1.91,9.76-4.55,13.62c-2.64,3.85-6.09,7.13-9.39,9.78c-1.26,1.02-2.54,1.95-3.71,2.64
		c-1.1,0.65-2.36,1.24-3.5,1.24c-1.15,0-2.41-0.59-3.5-1.24c-1.17-0.69-2.44-1.63-3.71-2.64c-3.3-2.66-6.75-5.93-9.39-9.78
		C12.76,34.83,10.85,30.26,10.85,25.06z"/>
	<g>
		<g>
			<path class="st11" d="M58.14,18.3c-1.15,0.81-2.64,1.62-4,2.29c0.45,1.39,0.72,2.89,0.72,4.47c0,4.45-1.41,8.44-3.47,11.92
				c6.96-2.02,7.81-2.63,11.35-11.5C66.43,16.24,60.93,16.33,58.14,18.3z"/>
			<path class="st11" d="M55.97,37.44c-1.11,0.42-3.46,0.98-5.31,1.4c-2.17,3.14-4.87,5.87-7.59,8.21l-0.04,0.05
				c0,0,4.32-0.17,7.6-2.05C53.92,43.16,57.95,36.7,55.97,37.44z"/>
		</g>
		<g>
			<path class="st11" d="M5.86,18.3c1.15,0.81,2.64,1.62,4,2.29c-0.45,1.39-0.72,2.89-0.72,4.47c0,4.45,1.41,8.44,3.47,11.92
				c-6.96-2.02-7.81-2.63-11.35-11.5C-2.43,16.24,3.07,16.33,5.86,18.3z"/>
			<path class="st11" d="M8.03,37.44c1.11,0.42,3.46,0.98,5.31,1.4c2.17,3.14,4.87,5.87,7.59,8.21l0.04,0.05c0,0-4.32-0.17-7.6-2.05
				S6.05,36.7,8.03,37.44z"/>
		</g>
	</g>
</g>
</svg>
