<?xml version="1.0" encoding="utf-8"?>
<!-- Generator: Adobe Illustrator 25.0.1, SVG Export Plug-In . SVG Version: 6.00 Build 0)  -->
<svg version="1.1" id="Layer_1" xmlns="http://www.w3.org/2000/svg" xmlns:xlink="http://www.w3.org/1999/xlink" x="0px" y="0px"
	 viewBox="0 0 64 64" style="enable-background:new 0 0 64 64;" xml:space="preserve">
<style type="text/css">
	.st0{clip-path:url(#SVGID_2_);}
	.st1{clip-path:url(#SVGID_4_);fill:#231F20;}
	.st2{clip-path:url(#SVGID_6_);}
	.st3{clip-path:url(#SVGID_8_);fill:#231F20;}
	.st4{clip-path:url(#SVGID_10_);}
	.st5{clip-path:url(#SVGID_12_);fill:#231F20;}
	.st6{clip-path:url(#SVGID_14_);}
	.st7{clip-path:url(#SVGID_16_);fill:#231F20;}
	.st8{stroke:#000000;stroke-width:1.1;stroke-miterlimit:10;}
	.st9{fill:url(#SVGID_17_);}
	.st10{fill:#FFFFFF;}
	.st11{fill-rule:evenodd;clip-rule:evenodd;}
	.st12{fill:none;stroke:#231F20;stroke-width:3;stroke-miterlimit:10;}
	.st13{fill:url(#SVGID_18_);}
	.st14{fill:url(#SVGID_19_);}
	.st15{opacity:0.66;fill:url(#SVGID_20_);}
	.st16{fill:none;stroke:#000000;stroke-width:7;stroke-miterlimit:10;}
	.st17{fill:none;stroke:#000000;stroke-width:3;stroke-linecap:round;stroke-miterlimit:10;}
	.st18{fill:#FF1A51;}
	.st19{fill:url(#SVGID_21_);}
	.st20{fill:url(#SVGID_22_);}
	.st21{fill:#853900;}
	.st22{fill:#6F53C2;}
	.st23{fill:url(#SVGID_23_);}
	.st24{fill:url(#SVGID_24_);}
	.st25{fill:#B66643;}
	.st26{fill:url(#SVGID_25_);}
	.st27{fill:url(#SVGID_26_);}
	.st28{fill:none;stroke:#FF1A51;stroke-width:2;stroke-miterlimit:10;}
	.st29{fill:none;stroke:#FF1A51;stroke-width:2;stroke-linecap:round;stroke-miterlimit:10;}
	.st30{stroke:#000000;stroke-width:2;stroke-miterlimit:10;}
	.st31{fill:none;stroke:#000000;stroke-width:2;stroke-miterlimit:10;}
	.st32{fill-rule:evenodd;clip-rule:evenodd;fill:none;stroke:#000000;stroke-width:2;stroke-miterlimit:10;}
	.st33{fill:url(#SVGID_27_);}
	.st34{fill:url(#SVGID_28_);}
	.st35{fill:url(#SVGID_29_);}
	.st36{fill:url(#SVGID_30_);}
	.st37{fill:url(#SVGID_31_);}
	.st38{opacity:0.84;}
	.st39{fill:#FEFEFE;}
	.st40{fill:#FCFCFC;}
	.st41{fill:#FDFDFD;}
	.st42{fill:#E94335;}
	.st43{fill:#34A753;}
	.st44{fill:#4284F3;}
	.st45{fill:#FABB05;}
	.st46{fill:none;stroke:#000000;stroke-width:3;stroke-miterlimit:10;}
	.st47{fill:url(#SVGID_32_);}
	.st48{fill:url(#SVGID_33_);}
	.st49{fill:url(#SVGID_34_);}
	.st50{fill:url(#SVGID_35_);}
</style>
<g>
	<path d="M26.63,62.57c-0.51,0-1.01-0.12-1.49-0.37c-1.13-0.59-1.83-1.77-1.83-3.08V36.04c0-0.15-0.05-0.31-0.14-0.43L2.11,6.95
		c-0.77-1.05-0.9-2.43-0.33-3.61s1.7-1.91,2.97-1.91h54.5c1.27,0,2.41,0.73,2.97,1.91c0.56,1.18,0.44,2.57-0.33,3.61L40.83,35.61
		c-0.09,0.12-0.14,0.27-0.14,0.43v14.74c0,1.08-0.5,2.11-1.33,2.76l-10.75,8.35C28.02,62.34,27.33,62.57,26.63,62.57 M4.75,4.16
		c-0.38,0-0.55,0.27-0.61,0.39C4.08,4.67,3.98,4.98,4.21,5.3l21.06,28.66c0.44,0.6,0.68,1.34,0.68,2.09v23.09
		c0,0.39,0.26,0.57,0.38,0.63c0.11,0.06,0.41,0.17,0.71-0.07l10.75-8.34c0.17-0.13,0.27-0.34,0.27-0.56V36.04
		c0-0.75,0.24-1.49,0.68-2.09L59.79,5.3c0.23-0.31,0.12-0.62,0.07-0.74c-0.06-0.12-0.23-0.39-0.61-0.39H4.75z"/>
	<path d="M24.46,9.23L24.46,9.23c0,0.69-0.56,1.25-1.25,1.25H12.18c-0.26,0-0.51-0.12-0.66-0.34l-0.63-0.85
		c-0.4-0.54-0.01-1.31,0.66-1.31h11.66C23.9,7.98,24.46,8.54,24.46,9.23"/>
	<path d="M25.46,14.36L25.46,14.36c0,0.69-0.56,1.25-1.25,1.25h-7.99c-0.26,0-0.51-0.12-0.66-0.33l-0.63-0.85
		c-0.4-0.54-0.01-1.31,0.66-1.31h8.62C24.9,13.11,25.46,13.67,25.46,14.36"/>
	<path d="M26.46,19.49L26.46,19.49c0,0.69-0.56,1.25-1.25,1.25h-4.96c-0.26,0-0.51-0.12-0.66-0.33l-0.63-0.85
		c-0.4-0.54-0.01-1.31,0.66-1.31h5.59C25.9,18.24,26.46,18.8,26.46,19.49"/>
</g>
</svg>
