<svg width="18" height="18" viewBox="0 0 18 18" fill="none" xmlns="http://www.w3.org/2000/svg">
<path d="M17.6418 9.21583C17.6418 8.608 17.583 7.98056 17.4849 7.39233H8.99487V10.8629H13.8575C13.6615 11.9805 13.0144 12.9609 12.0536 13.5883L14.9555 15.8432C16.6614 14.255 17.6418 11.9413 17.6418 9.21583Z" fill="#4280EF"/>
<path d="M8.99488 17.9999C11.4262 17.9999 13.4654 17.196 14.9556 15.8235L12.0536 13.5882C11.2497 14.1372 10.2105 14.4509 8.99488 14.4509C6.64198 14.4509 4.66162 12.8627 3.93615 10.7451L0.955811 13.0392C2.48519 16.0784 5.58318 17.9999 8.99488 17.9999Z" fill="#34A353"/>
<path d="M3.9362 10.7257C3.56366 9.60803 3.56366 8.39237 3.9362 7.27474L0.955865 4.96106C-0.318622 7.51003 -0.318622 10.51 0.955865 13.0393L3.9362 10.7257Z" fill="#F6B704"/>
<path d="M8.99488 3.5689C10.2694 3.5493 11.5242 4.03948 12.4458 4.92182L15.0144 2.33363C13.387 0.804249 11.2301 -0.0192653 8.99488 0.000342207C5.58318 0.000342207 2.48519 1.92188 0.955811 4.96104L3.93615 7.27472C4.66162 5.1375 6.64198 3.5689 8.99488 3.5689Z" fill="#E54335"/>
</svg>
