<svg width="22" height="22" viewBox="0 0 22 22" fill="none" xmlns="http://www.w3.org/2000/svg">
<path fill-rule="evenodd" clip-rule="evenodd" d="M0 11C0 4.92525 4.92525 0 11 0C17.0748 0 22 4.92525 22 11C22 17.0748 17.0748 22 11 22C4.92525 22 0 17.0748 0 11ZM12.2375 13.2021H9.88785V13.047C9.89986 10.8849 10.4287 10.5682 11.3992 9.98701C11.5017 9.9256 11.6093 9.86123 11.7216 9.79141C12.5252 9.28672 13.1427 8.64921 13.1427 7.71952C13.1427 6.67696 12.3259 5.99961 11.3099 5.99961C10.3736 5.99961 9.48714 6.43727 9.42737 7.6857H6.93408C7.00049 5.16226 8.99895 3.85 11.3232 3.85C13.8599 3.85 15.6064 5.4418 15.6064 7.68633C15.6064 9.20703 14.8427 10.2031 13.6209 10.9336C13.5278 10.9907 13.4406 11.0431 13.3589 11.0923C12.4909 11.6149 12.2497 11.7602 12.2375 13.047V13.2021ZM12.4254 16.5154C12.4187 17.3256 11.748 17.9763 10.9644 17.9763C10.1543 17.9763 9.49684 17.3256 9.50348 16.5154C9.49684 15.7186 10.1543 15.0678 10.9644 15.0678C11.748 15.0678 12.4187 15.7186 12.4254 16.5154Z" fill="url(#paint0_linear_954_212)"/>
<defs>
<linearGradient id="paint0_linear_954_212" x1="11" y1="0" x2="11" y2="22" gradientUnits="userSpaceOnUse">
<stop stop-color="#F2B3B3"/>
<stop offset="0.708333" stop-color="#F95959"/>
</linearGradient>
</defs>
</svg>
