<svg width="18" height="18" viewBox="0 0 18 18" fill="none" xmlns="http://www.w3.org/2000/svg">
<path fill-rule="evenodd" clip-rule="evenodd" d="M17.3171 2.51812C17.2601 1.31812 16.2709 0.375 15.0698 0.375H2.93025C1.72913 0.375 0.739876 1.31812 0.682876 2.51812C0.542626 5.46562 0.221628 12.2021 0.0757529 15.2681C0.0465029 15.8827 0.27 16.4824 0.694875 16.9275C1.11938 17.373 1.70775 17.625 2.32313 17.625H15.6769C16.2923 17.625 16.8806 17.373 17.3051 16.9275C17.73 16.4824 17.9535 15.8827 17.9243 15.2681L17.3171 2.51812ZM5.625 14.625H12.375C12.789 14.625 13.125 14.289 13.125 13.875C13.125 13.461 12.789 13.125 12.375 13.125H5.625C5.211 13.125 4.875 13.461 4.875 13.875C4.875 14.289 5.211 14.625 5.625 14.625ZM11.625 4.125C11.625 5.57363 10.4486 6.75 9 6.75C7.55138 6.75 6.375 5.57363 6.375 4.125C6.375 3.711 6.039 3.375 5.625 3.375C5.211 3.375 4.875 3.711 4.875 4.125C4.875 6.40163 6.72338 8.25 9 8.25C11.2766 8.25 13.125 6.40163 13.125 4.125C13.125 3.711 12.789 3.375 12.375 3.375C11.961 3.375 11.625 3.711 11.625 4.125Z" fill="url(#paint0_linear_954_172)"/>
<defs>
<linearGradient id="paint0_linear_954_172" x1="-3" y1="-3" x2="21" y2="21" gradientUnits="userSpaceOnUse">
<stop stop-color="#AE76DA"/>
<stop offset="1" stop-color="#251EE5"/>
</linearGradient>
</defs>
</svg>
