<?xml version="1.0" encoding="utf-8"?>
<!-- Generator: Adobe Illustrator 25.0.1, SVG Export Plug-In . SVG Version: 6.00 Build 0)  -->
<svg version="1.1" id="Layer_1" xmlns="http://www.w3.org/2000/svg" xmlns:xlink="http://www.w3.org/1999/xlink" x="0px" y="0px"
	 viewBox="0 0 64 64" style="enable-background:new 0 0 64 64;" xml:space="preserve">
<style type="text/css">
	.st0{clip-path:url(#SVGID_2_);}
	.st1{clip-path:url(#SVGID_4_);fill:#231F20;}
	.st2{clip-path:url(#SVGID_6_);}
	.st3{clip-path:url(#SVGID_8_);fill:#231F20;}
	.st4{clip-path:url(#SVGID_10_);}
	.st5{clip-path:url(#SVGID_12_);fill:#231F20;}
	.st6{clip-path:url(#SVGID_14_);}
	.st7{clip-path:url(#SVGID_16_);fill:#231F20;}
	.st8{stroke:#000000;stroke-width:1.1;stroke-miterlimit:10;}
	.st9{fill:url(#SVGID_17_);}
	.st10{fill:#FFFFFF;}
	.st11{fill-rule:evenodd;clip-rule:evenodd;}
	.st12{fill:none;stroke:#231F20;stroke-width:3;stroke-miterlimit:10;}
	.st13{fill:url(#SVGID_18_);}
	.st14{fill:url(#SVGID_19_);}
	.st15{opacity:0.66;fill:url(#SVGID_20_);}
	.st16{fill:none;stroke:#000000;stroke-width:7;stroke-miterlimit:10;}
	.st17{fill:none;stroke:#000000;stroke-width:3;stroke-linecap:round;stroke-miterlimit:10;}
	.st18{fill:#FF1A51;}
	.st19{fill:url(#SVGID_21_);}
	.st20{fill:url(#SVGID_22_);}
	.st21{fill:#853900;}
	.st22{fill:#6F53C2;}
	.st23{fill:url(#SVGID_23_);}
	.st24{fill:url(#SVGID_24_);}
	.st25{fill:#B66643;}
	.st26{fill:url(#SVGID_25_);}
	.st27{fill:url(#SVGID_26_);}
	.st28{fill:none;stroke:#FF1A51;stroke-width:2;stroke-miterlimit:10;}
	.st29{fill:none;stroke:#FF1A51;stroke-width:2;stroke-linecap:round;stroke-miterlimit:10;}
	.st30{stroke:#000000;stroke-width:2;stroke-miterlimit:10;}
	.st31{fill:none;stroke:#000000;stroke-width:2;stroke-miterlimit:10;}
	.st32{fill-rule:evenodd;clip-rule:evenodd;fill:none;stroke:#000000;stroke-width:2;stroke-miterlimit:10;}
	.st33{fill:url(#SVGID_27_);}
	.st34{fill:url(#SVGID_28_);}
	.st35{fill:url(#SVGID_29_);}
	.st36{fill:url(#SVGID_30_);}
	.st37{fill:url(#SVGID_31_);}
	.st38{opacity:0.84;}
	.st39{fill:#FEFEFE;}
	.st40{fill:#FCFCFC;}
	.st41{fill:#FDFDFD;}
	.st42{fill:#E94335;}
	.st43{fill:#34A753;}
	.st44{fill:#4284F3;}
	.st45{fill:#FABB05;}
	.st46{fill:none;stroke:#000000;stroke-width:3;stroke-miterlimit:10;}
	.st47{fill:url(#SVGID_32_);}
	.st48{fill:url(#SVGID_33_);}
	.st49{fill:url(#SVGID_34_);}
	.st50{fill:url(#SVGID_35_);}
</style>
<path d="M58.02,21.1v-8.22c0-6.47-5.26-11.71-11.71-11.71H17.69c-6.45,0-11.71,5.24-11.71,11.71v8.22C2.41,23.1,0,26.93,0,31.3
	v19.82c0,6.47,5.26,11.71,11.71,11.71h1.51c4.88,0,9.05-2.96,10.82-7.2h15.93c1.77,4.24,5.94,7.2,10.82,7.2h1.51
	c6.45,0,11.71-5.24,11.71-11.71V31.3C64,26.93,61.59,23.1,58.02,21.1z M17.69,7.56h28.61c2.94,0,5.32,2.38,5.32,5.32v6.71h-0.85
	c-6.47,0-11.71,5.26-11.71,11.71v1.13H24.93V31.3c0-6.45-5.24-11.71-11.71-11.71h-0.85v-6.71C12.37,9.94,14.75,7.56,17.69,7.56z
	 M57.61,51.12c0,2.94-2.38,5.32-5.32,5.32h-1.51c-1.02,0-2-0.3-2.81-0.81c-1.51-0.94-2.51-2.6-2.51-4.51v-1.87h-1.52h-4.87H24.93
	h-4.86h-1.52v1.87c0,1.92-1,3.58-2.51,4.51c-0.81,0.51-1.79,0.81-2.81,0.81h-1.51c-2.94,0-5.32-2.38-5.32-5.32V31.3
	c0-0.3,0.02-0.6,0.09-0.89c0.43-2.51,2.6-4.43,5.24-4.43h0.66h0.85c2.94,0,5.32,2.38,5.32,5.32v1.13v6.39h6.39h14.14h6.39v-6.39
	V31.3c0-2.94,2.38-5.32,5.32-5.32h0.85h0.66c2.62,0,4.81,1.89,5.24,4.41v0.02c0.06,0.3,0.09,0.6,0.09,0.89V51.12z"/>
</svg>
