<?xml version="1.0" encoding="utf-8"?>
<!-- Generator: Adobe Illustrator 25.0.1, SVG Export Plug-In . SVG Version: 6.00 Build 0)  -->
<svg version="1.1" id="Layer_1" xmlns="http://www.w3.org/2000/svg" xmlns:xlink="http://www.w3.org/1999/xlink" x="0px" y="0px"
	 viewBox="0 0 64 64" style="enable-background:new 0 0 64 64;" xml:space="preserve">
<style type="text/css">
	.st0{clip-path:url(#SVGID_2_);}
	.st1{clip-path:url(#SVGID_4_);fill:#231F20;}
	.st2{clip-path:url(#SVGID_6_);}
	.st3{clip-path:url(#SVGID_8_);fill:#231F20;}
	.st4{clip-path:url(#SVGID_10_);}
	.st5{clip-path:url(#SVGID_12_);fill:#231F20;}
	.st6{clip-path:url(#SVGID_14_);}
	.st7{clip-path:url(#SVGID_16_);fill:#231F20;}
	.st8{stroke:#000000;stroke-width:1.1;stroke-miterlimit:10;}
	.st9{fill:url(#SVGID_17_);}
	.st10{fill:#FFFFFF;}
	.st11{fill-rule:evenodd;clip-rule:evenodd;}
	.st12{fill:none;stroke:#231F20;stroke-width:3;stroke-miterlimit:10;}
	.st13{fill:url(#SVGID_18_);}
	.st14{fill:url(#SVGID_19_);}
	.st15{opacity:0.66;fill:url(#SVGID_20_);}
	.st16{fill:none;stroke:#000000;stroke-width:7;stroke-miterlimit:10;}
	.st17{fill:none;stroke:#000000;stroke-width:3;stroke-linecap:round;stroke-miterlimit:10;}
	.st18{fill:#FF1A51;}
	.st19{fill:url(#SVGID_21_);}
	.st20{fill:url(#SVGID_22_);}
	.st21{fill:#853900;}
	.st22{fill:#6F53C2;}
	.st23{fill:url(#SVGID_23_);}
	.st24{fill:url(#SVGID_24_);}
	.st25{fill:#B66643;}
	.st26{fill:url(#SVGID_25_);}
	.st27{fill:url(#SVGID_26_);}
	.st28{fill:none;stroke:#FF1A51;stroke-width:2;stroke-miterlimit:10;}
	.st29{fill:none;stroke:#FF1A51;stroke-width:2;stroke-linecap:round;stroke-miterlimit:10;}
	.st30{stroke:#000000;stroke-width:2;stroke-miterlimit:10;}
	.st31{fill:none;stroke:#000000;stroke-width:2;stroke-miterlimit:10;}
	.st32{fill-rule:evenodd;clip-rule:evenodd;fill:none;stroke:#000000;stroke-width:2;stroke-miterlimit:10;}
	.st33{fill:url(#SVGID_27_);}
	.st34{fill:url(#SVGID_28_);}
	.st35{fill:url(#SVGID_29_);}
	.st36{fill:url(#SVGID_30_);}
	.st37{fill:url(#SVGID_31_);}
	.st38{opacity:0.84;}
	.st39{fill:#FEFEFE;}
	.st40{fill:#FCFCFC;}
	.st41{fill:#FDFDFD;}
	.st42{fill:#E94335;}
	.st43{fill:#34A753;}
	.st44{fill:#4284F3;}
	.st45{fill:#FABB05;}
	.st46{fill:none;stroke:#000000;stroke-width:3;stroke-miterlimit:10;}
	.st47{fill:url(#SVGID_32_);}
	.st48{fill:url(#SVGID_33_);}
	.st49{fill:url(#SVGID_34_);}
	.st50{fill:url(#SVGID_35_);}
</style>
<g>
	<path d="M42.52,35.06c0.04-0.2,0.06-0.4,0.08-0.68c0-1.5-1.17-2.76-2.7-2.86h-0.28c-0.23,0-0.46,0.04-0.7,0.11l-0.06,0.02
		c-1.03,0.31-1.82,1.2-2,2.29l-0.02,0.19c-1.07,7.36-7.49,12.92-14.94,12.92c-8.33,0-15.1-6.78-15.1-15.1
		c0-7.45,5.55-13.88,12.9-14.94c0.1-0.01,0.19-0.02,0.29-0.04c1.35-0.27,2.33-1.46,2.33-2.84c0-1.56-1.27-2.86-2.84-2.9l-0.02,0
		l-0.02,0c-0.29,0.02-0.56,0.07-0.83,0.12c-4.35,0.69-8.3,2.71-11.44,5.85c-3.95,3.95-6.12,9.18-6.12,14.74
		c0,11.5,9.36,20.86,20.86,20.86c10.18,0,19.02-7.55,20.61-17.65L42.52,35.06z"/>
	<path d="M42.11,11.21c-10.18,0-19.02,7.56-20.61,17.66l-0.02,0.07c-0.04,0.2-0.06,0.4-0.08,0.68c0,1.5,1.17,2.76,2.7,2.86h0.28
		c0.23,0,0.47-0.04,0.7-0.11l0.06-0.02c1.03-0.31,1.82-1.19,2-2.29l0.02-0.19c1.07-7.36,7.49-12.92,14.94-12.92
		c8.33,0,15.1,6.78,15.1,15.1c0,7.45-5.55,13.88-12.93,14.94c-0.09,0.01-0.17,0.02-0.26,0.04c-1.35,0.27-2.33,1.47-2.33,2.84
		c0,1.56,1.27,2.86,2.84,2.9l0.02,0l0.02,0c0.28-0.03,0.56-0.07,0.83-0.12c4.35-0.69,8.3-2.71,11.44-5.85
		c3.95-3.95,6.12-9.18,6.12-14.74C62.97,20.57,53.61,11.21,42.11,11.21z"/>
</g>
</svg>
