<?xml version="1.0" encoding="utf-8"?>
<!-- Generator: Adobe Illustrator 25.0.1, SVG Export Plug-In . SVG Version: 6.00 Build 0)  -->
<svg version="1.1" id="Layer_1" xmlns="http://www.w3.org/2000/svg" xmlns:xlink="http://www.w3.org/1999/xlink" x="0px" y="0px"
	 viewBox="0 0 64 64" style="enable-background:new 0 0 64 64;" xml:space="preserve">
<style type="text/css">
	.st0{clip-path:url(#SVGID_2_);}
	.st1{clip-path:url(#SVGID_4_);fill:#231F20;}
	.st2{clip-path:url(#SVGID_6_);}
	.st3{clip-path:url(#SVGID_8_);fill:#231F20;}
	.st4{clip-path:url(#SVGID_10_);}
	.st5{clip-path:url(#SVGID_12_);fill:#231F20;}
	.st6{clip-path:url(#SVGID_14_);}
	.st7{clip-path:url(#SVGID_16_);fill:#231F20;}
	.st8{stroke:#000000;stroke-width:1.1;stroke-miterlimit:10;}
	.st9{fill:url(#SVGID_17_);}
	.st10{fill:#FFFFFF;}
	.st11{fill-rule:evenodd;clip-rule:evenodd;}
	.st12{fill:none;stroke:#231F20;stroke-width:3;stroke-miterlimit:10;}
	.st13{fill:url(#SVGID_18_);}
	.st14{fill:url(#SVGID_19_);}
	.st15{opacity:0.66;fill:url(#SVGID_20_);}
	.st16{fill:none;stroke:#000000;stroke-width:7;stroke-miterlimit:10;}
	.st17{fill:none;stroke:#000000;stroke-width:3;stroke-linecap:round;stroke-miterlimit:10;}
	.st18{fill:#FF1A51;}
	.st19{fill:url(#SVGID_21_);}
	.st20{fill:url(#SVGID_22_);}
	.st21{fill:#853900;}
	.st22{fill:#6F53C2;}
	.st23{fill:url(#SVGID_23_);}
	.st24{fill:url(#SVGID_24_);}
	.st25{fill:#B66643;}
	.st26{fill:url(#SVGID_25_);}
	.st27{fill:url(#SVGID_26_);}
	.st28{fill:none;stroke:#FF1A51;stroke-width:2;stroke-miterlimit:10;}
	.st29{fill:none;stroke:#FF1A51;stroke-width:2;stroke-linecap:round;stroke-miterlimit:10;}
	.st30{stroke:#000000;stroke-width:2;stroke-miterlimit:10;}
	.st31{fill:none;stroke:#000000;stroke-width:2;stroke-miterlimit:10;}
	.st32{fill-rule:evenodd;clip-rule:evenodd;fill:none;stroke:#000000;stroke-width:2;stroke-miterlimit:10;}
	.st33{fill:url(#SVGID_27_);}
	.st34{fill:url(#SVGID_28_);}
	.st35{fill:url(#SVGID_29_);}
	.st36{fill:url(#SVGID_30_);}
	.st37{fill:url(#SVGID_31_);}
	.st38{opacity:0.84;}
	.st39{fill:#FEFEFE;}
	.st40{fill:#FCFCFC;}
	.st41{fill:#FDFDFD;}
	.st42{fill:#E94335;}
	.st43{fill:#34A753;}
	.st44{fill:#4284F3;}
	.st45{fill:#FABB05;}
	.st46{fill:none;stroke:#000000;stroke-width:3;stroke-miterlimit:10;}
	.st47{fill:url(#SVGID_32_);}
	.st48{fill:url(#SVGID_33_);}
	.st49{fill:url(#SVGID_34_);}
	.st50{fill:url(#SVGID_35_);}
</style>
<g>
	<path d="M32,15.71c-2.08,0-4.12,0.62-5.85,1.78c-1.73,1.15-3.08,2.8-3.88,4.72c-0.79,1.93-1,4.04-0.6,6.08
		c0.41,2.05,1.41,3.92,2.89,5.4c1.47,1.47,3.34,2.47,5.39,2.88c2.04,0.4,4.16,0.19,6.08-0.6c1.92-0.8,3.57-2.15,4.72-3.88
		c1.16-1.73,1.78-3.77,1.78-5.85c0-2.79-1.11-5.47-3.09-7.44C37.47,16.82,34.79,15.71,32,15.71z M37.66,31.9
		c-1.5,1.5-3.54,2.35-5.66,2.35c-1.58,0-3.13-0.47-4.45-1.35c-1.31-0.88-2.34-2.13-2.95-3.6c-0.6-1.46-0.76-3.07-0.45-4.62
		c0.31-1.55,1.07-2.98,2.19-4.1c1.12-1.12,2.55-1.88,4.1-2.19s3.16-0.15,4.62,0.46c1.47,0.6,2.72,1.63,3.6,2.94
		c0.88,1.32,1.35,2.87,1.35,4.45C40.01,28.36,39.16,30.4,37.66,31.9z"/>
	<path d="M48.3,9.94C43.98,5.62,38.11,3.19,32,3.19S20.02,5.62,15.7,9.94s-6.75,10.19-6.75,16.3c0,15.56,20.31,33.14,21.18,33.89
		c0.52,0.45,1.18,0.69,1.87,0.69s1.35-0.24,1.87-0.69c1.01-0.75,21.18-18.33,21.18-33.89C55.05,20.13,52.62,14.26,48.3,9.94z
		 M33.26,57.31c-0.05,0.04-0.09,0.08-0.13,0.12c-0.01,0.01-0.01,0.01-0.02,0.02c0.01-0.01,0.01-0.02,0.02-0.02
		c-0.3,0.27-0.7,0.43-1.13,0.43c-0.4,0-0.77-0.14-1.06-0.37c0.01,0.01,0.01,0.01,0.02,0.02c-0.01-0.01-0.01-0.01-0.02-0.02
		c-0.07-0.07-0.15-0.14-0.23-0.22c-7.47-7.15-19.31-20.6-19.31-31.24c0-5.37,2.17-10.52,6.03-14.33C21.3,7.91,26.54,5.77,32,5.77
		s10.7,2.14,14.57,5.93c3.86,3.8,6.03,8.96,6.03,14.33C52.6,36.69,40.73,50.19,33.26,57.31z"/>
</g>
</svg>
