<svg width="21" height="19" viewBox="0 0 21 19" fill="none" xmlns="http://www.w3.org/2000/svg">
<path d="M10.1315 8.60221L10.0572 8.65643L10.1431 8.68931C12.9411 9.76 14.9331 12.4727 14.9331 15.6422C14.9331 16.9915 13.8352 18.0894 12.4859 18.0894H2.49718C1.14784 18.0894 0.05 16.9915 0.05 15.6422C0.05 12.4727 2.04201 9.76 4.83992 8.68931L4.92585 8.65643L4.85152 8.60221C3.73076 7.78486 3.0012 6.46226 3.0012 4.9724C3.0012 2.49647 5.01561 0.482068 7.49153 0.482068C9.96746 0.482068 11.9819 2.49647 11.9819 4.9724C11.9819 6.46226 11.2523 7.78486 10.1315 8.60221ZM7.49153 1.74418C5.71145 1.74418 4.26332 3.19231 4.26332 4.9724C4.26332 6.75248 5.71145 8.20065 7.49153 8.20065C9.27162 8.20065 10.7197 6.75248 10.7197 4.9724C10.7197 3.19231 9.27162 1.74418 7.49153 1.74418ZM2.49718 16.8272H12.4859C13.1394 16.8272 13.671 16.2957 13.671 15.6421C13.671 12.2347 10.899 9.46269 7.49157 9.46269C4.08411 9.46269 1.31211 12.2347 1.31211 15.6421C1.31211 16.2957 1.84369 16.8272 2.49718 16.8272Z" fill="#252525" fill-opacity="0.5" stroke="white" stroke-width="0.1"/>
<path opacity="0.5" d="M19.4287 16.1717H16.8464" stroke="#252525" stroke-width="1.5" stroke-linecap="round" stroke-linejoin="round"/>
<path opacity="0.5" d="M19.4287 11.8679L15.9856 11.8679" stroke="#252525" stroke-width="1.5" stroke-linecap="round" stroke-linejoin="round"/>
<path opacity="0.5" d="M19.4287 7.56403L13.4033 7.56403" stroke="#252525" stroke-width="1.5" stroke-linecap="round" stroke-linejoin="round"/>
</svg>
