<svg width="20" height="22" viewBox="0 0 20 22" fill="none" xmlns="http://www.w3.org/2000/svg">
<path opacity="0.4" d="M15.99 9.77372V13.7737C15.9921 14.0243 15.9787 14.2748 15.95 14.5237C15.72 17.2237 14.1302 18.5637 11.2 18.5637H10.8001C10.676 18.5641 10.5536 18.5932 10.4425 18.6487C10.3315 18.7042 10.2348 18.7846 10.16 18.8837L8.96026 20.4837C8.85859 20.6467 8.71713 20.781 8.54918 20.8742C8.38124 20.9674 8.19235 21.0162 8.0003 21.0162C7.80825 21.0162 7.61935 20.9674 7.45141 20.8742C7.28347 20.781 7.142 20.6467 7.04033 20.4837L5.84014 18.8837C5.76012 18.7905 5.66227 18.7141 5.55235 18.6592C5.44242 18.6042 5.32263 18.5718 5.2 18.5637H4.8001C1.61016 18.5637 0.0101013 17.7737 0.0101013 13.7737V9.77372C0.0101013 6.84372 1.3602 5.25372 4.0501 5.02372C4.29904 4.99493 4.54952 4.98157 4.8001 4.98372H11.2C14.3899 4.98373 15.9866 6.5804 15.99 9.77372Z" fill="url(#paint0_linear_954_165)"/>
<path d="M8.00415 12.9837H7.99927C7.7344 12.9831 7.48061 12.8773 7.29366 12.6897C7.10671 12.5021 7.00188 12.2479 7.0022 11.983C7.00253 11.7181 7.10797 11.4642 7.29538 11.277C7.48279 11.0899 7.73684 10.9847 8.00171 10.9847C8.26659 10.9847 8.52063 11.0899 8.70804 11.277C8.89545 11.4642 9.0009 11.7181 9.00122 11.983C9.00154 12.2479 8.89672 12.5021 8.70976 12.6897C8.52281 12.8773 8.26903 12.9831 8.00415 12.9837Z" fill="url(#paint1_linear_954_165)"/>
<path d="M11.5012 12.9837H11.4963C11.2312 12.9831 10.9772 12.8772 10.79 12.6894C10.6029 12.5016 10.498 12.2472 10.4983 11.982C10.4986 11.7169 10.6042 11.4627 10.7918 11.2754C10.9794 11.088 11.2336 10.9828 11.4988 10.9828C11.7639 10.9828 12.0182 11.088 12.2058 11.2754C12.3934 11.4627 12.4989 11.7169 12.4993 11.982C12.4996 12.2472 12.3947 12.5016 12.2075 12.6894C12.0204 12.8772 11.7664 12.9831 11.5012 12.9837Z" fill="url(#paint2_linear_954_165)"/>
<path d="M4.5061 12.9837H4.50122C4.23635 12.9831 3.98256 12.8773 3.79561 12.6897C3.60866 12.5021 3.50383 12.2479 3.50415 11.983C3.50447 11.7181 3.60992 11.4642 3.79733 11.277C3.98474 11.0899 4.23879 10.9847 4.50366 10.9847C4.76854 10.9847 5.02258 11.0899 5.20999 11.277C5.3974 11.4642 5.50285 11.7181 5.50317 11.983C5.50349 12.2479 5.39867 12.5021 5.21171 12.6897C5.02476 12.8773 4.77097 12.9831 4.5061 12.9837Z" fill="url(#paint3_linear_954_165)"/>
<path d="M19.99 5.77372V9.77372C19.99 12.7137 18.6433 14.2971 15.95 14.5237C15.9787 14.2748 15.9921 14.0243 15.99 13.7737V9.77372C15.99 6.58372 14.3933 4.98705 11.2 4.98372H4.80005C4.54946 4.98157 4.29898 4.99493 4.05005 5.02372C4.28005 2.33372 5.86987 0.983719 8.80005 0.983719H15.2C18.3899 0.983732 19.9866 2.5804 19.99 5.77372Z" fill="url(#paint4_linear_954_165)"/>
<defs>
<linearGradient id="paint0_linear_954_165" x1="0.0100013" y1="13" x2="15.99" y2="13" gradientUnits="userSpaceOnUse">
<stop stop-color="#16B0E2"/>
<stop offset="1" stop-color="#6E5AF0"/>
</linearGradient>
<linearGradient id="paint1_linear_954_165" x1="6.999" y1="11.984" x2="9.001" y2="11.984" gradientUnits="userSpaceOnUse">
<stop stop-color="#16B0E2"/>
<stop offset="1" stop-color="#6E5AF0"/>
</linearGradient>
<linearGradient id="paint2_linear_954_165" x1="10.496" y1="11.984" x2="12.499" y2="11.984" gradientUnits="userSpaceOnUse">
<stop stop-color="#16B0E2"/>
<stop offset="1" stop-color="#6E5AF0"/>
</linearGradient>
<linearGradient id="paint3_linear_954_165" x1="3.501" y1="11.984" x2="5.503" y2="11.984" gradientUnits="userSpaceOnUse">
<stop stop-color="#16B0E2"/>
<stop offset="1" stop-color="#6E5AF0"/>
</linearGradient>
<linearGradient id="paint4_linear_954_165" x1="4.05" y1="7.754" x2="19.99" y2="7.754" gradientUnits="userSpaceOnUse">
<stop stop-color="#16B0E2"/>
<stop offset="1" stop-color="#6E5AF0"/>
</linearGradient>
</defs>
</svg>
