<?xml version="1.0" encoding="utf-8"?>
<!-- Generator: Adobe Illustrator 25.0.1, SVG Export Plug-In . SVG Version: 6.00 Build 0)  -->
<svg version="1.1" id="Layer_1" xmlns="http://www.w3.org/2000/svg" xmlns:xlink="http://www.w3.org/1999/xlink" x="0px" y="0px"
	 viewBox="0 0 64 64" style="enable-background:new 0 0 64 64;" xml:space="preserve">
<style type="text/css">
	.st0{clip-path:url(#SVGID_2_);}
	.st1{clip-path:url(#SVGID_4_);fill:#231F20;}
	.st2{clip-path:url(#SVGID_6_);}
	.st3{clip-path:url(#SVGID_8_);fill:#231F20;}
	.st4{clip-path:url(#SVGID_10_);}
	.st5{clip-path:url(#SVGID_12_);fill:#231F20;}
	.st6{clip-path:url(#SVGID_14_);}
	.st7{clip-path:url(#SVGID_16_);fill:#231F20;}
	.st8{stroke:#000000;stroke-width:1.1;stroke-miterlimit:10;}
	.st9{fill:url(#SVGID_17_);}
	.st10{fill:#FFFFFF;}
	.st11{fill-rule:evenodd;clip-rule:evenodd;}
	.st12{fill:none;stroke:#231F20;stroke-width:3;stroke-miterlimit:10;}
	.st13{fill:url(#SVGID_18_);}
	.st14{fill:url(#SVGID_19_);}
	.st15{opacity:0.66;fill:url(#SVGID_20_);}
	.st16{fill:none;stroke:#000000;stroke-width:7;stroke-miterlimit:10;}
	.st17{fill:none;stroke:#000000;stroke-width:3;stroke-linecap:round;stroke-miterlimit:10;}
	.st18{fill:#FF1A51;}
	.st19{fill:url(#SVGID_21_);}
	.st20{fill:url(#SVGID_22_);}
	.st21{fill:#853900;}
	.st22{fill:#6F53C2;}
	.st23{fill:url(#SVGID_23_);}
	.st24{fill:url(#SVGID_24_);}
	.st25{fill:#B66643;}
	.st26{fill:url(#SVGID_25_);}
	.st27{fill:url(#SVGID_26_);}
	.st28{fill:none;stroke:#FF1A51;stroke-width:2;stroke-miterlimit:10;}
	.st29{fill:none;stroke:#FF1A51;stroke-width:2;stroke-linecap:round;stroke-miterlimit:10;}
	.st30{stroke:#000000;stroke-width:2;stroke-miterlimit:10;}
	.st31{fill:none;stroke:#000000;stroke-width:2;stroke-miterlimit:10;}
	.st32{fill-rule:evenodd;clip-rule:evenodd;fill:none;stroke:#000000;stroke-width:2;stroke-miterlimit:10;}
	.st33{fill:url(#SVGID_27_);}
	.st34{fill:url(#SVGID_28_);}
	.st35{fill:url(#SVGID_29_);}
	.st36{fill:url(#SVGID_30_);}
	.st37{fill:url(#SVGID_31_);}
	.st38{opacity:0.84;}
	.st39{fill:#FEFEFE;}
	.st40{fill:#FCFCFC;}
	.st41{fill:#FDFDFD;}
	.st42{fill:#E94335;}
	.st43{fill:#34A753;}
	.st44{fill:#4284F3;}
	.st45{fill:#FABB05;}
	.st46{fill:none;stroke:#000000;stroke-width:3;stroke-miterlimit:10;}
	.st47{fill:url(#SVGID_32_);}
	.st48{fill:url(#SVGID_33_);}
	.st49{fill:url(#SVGID_34_);}
	.st50{fill:url(#SVGID_35_);}
</style>
<g>
	<path d="M51.41,50.03c-0.01-0.08-0.02-0.16-0.04-0.23C50,41.22,44.32,34.57,37.09,32.41c3.39-1.82,5.7-5.4,5.7-9.51
		c0-5.95-4.84-10.79-10.79-10.79c-5.95,0-10.79,4.84-10.79,10.79c0,4.11,2.31,7.69,5.7,9.51c-7.25,2.16-12.93,8.83-14.27,17.37
		c-0.02,0.08-0.04,0.16-0.04,0.24c-0.02,0.09-0.02,0.17-0.02,0.22c0,0.91,0.66,1.65,1.47,1.65h35.93c0.81,0,1.47-0.74,1.47-1.65
		l-0.01-0.18L51.41,50.03z M24.09,22.9c0-4.36,3.55-7.9,7.9-7.9c4.36,0,7.9,3.55,7.9,7.9s-3.55,7.9-7.9,7.9
		C27.64,30.8,24.09,27.26,24.09,22.9z M15.41,49c1.91-8.54,8.65-14.44,16.59-14.44c7.94,0,14.68,5.91,16.59,14.44H15.41z"/>
	<path d="M9.45,48.36H3.3c1.66-7.41,6.79-12.7,13.43-13.5c0.15-0.02,0.31-0.04,0.47-0.06c0.84-0.19,1.47-0.94,1.47-1.85
		c0-0.91-0.64-1.67-1.5-1.85c-0.06-0.02-0.11-0.03-0.18-0.03c-3.38-0.7-5.94-3.7-5.94-7.3c0-4.1,3.34-7.44,7.44-7.44
		c0.57,0,1.13,0.07,1.66,0.18c0.06,0.01,0.12,0.02,0.18,0.02c0.01,0,0.02,0.01,0.03,0.01c0.01,0,0.01,0,0.02,0h0.04
		c0.08,0,0.17-0.01,0.25-0.03c0.37-0.07,0.62-0.3,0.62-0.3c0.29-0.25,0.48-0.63,0.48-1.03v-0.01c0-0.42-0.19-0.78-0.49-1.02
		c-0.02-0.02-0.06-0.04-0.08-0.06c-0.1-0.07-0.32-0.18-0.7-0.27c-0.66-0.13-1.33-0.21-2.01-0.21c-5.6,0-10.16,4.56-10.16,10.16
		c0,3.88,2.17,7.25,5.36,8.96C6.86,34.77,1.51,41.05,0.25,49.1c-0.03,0.07-0.04,0.15-0.04,0.23c-0.02,0.08-0.02,0.15-0.02,0.2
		c0,0.86,0.62,1.55,1.38,1.55h7.88c0.22,0,0.42-0.05,0.6-0.15c0.45-0.21,0.76-0.68,0.76-1.21c0-0.42-0.19-0.79-0.49-1.03
		C10.09,48.48,9.78,48.36,9.45,48.36z"/>
	<path d="M63.79,49.33c0-0.08-0.01-0.16-0.04-0.23c-1.26-8.05-6.61-14.33-13.44-16.37c3.19-1.71,5.36-5.08,5.36-8.96
		c0-5.6-4.56-10.16-10.16-10.16c-0.68,0-1.35,0.08-2.01,0.21c-0.38,0.09-0.6,0.2-0.7,0.27c-0.02,0.02-0.06,0.04-0.08,0.06
		c-0.3,0.24-0.49,0.6-0.49,1.02v0.01c0,0.4,0.19,0.78,0.48,1.03c0,0,0.25,0.23,0.62,0.3c0.08,0.02,0.17,0.03,0.25,0.03h0.04
		c0.01,0,0.01,0,0.02,0c0.01,0,0.02-0.01,0.03-0.01c0.06,0,0.12-0.01,0.18-0.02c0.53-0.11,1.09-0.18,1.66-0.18
		c4.1,0,7.44,3.34,7.44,7.44c0,3.6-2.56,6.6-5.94,7.3c-0.07,0-0.12,0.01-0.18,0.03c-0.86,0.18-1.5,0.94-1.5,1.85
		c0,0.91,0.63,1.66,1.47,1.85c0.16,0.02,0.32,0.04,0.47,0.06c6.64,0.8,11.77,6.09,13.43,13.5h-6.15c-0.33,0-0.64,0.12-0.87,0.33
		c-0.3,0.24-0.49,0.61-0.49,1.03c0,0.53,0.31,1,0.76,1.21c0.18,0.1,0.38,0.15,0.6,0.15h7.88c0.76,0,1.38-0.69,1.38-1.55
		C63.81,49.48,63.81,49.41,63.79,49.33z"/>
</g>
<path class="st10" d="M17.37,34.8c-0.14,0.04-0.28,0.06-0.43,0.06H16.9C17.05,34.84,17.21,34.82,17.37,34.8z"/>
</svg>
