<?xml version="1.0" encoding="utf-8"?>
<!-- Generator: Adobe Illustrator 25.0.1, SVG Export Plug-In . SVG Version: 6.00 Build 0)  -->
<svg version="1.1" id="Layer_1" xmlns="http://www.w3.org/2000/svg" xmlns:xlink="http://www.w3.org/1999/xlink" x="0px" y="0px"
	 viewBox="0 0 79.72 64" style="enable-background:new 0 0 79.72 64;" xml:space="preserve">
<style type="text/css">
	.st0{clip-path:url(#SVGID_2_);}
	.st1{clip-path:url(#SVGID_4_);fill:#231F20;}
	.st2{clip-path:url(#SVGID_6_);}
	.st3{clip-path:url(#SVGID_8_);fill:#231F20;}
	.st4{clip-path:url(#SVGID_10_);}
	.st5{clip-path:url(#SVGID_12_);fill:#231F20;}
	.st6{clip-path:url(#SVGID_14_);}
	.st7{clip-path:url(#SVGID_16_);fill:#231F20;}
	.st8{stroke:#000000;stroke-width:1.1;stroke-miterlimit:10;}
	.st9{fill:url(#SVGID_17_);}
	.st10{fill:#FFFFFF;}
	.st11{fill-rule:evenodd;clip-rule:evenodd;}
	.st12{fill:none;stroke:#231F20;stroke-width:3;stroke-miterlimit:10;}
	.st13{fill:url(#SVGID_18_);}
	.st14{fill:url(#SVGID_19_);}
	.st15{opacity:0.66;fill:url(#SVGID_20_);}
	.st16{fill:none;stroke:#000000;stroke-width:7;stroke-miterlimit:10;}
	.st17{fill:none;stroke:#000000;stroke-width:3;stroke-linecap:round;stroke-miterlimit:10;}
	.st18{fill:#FF1A51;}
	.st19{fill:url(#SVGID_21_);}
	.st20{fill:url(#SVGID_22_);}
	.st21{fill:#853900;}
	.st22{fill:#6F53C2;}
	.st23{fill:url(#SVGID_23_);}
	.st24{fill:url(#SVGID_24_);}
	.st25{fill:#B66643;}
	.st26{fill:url(#SVGID_25_);}
	.st27{fill:url(#SVGID_26_);}
	.st28{fill:none;stroke:#FF1A51;stroke-width:2;stroke-miterlimit:10;}
	.st29{fill:none;stroke:#FF1A51;stroke-width:2;stroke-linecap:round;stroke-miterlimit:10;}
	.st30{stroke:#000000;stroke-width:2;stroke-miterlimit:10;}
	.st31{fill:none;stroke:#000000;stroke-width:2;stroke-miterlimit:10;}
	.st32{fill-rule:evenodd;clip-rule:evenodd;fill:none;stroke:#000000;stroke-width:2;stroke-miterlimit:10;}
	.st33{fill:url(#SVGID_27_);}
	.st34{fill:url(#SVGID_28_);}
	.st35{fill:url(#SVGID_29_);}
	.st36{fill:url(#SVGID_30_);}
	.st37{fill:url(#SVGID_31_);}
	.st38{opacity:0.84;}
	.st39{fill:#FEFEFE;}
	.st40{fill:#FCFCFC;}
	.st41{fill:#FDFDFD;}
	.st42{fill:#E94335;}
	.st43{fill:#34A753;}
	.st44{fill:#4284F3;}
	.st45{fill:#FABB05;}
	.st46{fill:none;stroke:#000000;stroke-width:3;stroke-miterlimit:10;}
	.st47{fill:url(#SVGID_32_);}
	.st48{fill:url(#SVGID_33_);}
	.st49{fill:url(#SVGID_34_);}
	.st50{fill:url(#SVGID_35_);}
</style>
<g>
	<path d="M60.24,59.79c-0.02-0.13-0.04-0.25-0.06-0.35c-2.12-13.22-10.87-23.47-22.02-26.8c5.23-2.81,8.79-8.33,8.79-14.66
		c0-9.17-7.46-16.64-16.64-16.64c-9.18,0-16.64,7.46-16.64,16.64c0,6.34,3.56,11.85,8.79,14.66C11.28,35.97,2.52,46.25,0.45,59.42
		c-0.04,0.12-0.06,0.24-0.07,0.37c-0.03,0.14-0.03,0.26-0.03,0.33c0,1.4,1.02,2.54,2.26,2.54h55.39c1.25,0,2.26-1.14,2.26-2.54
		l-0.01-0.28L60.24,59.79z M18.13,17.97c0-6.72,5.47-12.18,12.19-12.18c6.72,0,12.18,5.47,12.18,12.18s-5.47,12.18-12.18,12.18
		C23.59,30.16,18.13,24.69,18.13,17.97z M4.74,58.21c2.95-13.16,13.33-22.27,25.57-22.27c12.24,0,22.63,9.1,25.57,22.27H4.74z"/>
	<path d="M79.33,58.71c0-0.12-0.02-0.25-0.06-0.35c-1.94-12.41-10.19-22.09-20.72-25.24c4.92-2.64,8.26-7.83,8.26-13.81
		c0-8.63-7.03-15.66-15.66-15.66c-1.05,0-2.08,0.12-3.1,0.32c-0.59,0.14-0.93,0.31-1.08,0.42c-0.03,0.03-0.09,0.06-0.12,0.09
		c-0.46,0.37-0.76,0.92-0.76,1.57v0.02c0,0.62,0.29,1.2,0.74,1.59c0,0,0.39,0.35,0.96,0.46c0.12,0.03,0.26,0.05,0.39,0.05h0.06
		c0.02,0,0.02,0,0.03,0c0.02,0,0.03-0.02,0.05-0.02c0.09,0,0.18-0.02,0.28-0.03c0.82-0.17,1.68-0.28,2.56-0.28
		c6.32,0,11.47,5.15,11.47,11.47c0,5.55-3.95,10.17-9.16,11.25c-0.11,0-0.19,0.02-0.28,0.05c-1.33,0.28-2.31,1.45-2.31,2.85
		c0,1.4,0.97,2.56,2.27,2.85c0.25,0.03,0.49,0.06,0.72,0.09C64.1,37.64,72,45.79,74.56,57.21h-9.48c-0.51,0-0.99,0.18-1.34,0.51
		c-0.46,0.37-0.76,0.94-0.76,1.59c0,0.82,0.48,1.54,1.17,1.87c0.28,0.15,0.59,0.23,0.92,0.23h12.15c1.17,0,2.13-1.06,2.13-2.39
		C79.36,58.94,79.36,58.83,79.33,58.71z"/>
</g>
</svg>
