<?xml version="1.0" encoding="utf-8"?>
<!-- Generator: Adobe Illustrator 25.0.1, SVG Export Plug-In . SVG Version: 6.00 Build 0)  -->
<svg version="1.1" id="Layer_1" xmlns="http://www.w3.org/2000/svg" xmlns:xlink="http://www.w3.org/1999/xlink" x="0px" y="0px"
	 viewBox="0 0 64 64" style="enable-background:new 0 0 64 64;" xml:space="preserve">
<style type="text/css">
	.st0{clip-path:url(#SVGID_2_);}
	.st1{clip-path:url(#SVGID_4_);fill:#231F20;}
	.st2{clip-path:url(#SVGID_6_);}
	.st3{clip-path:url(#SVGID_8_);fill:#231F20;}
	.st4{clip-path:url(#SVGID_10_);}
	.st5{clip-path:url(#SVGID_12_);fill:#231F20;}
	.st6{clip-path:url(#SVGID_14_);}
	.st7{clip-path:url(#SVGID_16_);fill:#231F20;}
	.st8{stroke:#000000;stroke-width:1.1;stroke-miterlimit:10;}
	.st9{fill:url(#SVGID_17_);}
	.st10{fill:#FFFFFF;}
	.st11{fill-rule:evenodd;clip-rule:evenodd;}
	.st12{fill:none;stroke:#231F20;stroke-width:3;stroke-miterlimit:10;}
	.st13{fill:url(#SVGID_18_);}
	.st14{fill:url(#SVGID_19_);}
	.st15{opacity:0.66;fill:url(#SVGID_20_);}
	.st16{fill:none;stroke:#000000;stroke-width:7;stroke-miterlimit:10;}
	.st17{fill:none;stroke:#000000;stroke-width:3;stroke-linecap:round;stroke-miterlimit:10;}
	.st18{fill:#FF1A51;}
	.st19{fill:url(#SVGID_21_);}
	.st20{fill:url(#SVGID_22_);}
	.st21{fill:#853900;}
	.st22{fill:#6F53C2;}
	.st23{fill:url(#SVGID_23_);}
	.st24{fill:url(#SVGID_24_);}
	.st25{fill:#B66643;}
	.st26{fill:url(#SVGID_25_);}
	.st27{fill:url(#SVGID_26_);}
	.st28{fill:none;stroke:#FF1A51;stroke-width:2;stroke-miterlimit:10;}
	.st29{fill:none;stroke:#FF1A51;stroke-width:2;stroke-linecap:round;stroke-miterlimit:10;}
	.st30{stroke:#000000;stroke-width:2;stroke-miterlimit:10;}
	.st31{fill:none;stroke:#000000;stroke-width:2;stroke-miterlimit:10;}
	.st32{fill-rule:evenodd;clip-rule:evenodd;fill:none;stroke:#000000;stroke-width:2;stroke-miterlimit:10;}
	.st33{fill:url(#SVGID_27_);}
	.st34{fill:url(#SVGID_28_);}
	.st35{fill:url(#SVGID_29_);}
	.st36{fill:url(#SVGID_30_);}
	.st37{fill:url(#SVGID_31_);}
	.st38{opacity:0.84;}
	.st39{fill:#FEFEFE;}
	.st40{fill:#FCFCFC;}
	.st41{fill:#FDFDFD;}
	.st42{fill:#E94335;}
	.st43{fill:#34A753;}
	.st44{fill:#4284F3;}
	.st45{fill:#FABB05;}
	.st46{fill:none;stroke:#000000;stroke-width:3;stroke-miterlimit:10;}
	.st47{fill:url(#SVGID_32_);}
	.st48{fill:url(#SVGID_33_);}
	.st49{fill:url(#SVGID_34_);}
	.st50{fill:url(#SVGID_35_);}
</style>
<path d="M62.5,1.15c-0.34-0.3-0.75-0.51-1.18-0.64c-0.44-0.13-0.89-0.16-1.34-0.09L18.88,6.75c-0.75,0.11-1.43,0.49-1.92,1.07
	c-0.49,0.57-0.76,1.31-0.76,2.06v32.71c-1.48-0.72-3.1-1.1-4.74-1.11c-2.19,0-4.33,0.65-6.15,1.86c-1.82,1.22-3.24,2.94-4.07,4.96
	c-0.84,2.02-1.06,4.25-0.63,6.39c0.43,2.15,1.48,4.12,3.03,5.66c1.55,1.55,3.52,2.6,5.66,3.03c2.15,0.43,4.37,0.21,6.39-0.63
	c2.02-0.84,3.75-2.26,4.96-4.07c1.22-1.82,1.86-3.96,1.86-6.15V28.4l34.77-5.34v13.21c-1.48-0.72-3.1-1.1-4.74-1.11
	c-2.19,0-4.33,0.65-6.15,1.86c-1.82,1.22-3.24,2.94-4.07,4.96c-0.84,2.02-1.06,4.25-0.63,6.39c0.43,2.15,1.48,4.12,3.03,5.66
	c1.55,1.55,3.52,2.6,5.66,3.03c2.15,0.43,4.37,0.21,6.39-0.63c2.02-0.84,3.75-2.26,4.96-4.07c1.22-1.82,1.86-3.96,1.86-6.15V3.56
	c0-0.46-0.1-0.91-0.29-1.32C63.13,1.82,62.85,1.45,62.5,1.15z M11.46,57.29c-0.94,0-1.85-0.28-2.63-0.8
	c-0.78-0.52-1.39-1.26-1.75-2.13c-0.36-0.87-0.45-1.82-0.27-2.74c0.18-0.92,0.63-1.76,1.3-2.43c0.66-0.66,1.51-1.11,2.43-1.3
	c0.92-0.18,1.87-0.09,2.74,0.27c0.87,0.36,1.61,0.97,2.13,1.75c0.52,0.78,0.8,1.7,0.8,2.63c0,1.26-0.5,2.46-1.39,3.35
	C13.92,56.79,12.71,57.29,11.46,57.29z M52.54,50.97c-0.94,0-1.85-0.28-2.63-0.8c-0.78-0.52-1.39-1.26-1.75-2.13
	c-0.36-0.87-0.45-1.82-0.27-2.74c0.18-0.92,0.63-1.76,1.3-2.43c0.66-0.66,1.51-1.11,2.43-1.3c0.92-0.18,1.87-0.09,2.74,0.27
	c0.87,0.36,1.61,0.97,2.13,1.75c0.52,0.78,0.8,1.7,0.8,2.63c0,1.26-0.5,2.46-1.39,3.35C55.01,50.47,53.8,50.97,52.54,50.97z
	 M57.29,16.64l-34.77,5.34V12.5l34.77-5.25V16.64z"/>
</svg>
