<svg width="24" height="24" viewBox="0 0 24 24" fill="none" xmlns="http://www.w3.org/2000/svg">
<path fill-rule="evenodd" clip-rule="evenodd" d="M17.4857 1.25C17.8881 1.25 18.2143 1.58579 18.2143 2V4.25H20.4C20.8024 4.25 21.1286 4.58579 21.1286 5C21.1286 5.41421 20.8024 5.75 20.4 5.75H18.2143V8C18.2143 8.41421 17.8881 8.75 17.4857 8.75C17.0833 8.75 16.7571 8.41421 16.7571 8V5.75H14.5714C14.1691 5.75 13.8429 5.41421 13.8429 5C13.8429 4.58579 14.1691 4.25 14.5714 4.25H16.7571V2C16.7571 1.58579 17.0833 1.25 17.4857 1.25ZM20.4 18V11C20.4 10.4477 19.9651 10 19.4286 10H16.5143C14.3683 10 12.6286 8.20914 12.6286 6V3C12.6286 2.44772 12.1937 2 11.6571 2H6.8C4.65398 2 2.91428 3.79086 2.91428 6V18C2.91428 20.2091 4.65398 22 6.8 22H16.5143C18.6603 22 20.4 20.2091 20.4 18ZM7.04286 7C7.04286 6.58579 7.36905 6.25 7.77143 6.25H10.6857C11.0881 6.25 11.4143 6.58579 11.4143 7C11.4143 7.41421 11.0881 7.75 10.6857 7.75H7.77143C7.36905 7.75 7.04286 7.41421 7.04286 7ZM7.77143 11.25C7.36905 11.25 7.04286 11.5858 7.04286 12C7.04286 12.4142 7.36905 12.75 7.77143 12.75H15.5429C15.9452 12.75 16.2714 12.4142 16.2714 12C16.2714 11.5858 15.9452 11.25 15.5429 11.25H7.77143ZM7.04286 17C7.04286 16.5858 7.36905 16.25 7.77143 16.25H15.5429C15.9452 16.25 16.2714 16.5858 16.2714 17C16.2714 17.4142 15.9452 17.75 15.5429 17.75H7.77143C7.36905 17.75 7.04286 17.4142 7.04286 17Z" fill="url(#paint0_linear_954_175)"/>
<defs>
<linearGradient id="paint0_linear_954_175" x1="12.0214" y1="1.25" x2="12.0214" y2="22" gradientUnits="userSpaceOnUse">
<stop stop-color="#FD6700"/>
<stop offset="1" stop-color="#FFCE00"/>
</linearGradient>
</defs>
</svg>
