<?xml version="1.0" encoding="utf-8"?>
<!-- Generator: Adobe Illustrator 25.0.1, SVG Export Plug-In . SVG Version: 6.00 Build 0)  -->
<svg version="1.1" id="Layer_1" xmlns="http://www.w3.org/2000/svg" xmlns:xlink="http://www.w3.org/1999/xlink" x="0px" y="0px"
	 viewBox="0 0 64 64" style="enable-background:new 0 0 64 64;" xml:space="preserve">
<style type="text/css">
	.st0{clip-path:url(#SVGID_2_);}
	.st1{clip-path:url(#SVGID_4_);fill:#231F20;}
	.st2{clip-path:url(#SVGID_6_);}
	.st3{clip-path:url(#SVGID_8_);fill:#231F20;}
	.st4{clip-path:url(#SVGID_10_);}
	.st5{clip-path:url(#SVGID_12_);fill:#231F20;}
	.st6{clip-path:url(#SVGID_14_);}
	.st7{clip-path:url(#SVGID_16_);fill:#231F20;}
	.st8{stroke:#000000;stroke-width:1.1;stroke-miterlimit:10;}
	.st9{fill:url(#SVGID_17_);}
	.st10{fill:#FFFFFF;}
	.st11{fill-rule:evenodd;clip-rule:evenodd;}
	.st12{fill:none;stroke:#231F20;stroke-width:3;stroke-miterlimit:10;}
	.st13{fill:url(#SVGID_18_);}
	.st14{fill:url(#SVGID_19_);}
	.st15{opacity:0.66;fill:url(#SVGID_20_);}
	.st16{fill:none;stroke:#000000;stroke-width:7;stroke-miterlimit:10;}
	.st17{fill:none;stroke:#000000;stroke-width:3;stroke-linecap:round;stroke-miterlimit:10;}
	.st18{fill:#FF1A51;}
	.st19{fill:url(#SVGID_21_);}
	.st20{fill:url(#SVGID_22_);}
	.st21{fill:#853900;}
	.st22{fill:#6F53C2;}
	.st23{fill:url(#SVGID_23_);}
	.st24{fill:url(#SVGID_24_);}
	.st25{fill:#B66643;}
	.st26{fill:url(#SVGID_25_);}
	.st27{fill:url(#SVGID_26_);}
	.st28{fill:none;stroke:#FF1A51;stroke-width:2;stroke-miterlimit:10;}
	.st29{fill:none;stroke:#FF1A51;stroke-width:2;stroke-linecap:round;stroke-miterlimit:10;}
	.st30{stroke:#000000;stroke-width:2;stroke-miterlimit:10;}
	.st31{fill:none;stroke:#000000;stroke-width:2;stroke-miterlimit:10;}
	.st32{fill-rule:evenodd;clip-rule:evenodd;fill:none;stroke:#000000;stroke-width:2;stroke-miterlimit:10;}
	.st33{fill:url(#SVGID_27_);}
	.st34{fill:url(#SVGID_28_);}
	.st35{fill:url(#SVGID_29_);}
	.st36{fill:url(#SVGID_30_);}
	.st37{fill:url(#SVGID_31_);}
	.st38{opacity:0.84;}
	.st39{fill:#FEFEFE;}
	.st40{fill:#FCFCFC;}
	.st41{fill:#FDFDFD;}
	.st42{fill:#E94335;}
	.st43{fill:#34A753;}
	.st44{fill:#4284F3;}
	.st45{fill:#FABB05;}
	.st46{fill:none;stroke:#000000;stroke-width:3;stroke-miterlimit:10;}
	.st47{fill:url(#SVGID_32_);}
	.st48{fill:url(#SVGID_33_);}
	.st49{fill:url(#SVGID_34_);}
	.st50{fill:url(#SVGID_35_);}
</style>
<g>
	<path d="M60.59,28.44c-0.72-0.51-1.56-0.8-2.44-0.83l-0.04,0C46.21,27.13,36.54,17.47,36.05,5.58l0-0.06
		c-0.03-0.88-0.31-1.72-0.83-2.44c-0.82-1.14-2.15-1.83-3.56-1.83s-2.73,0.68-3.54,1.81c-0.52,0.71-0.81,1.56-0.84,2.44l0,0.06
		C26.8,17.46,17.14,27.12,5.25,27.62l-0.06,0c-0.88,0.03-1.73,0.31-2.48,0.85C1.59,29.29,0.93,30.61,0.93,32
		c0,1.38,0.66,2.69,1.76,3.51c0.72,0.54,1.58,0.85,2.49,0.87l0.05,0c11.89,0.48,21.56,10.14,22.05,22.03l0,0.07
		c0.03,0.91,0.33,1.77,0.87,2.49c0.82,1.1,2.13,1.76,3.51,1.76c1.39,0,2.71-0.67,3.56-1.82c0.52-0.72,0.8-1.56,0.83-2.45l0-0.04
		c0.48-11.9,10.14-21.56,22.03-22.05l0.07,0c0.89-0.03,1.73-0.32,2.44-0.84c1.14-0.82,1.81-2.14,1.81-3.54
		C62.41,30.59,61.73,29.26,60.59,28.44z"/>
	<path d="M62.36,10.73L62.36,10.73c-0.27-0.19-0.58-0.3-0.95-0.32v0c-2.38-0.09-4.32-2.02-4.43-4.4l0-0.03
		c-0.01-0.34-0.12-0.66-0.32-0.95c-0.32-0.45-0.85-0.72-1.4-0.72c-0.55,0-1.07,0.27-1.39,0.71c-0.2,0.28-0.32,0.61-0.33,0.95l0,0.03
		c-0.1,2.38-2.04,4.32-4.42,4.41c-0.35,0.01-0.68,0.12-0.98,0.33c-0.44,0.32-0.7,0.84-0.7,1.39c0,0.54,0.26,1.06,0.69,1.38
		c0.27,0.2,0.6,0.32,0.98,0.34v0c2.38,0.09,4.32,2.02,4.43,4.4l0,0.03c0.01,0.36,0.14,0.7,0.33,0.96c0.32,0.44,0.84,0.7,1.39,0.7
		c0.54,0,1.06-0.26,1.4-0.72c0.2-0.28,0.31-0.6,0.32-0.94l0-0.03c0.1-2.38,2.04-4.32,4.42-4.41c0.35-0.01,0.68-0.12,0.97-0.33
		c0.45-0.32,0.71-0.84,0.71-1.39C63.07,11.58,62.8,11.05,62.36,10.73z"/>
</g>
</svg>
