<?xml version="1.0" encoding="utf-8"?>
<!-- Generator: Adobe Illustrator 25.0.1, SVG Export Plug-In . SVG Version: 6.00 Build 0)  -->
<svg version="1.1" id="Layer_1" xmlns="http://www.w3.org/2000/svg" xmlns:xlink="http://www.w3.org/1999/xlink" x="0px" y="0px"
	 viewBox="0 0 67.25 64" style="enable-background:new 0 0 67.25 64;" xml:space="preserve">
<style type="text/css">
	.st0{clip-path:url(#SVGID_2_);}
	.st1{clip-path:url(#SVGID_4_);fill:#231F20;}
	.st2{clip-path:url(#SVGID_6_);}
	.st3{clip-path:url(#SVGID_8_);fill:#231F20;}
	.st4{clip-path:url(#SVGID_10_);}
	.st5{clip-path:url(#SVGID_12_);fill:#231F20;}
	.st6{clip-path:url(#SVGID_14_);}
	.st7{clip-path:url(#SVGID_16_);fill:#231F20;}
	.st8{stroke:#000000;stroke-width:1.1;stroke-miterlimit:10;}
	.st9{fill:url(#SVGID_17_);}
	.st10{fill:#FFFFFF;}
	.st11{fill-rule:evenodd;clip-rule:evenodd;}
	.st12{fill:none;stroke:#231F20;stroke-width:3;stroke-miterlimit:10;}
	.st13{fill:url(#SVGID_18_);}
	.st14{fill:url(#SVGID_19_);}
	.st15{opacity:0.66;fill:url(#SVGID_20_);}
	.st16{fill:none;stroke:#000000;stroke-width:7;stroke-miterlimit:10;}
	.st17{fill:none;stroke:#000000;stroke-width:3;stroke-linecap:round;stroke-miterlimit:10;}
	.st18{fill:#FF1A51;}
	.st19{fill:url(#SVGID_21_);}
	.st20{fill:url(#SVGID_22_);}
	.st21{fill:#853900;}
	.st22{fill:#6F53C2;}
	.st23{fill:url(#SVGID_23_);}
	.st24{fill:url(#SVGID_24_);}
	.st25{fill:#B66643;}
	.st26{fill:url(#SVGID_25_);}
	.st27{fill:url(#SVGID_26_);}
	.st28{fill:none;stroke:#FF1A51;stroke-width:2;stroke-miterlimit:10;}
	.st29{fill:none;stroke:#FF1A51;stroke-width:2;stroke-linecap:round;stroke-miterlimit:10;}
	.st30{stroke:#000000;stroke-width:2;stroke-miterlimit:10;}
	.st31{fill:none;stroke:#000000;stroke-width:2;stroke-miterlimit:10;}
	.st32{fill-rule:evenodd;clip-rule:evenodd;fill:none;stroke:#000000;stroke-width:2;stroke-miterlimit:10;}
	.st33{fill:url(#SVGID_27_);}
	.st34{fill:url(#SVGID_28_);}
	.st35{fill:url(#SVGID_29_);}
	.st36{fill:url(#SVGID_30_);}
	.st37{fill:url(#SVGID_31_);}
	.st38{opacity:0.84;}
	.st39{fill:#FEFEFE;}
	.st40{fill:#FCFCFC;}
	.st41{fill:#FDFDFD;}
	.st42{fill:#E94335;}
	.st43{fill:#34A753;}
	.st44{fill:#4284F3;}
	.st45{fill:#FABB05;}
	.st46{fill:none;stroke:#000000;stroke-width:3;stroke-miterlimit:10;}
	.st47{fill:url(#SVGID_32_);}
	.st48{fill:url(#SVGID_33_);}
	.st49{fill:url(#SVGID_34_);}
	.st50{fill:url(#SVGID_35_);}
</style>
<path d="M67.25,30.13l-2.91-1.89c-1.99-1.3-4.26-1.82-6.46-1.64l4.4-6.75l-2.7-1.76c-2.81-1.82-6.18-2.45-9.45-1.76
	c-2.6,0.57-4.91,1.89-6.65,3.82l-3.1-4.78c-2.75-4.21-6.96-7.13-11.89-8.18c-4.95-1.05-9.98-0.1-14.21,2.64l-1.76,1.13l3.9,6.02
	c-2.96-0.46-6.08,0.13-8.76,1.87l-2.7,1.76l4.38,6.75C7.15,27.18,4.88,27.72,2.89,29L0,30.89l7.19,11.07H5.45v15.26h55.89V41.96
	h-1.76L67.25,30.13z M61.43,31.39l-5.33,8.2l-3.31-5.09v-0.02l0.57-0.86C55.09,30.91,58.6,29.99,61.43,31.39z M50.99,20.45
	c1.87-0.4,3.77-0.15,5.47,0.69l-6.16,9.5l-4.42-6.79C47.09,22.08,48.91,20.89,50.99,20.45z M27.61,11.31
	c3.84,0.82,7.13,3.06,9.25,6.35l4,6.16l2.52,3.86l4.4,6.79l0.02,0.02l2.49,3.84l2.35,3.63H37.65l-1.78-2.73v-0.02l-2.49-3.84
	l-8.32-12.81l-6.65-10.23C21.26,10.99,24.47,10.64,27.61,11.31z M21.53,24.85l9.35,14.38l1.76,2.73h-8.83l-6.41-9.87
	c-0.02-0.02-0.04-0.06-0.06-0.08l-6.56-10.1C14.53,20.03,19.2,21.24,21.53,24.85z M5.81,32.17c2.83-1.4,6.33-0.5,8.07,2.2l4.93,7.59
	h-6.63L5.81,32.17z M57.17,53.03H9.6v-6.88h47.57V53.03z"/>
</svg>
