<?xml version="1.0" encoding="utf-8"?>
<!-- Generator: Adobe Illustrator 25.0.1, SVG Export Plug-In . SVG Version: 6.00 Build 0)  -->
<svg version="1.1" id="Layer_1" xmlns="http://www.w3.org/2000/svg" xmlns:xlink="http://www.w3.org/1999/xlink" x="0px" y="0px"
	 viewBox="0 0 64 64" style="enable-background:new 0 0 64 64;" xml:space="preserve">
<style type="text/css">
	.st0{clip-path:url(#SVGID_2_);}
	.st1{clip-path:url(#SVGID_4_);fill:#231F20;}
	.st2{clip-path:url(#SVGID_6_);}
	.st3{clip-path:url(#SVGID_8_);fill:#231F20;}
	.st4{clip-path:url(#SVGID_10_);}
	.st5{clip-path:url(#SVGID_12_);fill:#231F20;}
	.st6{clip-path:url(#SVGID_14_);}
	.st7{clip-path:url(#SVGID_16_);fill:#231F20;}
	.st8{stroke:#000000;stroke-width:1.1;stroke-miterlimit:10;}
	.st9{fill:url(#SVGID_17_);}
	.st10{fill:#FFFFFF;}
	.st11{fill-rule:evenodd;clip-rule:evenodd;}
	.st12{fill:none;stroke:#231F20;stroke-width:3;stroke-miterlimit:10;}
	.st13{fill:url(#SVGID_18_);}
	.st14{fill:url(#SVGID_19_);}
	.st15{opacity:0.66;fill:url(#SVGID_20_);}
	.st16{fill:none;stroke:#000000;stroke-width:7;stroke-miterlimit:10;}
	.st17{fill:none;stroke:#000000;stroke-width:3;stroke-linecap:round;stroke-miterlimit:10;}
	.st18{fill:#FF1A51;}
	.st19{fill:url(#SVGID_21_);}
	.st20{fill:url(#SVGID_22_);}
	.st21{fill:#853900;}
	.st22{fill:#6F53C2;}
	.st23{fill:url(#SVGID_23_);}
	.st24{fill:url(#SVGID_24_);}
	.st25{fill:#B66643;}
	.st26{fill:url(#SVGID_25_);}
	.st27{fill:url(#SVGID_26_);}
	.st28{fill:none;stroke:#FF1A51;stroke-width:2;stroke-miterlimit:10;}
	.st29{fill:none;stroke:#FF1A51;stroke-width:2;stroke-linecap:round;stroke-miterlimit:10;}
	.st30{stroke:#000000;stroke-width:2;stroke-miterlimit:10;}
	.st31{fill:none;stroke:#000000;stroke-width:2;stroke-miterlimit:10;}
	.st32{fill-rule:evenodd;clip-rule:evenodd;fill:none;stroke:#000000;stroke-width:2;stroke-miterlimit:10;}
	.st33{fill:url(#SVGID_27_);}
	.st34{fill:url(#SVGID_28_);}
	.st35{fill:url(#SVGID_29_);}
	.st36{fill:url(#SVGID_30_);}
	.st37{fill:url(#SVGID_31_);}
	.st38{opacity:0.84;}
	.st39{fill:#FEFEFE;}
	.st40{fill:#FCFCFC;}
	.st41{fill:#FDFDFD;}
	.st42{fill:#E94335;}
	.st43{fill:#34A753;}
	.st44{fill:#4284F3;}
	.st45{fill:#FABB05;}
	.st46{fill:none;stroke:#000000;stroke-width:3;stroke-miterlimit:10;}
	.st47{fill:url(#SVGID_32_);}
	.st48{fill:url(#SVGID_33_);}
	.st49{fill:url(#SVGID_34_);}
	.st50{fill:url(#SVGID_35_);}
</style>
<g>
	<linearGradient id="SVGID_2_" gradientUnits="userSpaceOnUse" x1="13.1947" y1="2.7992" x2="51.8953" y2="62.8933">
		<stop  offset="0" style="stop-color:#73B9FF"/>
		<stop  offset="1" style="stop-color:#2994FF"/>
	</linearGradient>
	<path style="fill:url(#SVGID_2_);" d="M38.43,0.44H25.57c-1.17,0-2.12,0.94-2.12,2.09v58.93c0,1.16,0.95,2.09,2.12,2.09h12.86
		c1.17,0,2.12-0.94,2.12-2.09V2.53C40.55,1.38,39.6,0.44,38.43,0.44z"/>
	<linearGradient id="SVGID_4_" gradientUnits="userSpaceOnUse" x1="-6.2108" y1="15.1193" x2="32.5056" y2="75.238">
		<stop  offset="0" style="stop-color:#73B9FF"/>
		<stop  offset="1" style="stop-color:#2994FF"/>
	</linearGradient>
	<path style="fill:url(#SVGID_4_);" d="M15.76,14.96H2.91c-1.17,0-2.12,0.94-2.12,2.09v44.41c0,1.16,0.95,2.09,2.12,2.09h12.86
		c1.17,0,2.12-0.94,2.12-2.09V17.05C17.88,15.9,16.93,14.96,15.76,14.96z"/>
	<linearGradient id="SVGID_6_" gradientUnits="userSpaceOnUse" x1="23.2087" y1="-3.5851" x2="61.9458" y2="56.5656">
		<stop  offset="0" style="stop-color:#73B9FF"/>
		<stop  offset="1" style="stop-color:#2994FF"/>
	</linearGradient>
	<path style="fill:url(#SVGID_6_);" d="M61.09,26.96H48.24c-1.17,0-2.12,0.94-2.12,2.09v32.41c0,1.16,0.95,2.09,2.12,2.09h12.86
		c1.17,0,2.12-0.94,2.12-2.09V29.05C63.21,27.9,62.26,26.96,61.09,26.96z"/>
</g>
</svg>
