<?xml version="1.0" encoding="utf-8"?>
<!-- Generator: Adobe Illustrator 25.0.1, SVG Export Plug-In . SVG Version: 6.00 Build 0)  -->
<svg version="1.1" id="Layer_1" xmlns="http://www.w3.org/2000/svg" xmlns:xlink="http://www.w3.org/1999/xlink" x="0px" y="0px"
	 viewBox="0 0 64 64" style="enable-background:new 0 0 64 64;" xml:space="preserve">
<style type="text/css">
	.st0{clip-path:url(#SVGID_2_);}
	.st1{clip-path:url(#SVGID_4_);fill:#231F20;}
	.st2{clip-path:url(#SVGID_6_);}
	.st3{clip-path:url(#SVGID_8_);fill:#231F20;}
	.st4{clip-path:url(#SVGID_10_);}
	.st5{clip-path:url(#SVGID_12_);fill:#231F20;}
	.st6{clip-path:url(#SVGID_14_);}
	.st7{clip-path:url(#SVGID_16_);fill:#231F20;}
	.st8{stroke:#000000;stroke-width:1.1;stroke-miterlimit:10;}
	.st9{fill:url(#SVGID_17_);}
	.st10{fill:#FFFFFF;}
	.st11{fill-rule:evenodd;clip-rule:evenodd;}
	.st12{fill:none;stroke:#231F20;stroke-width:3;stroke-miterlimit:10;}
	.st13{fill:url(#SVGID_18_);}
	.st14{fill:url(#SVGID_19_);}
	.st15{opacity:0.66;fill:url(#SVGID_20_);}
	.st16{fill:none;stroke:#000000;stroke-width:7;stroke-miterlimit:10;}
	.st17{fill:none;stroke:#000000;stroke-width:3;stroke-linecap:round;stroke-miterlimit:10;}
	.st18{fill:#FF1A51;}
	.st19{fill:url(#SVGID_21_);}
	.st20{fill:url(#SVGID_22_);}
	.st21{fill:#853900;}
	.st22{fill:#6F53C2;}
	.st23{fill:url(#SVGID_23_);}
	.st24{fill:url(#SVGID_24_);}
	.st25{fill:#B66643;}
	.st26{fill:url(#SVGID_25_);}
	.st27{fill:url(#SVGID_26_);}
	.st28{fill:none;stroke:#FF1A51;stroke-width:2;stroke-miterlimit:10;}
	.st29{fill:none;stroke:#FF1A51;stroke-width:2;stroke-linecap:round;stroke-miterlimit:10;}
	.st30{stroke:#000000;stroke-width:2;stroke-miterlimit:10;}
	.st31{fill:none;stroke:#000000;stroke-width:2;stroke-miterlimit:10;}
	.st32{fill-rule:evenodd;clip-rule:evenodd;fill:none;stroke:#000000;stroke-width:2;stroke-miterlimit:10;}
	.st33{fill:url(#SVGID_27_);}
	.st34{fill:url(#SVGID_28_);}
	.st35{fill:url(#SVGID_29_);}
	.st36{fill:url(#SVGID_30_);}
	.st37{fill:url(#SVGID_31_);}
	.st38{opacity:0.84;}
	.st39{fill:#FEFEFE;}
	.st40{fill:#FCFCFC;}
	.st41{fill:#FDFDFD;}
	.st42{fill:#E94335;}
	.st43{fill:#34A753;}
	.st44{fill:#4284F3;}
	.st45{fill:#FABB05;}
	.st46{fill:none;stroke:#000000;stroke-width:3;stroke-miterlimit:10;}
	.st47{fill:url(#SVGID_32_);}
	.st48{fill:url(#SVGID_33_);}
	.st49{fill:url(#SVGID_34_);}
	.st50{fill:url(#SVGID_35_);}
</style>
<g>
	<path d="M32,64c-3.4,0-6.45-2.28-7.43-5.54c-0.24-0.82-0.09-1.71,0.42-2.39c0.5-0.68,1.28-1.06,2.12-1.06h9.78
		c0.85,0,1.62,0.39,2.12,1.06c0.51,0.68,0.66,1.57,0.42,2.39C38.45,61.72,35.4,64,32,64 M27.11,57.49c-0.02,0-0.08,0-0.13,0.07
		c-0.02,0.03-0.06,0.1-0.03,0.19c0.67,2.22,2.74,3.77,5.05,3.77s4.39-1.55,5.05-3.77c0.03-0.1-0.01-0.16-0.03-0.19
		c-0.05-0.07-0.11-0.07-0.13-0.07H27.11z"/>
	<path d="M52.21,44.63c-0.43-0.43-0.67-1.02-0.67-1.63V27.67c0-9.99-5.31-18.36-14.65-20.58V5.08c0-2.55-1.87-4.83-4.41-5.06
		c-2.92-0.27-5.35,2-5.35,4.86V7.1C17.8,9.31,12.47,17.65,12.47,27.67V43c0,0.61-0.24,1.2-0.67,1.63l-5.16,5.16
		c-0.43,0.43-0.68,1.02-0.68,1.63c0,1.27,1.03,2.3,2.3,2.3h47.49c1.27,0,2.3-1.03,2.3-2.3c0-0.61-0.24-1.2-0.67-1.63L52.21,44.63z
		 M10.24,51.13c-0.55,0-0.82-0.67-0.42-1.05l4.78-4.58c0.45-0.43,0.7-1.02,0.7-1.63V27.11C15.3,17.19,21.6,9.1,32,9.1
		s16.7,8.08,16.7,18.01v16.75c0,0.61,0.25,1.2,0.7,1.63l4.78,4.58c0.4,0.38,0.13,1.05-0.42,1.05H10.24z"/>
</g>
</svg>
