<?xml version="1.0" encoding="utf-8"?>
<!-- Generator: Adobe Illustrator 25.0.1, SVG Export Plug-In . SVG Version: 6.00 Build 0)  -->
<svg version="1.1" id="Layer_1" xmlns="http://www.w3.org/2000/svg" xmlns:xlink="http://www.w3.org/1999/xlink" x="0px" y="0px"
	 viewBox="0 0 64 64" style="enable-background:new 0 0 64 64;" xml:space="preserve">
<style type="text/css">
	.st0{clip-path:url(#SVGID_2_);}
	.st1{clip-path:url(#SVGID_4_);fill:#231F20;}
	.st2{clip-path:url(#SVGID_6_);}
	.st3{clip-path:url(#SVGID_8_);fill:#231F20;}
	.st4{clip-path:url(#SVGID_10_);}
	.st5{clip-path:url(#SVGID_12_);fill:#231F20;}
	.st6{clip-path:url(#SVGID_14_);}
	.st7{clip-path:url(#SVGID_16_);fill:#231F20;}
	.st8{stroke:#000000;stroke-width:1.1;stroke-miterlimit:10;}
	.st9{fill:url(#SVGID_17_);}
	.st10{fill:#FFFFFF;}
	.st11{fill-rule:evenodd;clip-rule:evenodd;}
	.st12{fill:none;stroke:#231F20;stroke-width:3;stroke-miterlimit:10;}
	.st13{fill:url(#SVGID_18_);}
	.st14{fill:url(#SVGID_19_);}
	.st15{opacity:0.66;fill:url(#SVGID_20_);}
	.st16{fill:none;stroke:#000000;stroke-width:7;stroke-miterlimit:10;}
	.st17{fill:none;stroke:#000000;stroke-width:3;stroke-linecap:round;stroke-miterlimit:10;}
	.st18{fill:#FF1A51;}
	.st19{fill:url(#SVGID_21_);}
	.st20{fill:url(#SVGID_22_);}
	.st21{fill:#853900;}
	.st22{fill:#6F53C2;}
	.st23{fill:url(#SVGID_23_);}
	.st24{fill:url(#SVGID_24_);}
	.st25{fill:#B66643;}
	.st26{fill:url(#SVGID_25_);}
	.st27{fill:url(#SVGID_26_);}
	.st28{fill:none;stroke:#FF1A51;stroke-width:2;stroke-miterlimit:10;}
	.st29{fill:none;stroke:#FF1A51;stroke-width:2;stroke-linecap:round;stroke-miterlimit:10;}
	.st30{stroke:#000000;stroke-width:2;stroke-miterlimit:10;}
	.st31{fill:none;stroke:#000000;stroke-width:2;stroke-miterlimit:10;}
	.st32{fill-rule:evenodd;clip-rule:evenodd;fill:none;stroke:#000000;stroke-width:2;stroke-miterlimit:10;}
	.st33{fill:url(#SVGID_27_);}
	.st34{fill:url(#SVGID_28_);}
	.st35{fill:url(#SVGID_29_);}
	.st36{fill:url(#SVGID_30_);}
	.st37{fill:url(#SVGID_31_);}
	.st38{opacity:0.84;}
	.st39{fill:#FEFEFE;}
	.st40{fill:#FCFCFC;}
	.st41{fill:#FDFDFD;}
	.st42{fill:#E94335;}
	.st43{fill:#34A753;}
	.st44{fill:#4284F3;}
	.st45{fill:#FABB05;}
	.st46{fill:none;stroke:#000000;stroke-width:3;stroke-miterlimit:10;}
	.st47{fill:url(#SVGID_32_);}
	.st48{fill:url(#SVGID_33_);}
	.st49{fill:url(#SVGID_34_);}
	.st50{fill:url(#SVGID_35_);}
</style>
<g>
	<radialGradient id="SVGID_2_" cx="65.8342" cy="56.4524" r="71.925" gradientUnits="userSpaceOnUse">
		<stop  offset="0.1549" style="stop-color:#FD9FD0"/>
		<stop  offset="0.1737" style="stop-color:#FD96CF"/>
		<stop  offset="0.2724" style="stop-color:#FB6ACA"/>
		<stop  offset="0.3491" style="stop-color:#F94EC6"/>
		<stop  offset="0.3939" style="stop-color:#F944C5"/>
		<stop  offset="0.5125" style="stop-color:#F93CC4"/>
		<stop  offset="0.6725" style="stop-color:#F938C4"/>
		<stop  offset="0.8222" style="stop-color:#E20CB9"/>
	</radialGradient>
	<path style="fill:url(#SVGID_2_);" d="M54.77,64H9.23c-1.65,0-3-1.35-3-3V23.93c0-1.65,1.35-3,3-3h45.53c1.65,0,3,1.35,3,3V61
		C57.77,62.65,56.42,64,54.77,64z"/>
	<linearGradient id="SVGID_4_" gradientUnits="userSpaceOnUse" x1="32.0887" y1="29.2272" x2="31.8935" y2="67.4908">
		<stop  offset="0.0879" style="stop-color:#FF83A9"/>
		<stop  offset="0.189" style="stop-color:#FFC6D7"/>
		<stop  offset="0.4522" style="stop-color:#FFE7EE"/>
		<stop  offset="0.6779" style="stop-color:#FFFFFF"/>
		<stop  offset="0.9227" style="stop-color:#FFC4D6"/>
	</linearGradient>
	<rect x="26.49" y="29.25" style="fill:url(#SVGID_4_);" width="11.03" height="34.75"/>
	<linearGradient id="SVGID_6_" gradientUnits="userSpaceOnUse" x1="26.7179" y1="48.19" x2="36.6852" y2="-2.6778">
		<stop  offset="0.1289" style="stop-color:#FF83A9"/>
		<stop  offset="0.1697" style="stop-color:#FD7CB2"/>
		<stop  offset="0.2791" style="stop-color:#FA6DC5"/>
		<stop  offset="0.3919" style="stop-color:#F864D0"/>
		<stop  offset="0.5124" style="stop-color:#F761D4"/>
		<stop  offset="0.6779" style="stop-color:#ED40E9"/>
	</linearGradient>
	<path style="fill:url(#SVGID_6_);" d="M55.45,11.13h-4c0.43-0.62,0.69-1.23,0.84-1.72c1.05-3.47-1.2-7.58-4.92-8.99
		C42-1.6,35.42,4.11,32,7.68c-3.43-3.56-10-9.26-15.36-7.25c-3.72,1.4-5.98,5.52-4.92,8.99c0.15,0.49,0.41,1.1,0.84,1.72h-4
		c-3.28,0-5.96,2.68-5.96,5.96v8.29c0,3.28,2.68,5.96,5.96,5.96h46.9c3.28,0,5.96-2.68,5.96-5.96v-8.29
		C61.41,13.81,58.73,11.13,55.45,11.13z M45.86,4.41c1.64,0.62,2.76,2.42,2.35,3.77c-0.48,1.56-3.73,3.51-12.7,2
		C38.7,6.97,43.25,3.42,45.86,4.41z M18.14,4.41c0.29-0.11,0.61-0.16,0.96-0.16c2.55,0,6.37,2.86,9.41,5.93
		c-9,1.51-12.24-0.44-12.72-2C15.38,6.82,16.5,5.02,18.14,4.41z"/>
	<linearGradient id="SVGID_8_" gradientUnits="userSpaceOnUse" x1="31.9999" y1="6.9328" x2="31.9999" y2="35.9689">
		<stop  offset="0.0879" style="stop-color:#FF83A9"/>
		<stop  offset="0.189" style="stop-color:#FFC6D7"/>
		<stop  offset="0.4522" style="stop-color:#FFE7EE"/>
		<stop  offset="0.6779" style="stop-color:#FFFFFF"/>
		<stop  offset="0.9227" style="stop-color:#FFC4D6"/>
	</linearGradient>
	<path style="fill:url(#SVGID_8_);" d="M37.9,31.34H26.1c-0.55,0-1-0.45-1-1V10.87c0-0.55,0.45-1,1-1H37.9c0.55,0,1,0.45,1,1v19.47
		C38.9,30.89,38.45,31.34,37.9,31.34z"/>
</g>
</svg>
