<?xml version="1.0" encoding="utf-8"?>
<!-- Generator: Adobe Illustrator 25.0.1, SVG Export Plug-In . SVG Version: 6.00 Build 0)  -->
<svg version="1.1" id="Layer_1" xmlns="http://www.w3.org/2000/svg" xmlns:xlink="http://www.w3.org/1999/xlink" x="0px" y="0px"
	 viewBox="0 0 64 64" style="enable-background:new 0 0 64 64;" xml:space="preserve">
<style type="text/css">
	.st0{clip-path:url(#SVGID_2_);}
	.st1{clip-path:url(#SVGID_4_);fill:#231F20;}
	.st2{clip-path:url(#SVGID_6_);}
	.st3{clip-path:url(#SVGID_8_);fill:#231F20;}
	.st4{clip-path:url(#SVGID_10_);}
	.st5{clip-path:url(#SVGID_12_);fill:#231F20;}
	.st6{clip-path:url(#SVGID_14_);}
	.st7{clip-path:url(#SVGID_16_);fill:#231F20;}
	.st8{stroke:#000000;stroke-width:1.1;stroke-miterlimit:10;}
	.st9{fill:url(#SVGID_17_);}
	.st10{fill:#FFFFFF;}
	.st11{fill-rule:evenodd;clip-rule:evenodd;}
	.st12{fill:none;stroke:#231F20;stroke-width:3;stroke-miterlimit:10;}
	.st13{fill:url(#SVGID_18_);}
	.st14{fill:url(#SVGID_19_);}
	.st15{opacity:0.66;fill:url(#SVGID_20_);}
	.st16{fill:none;stroke:#000000;stroke-width:7;stroke-miterlimit:10;}
	.st17{fill:none;stroke:#000000;stroke-width:3;stroke-linecap:round;stroke-miterlimit:10;}
	.st18{fill:#FF1A51;}
	.st19{fill:url(#SVGID_21_);}
	.st20{fill:url(#SVGID_22_);}
	.st21{fill:#853900;}
	.st22{fill:#6F53C2;}
	.st23{fill:url(#SVGID_23_);}
	.st24{fill:url(#SVGID_24_);}
	.st25{fill:#B66643;}
	.st26{fill:url(#SVGID_25_);}
	.st27{fill:url(#SVGID_26_);}
	.st28{fill:none;stroke:#FF1A51;stroke-width:2;stroke-miterlimit:10;}
	.st29{fill:none;stroke:#FF1A51;stroke-width:2;stroke-linecap:round;stroke-miterlimit:10;}
	.st30{font-family:'BerlinSansFBDemi-Bold';}
	.st31{font-size:12px;}
	.st32{stroke:#000000;stroke-width:2;stroke-miterlimit:10;}
	.st33{fill:none;stroke:#000000;stroke-width:2;stroke-miterlimit:10;}
	.st34{fill-rule:evenodd;clip-rule:evenodd;fill:none;stroke:#000000;stroke-width:2;stroke-miterlimit:10;}
	.st35{fill:url(#SVGID_27_);}
	.st36{fill:url(#SVGID_28_);}
	.st37{fill:url(#SVGID_29_);}
	.st38{fill:url(#SVGID_30_);}
	.st39{fill:url(#SVGID_31_);}
	.st40{opacity:0.84;}
	.st41{fill:#FEFEFE;}
	.st42{fill:#FCFCFC;}
	.st43{fill:#FDFDFD;}
	.st44{fill:#E94335;}
	.st45{fill:#34A753;}
	.st46{fill:#4284F3;}
	.st47{fill:#FABB05;}
	.st48{fill:none;stroke:#000000;stroke-width:3;stroke-miterlimit:10;}
	.st49{fill:url(#SVGID_32_);}
	.st50{fill:url(#SVGID_33_);}
	.st51{fill:url(#SVGID_34_);}
	.st52{fill:url(#SVGID_35_);}
</style>
<path d="M61.63,55.87v-28.4c0-1.46-0.67-2.86-1.84-3.84L35.8,3.43c-1.08-0.91-2.44-1.37-3.8-1.37H32c-1.36,0-2.72,0.46-3.8,1.37
	L4.21,23.63c-1.17,0.98-1.83,2.38-1.83,3.84v28.4c0,2.87,2.53,5.2,5.63,5.2h47.99C59.1,61.07,61.63,58.73,61.63,55.87z M40.12,43.09
	c-0.23,0.24-0.48,0.42-0.76,0.58l-9.65,5.83c-3.37,2.04-7.6-0.5-7.6-4.58V33.28c0-4.08,4.23-6.65,7.6-4.61l9.65,5.83
	c0.28,0.16,0.53,0.34,0.76,0.58C42.47,37.15,42.47,41.02,40.12,43.09z"/>
<text transform="matrix(1 0 0 1 0 -1.7576)" class="st30 st31">room</text>
</svg>
