<?xml version="1.0" encoding="utf-8"?>
<!-- Generator: Adobe Illustrator 25.0.1, SVG Export Plug-In . SVG Version: 6.00 Build 0)  -->
<svg version="1.1" id="Layer_1" xmlns="http://www.w3.org/2000/svg" xmlns:xlink="http://www.w3.org/1999/xlink" x="0px" y="0px"
	 viewBox="0 0 64 64" style="enable-background:new 0 0 64 64;" xml:space="preserve">
<style type="text/css">
	.st0{clip-path:url(#SVGID_2_);}
	.st1{clip-path:url(#SVGID_4_);fill:#231F20;}
	.st2{clip-path:url(#SVGID_6_);}
	.st3{clip-path:url(#SVGID_8_);fill:#231F20;}
	.st4{clip-path:url(#SVGID_10_);}
	.st5{clip-path:url(#SVGID_12_);fill:#231F20;}
	.st6{clip-path:url(#SVGID_14_);}
	.st7{clip-path:url(#SVGID_16_);fill:#231F20;}
	.st8{stroke:#000000;stroke-width:1.1;stroke-miterlimit:10;}
	.st9{fill:url(#SVGID_17_);}
	.st10{fill:#FFFFFF;}
	.st11{fill-rule:evenodd;clip-rule:evenodd;}
	.st12{fill:none;stroke:#231F20;stroke-width:3;stroke-miterlimit:10;}
	.st13{fill:url(#SVGID_18_);}
	.st14{fill:url(#SVGID_19_);}
	.st15{opacity:0.66;fill:url(#SVGID_20_);}
	.st16{fill:none;stroke:#000000;stroke-width:7;stroke-miterlimit:10;}
	.st17{fill:none;stroke:#000000;stroke-width:3;stroke-linecap:round;stroke-miterlimit:10;}
	.st18{fill:#FF1A51;}
	.st19{fill:url(#SVGID_21_);}
	.st20{fill:url(#SVGID_22_);}
	.st21{fill:#853900;}
	.st22{fill:#6F53C2;}
	.st23{fill:url(#SVGID_23_);}
	.st24{fill:url(#SVGID_24_);}
	.st25{fill:#B66643;}
	.st26{fill:url(#SVGID_25_);}
	.st27{fill:url(#SVGID_26_);}
	.st28{fill:none;stroke:#FF1A51;stroke-width:2;stroke-miterlimit:10;}
	.st29{fill:none;stroke:#FF1A51;stroke-width:2;stroke-linecap:round;stroke-miterlimit:10;}
	.st30{stroke:#000000;stroke-width:2;stroke-miterlimit:10;}
	.st31{fill:none;stroke:#000000;stroke-width:2;stroke-miterlimit:10;}
	.st32{fill-rule:evenodd;clip-rule:evenodd;fill:none;stroke:#000000;stroke-width:2;stroke-miterlimit:10;}
	.st33{fill:url(#SVGID_27_);}
	.st34{fill:url(#SVGID_28_);}
	.st35{fill:url(#SVGID_29_);}
	.st36{fill:url(#SVGID_30_);}
	.st37{fill:url(#SVGID_31_);}
	.st38{opacity:0.84;}
	.st39{fill:#FEFEFE;}
	.st40{fill:#FCFCFC;}
	.st41{fill:#FDFDFD;}
	.st42{fill:#E94335;}
	.st43{fill:#34A753;}
	.st44{fill:#4284F3;}
	.st45{fill:#FABB05;}
	.st46{fill:none;stroke:#000000;stroke-width:3;stroke-miterlimit:10;}
	.st47{fill:url(#SVGID_32_);}
	.st48{fill:url(#SVGID_33_);}
	.st49{fill:url(#SVGID_34_);}
	.st50{fill:url(#SVGID_35_);}
</style>
<g>
	<path d="M59.48,39.41c-1.49,0-2.7,1.21-2.7,2.7v12.37c0,1.27-1.03,2.3-2.3,2.3H42.1c-1.49,0-2.7,1.21-2.7,2.7s1.21,2.7,2.7,2.7
		h12.38c4.25,0,7.7-3.45,7.7-7.7V42.11C62.18,40.62,60.97,39.41,59.48,39.41z"/>
	<path d="M54.48,1.82H42.1c-1.49,0-2.7,1.21-2.7,2.7s1.21,2.7,2.7,2.7h12.38c1.27,0,2.3,1.03,2.3,2.3V21.9c0,1.49,1.21,2.7,2.7,2.7
		s2.7-1.21,2.7-2.7V9.52C62.18,5.27,58.73,1.82,54.48,1.82z"/>
	<path d="M4.52,24.6c1.49,0,2.7-1.21,2.7-2.7V9.52c0-1.27,1.03-2.3,2.3-2.3h12.37c1.49,0,2.7-1.21,2.7-2.7s-1.21-2.7-2.7-2.7H9.52
		c-4.25,0-7.7,3.45-7.7,7.7V21.9C1.82,23.39,3.03,24.6,4.52,24.6z"/>
	<path d="M21.89,56.78H9.52c-1.27,0-2.3-1.03-2.3-2.3V42.11c0-1.49-1.21-2.7-2.7-2.7s-2.7,1.21-2.7,2.7v12.37
		c0,4.25,3.45,7.7,7.7,7.7h12.37c1.49,0,2.7-1.21,2.7-2.7S23.38,56.78,21.89,56.78z"/>
	<path d="M11.06,32c0,1.49,1.21,2.7,2.7,2.7h36.48c1.49,0,2.7-1.21,2.7-2.7c0-1.49-1.21-2.7-2.7-2.7H13.76
		C12.27,29.3,11.06,30.51,11.06,32z"/>
</g>
</svg>
