<?xml version="1.0" encoding="utf-8"?>
<!-- Generator: Adobe Illustrator 25.0.1, SVG Export Plug-In . SVG Version: 6.00 Build 0)  -->
<svg version="1.1" id="Layer_1" xmlns="http://www.w3.org/2000/svg" xmlns:xlink="http://www.w3.org/1999/xlink" x="0px" y="0px"
	 viewBox="0 0 64 64" style="enable-background:new 0 0 64 64;" xml:space="preserve">
<style type="text/css">
	.st0{clip-path:url(#SVGID_2_);}
	.st1{clip-path:url(#SVGID_4_);fill:#231F20;}
	.st2{clip-path:url(#SVGID_6_);}
	.st3{clip-path:url(#SVGID_8_);fill:#231F20;}
	.st4{clip-path:url(#SVGID_10_);}
	.st5{clip-path:url(#SVGID_12_);fill:#231F20;}
	.st6{clip-path:url(#SVGID_14_);}
	.st7{clip-path:url(#SVGID_16_);fill:#231F20;}
	.st8{stroke:#000000;stroke-width:1.1;stroke-miterlimit:10;}
	.st9{fill:url(#SVGID_17_);}
	.st10{fill:#FFFFFF;}
	.st11{fill-rule:evenodd;clip-rule:evenodd;}
	.st12{fill:none;stroke:#231F20;stroke-width:3;stroke-miterlimit:10;}
	.st13{fill:url(#SVGID_18_);}
	.st14{fill:url(#SVGID_19_);}
	.st15{opacity:0.66;fill:url(#SVGID_20_);}
	.st16{fill:none;stroke:#000000;stroke-width:7;stroke-miterlimit:10;}
	.st17{fill:none;stroke:#000000;stroke-width:3;stroke-linecap:round;stroke-miterlimit:10;}
	.st18{fill:#FF1A51;}
	.st19{fill:url(#SVGID_21_);}
	.st20{fill:url(#SVGID_22_);}
	.st21{fill:#853900;}
	.st22{fill:#6F53C2;}
	.st23{fill:url(#SVGID_23_);}
	.st24{fill:url(#SVGID_24_);}
	.st25{fill:#B66643;}
	.st26{fill:url(#SVGID_25_);}
	.st27{fill:url(#SVGID_26_);}
	.st28{fill:none;stroke:#FF1A51;stroke-width:2;stroke-miterlimit:10;}
	.st29{fill:none;stroke:#FF1A51;stroke-width:2;stroke-linecap:round;stroke-miterlimit:10;}
	.st30{stroke:#000000;stroke-width:2;stroke-miterlimit:10;}
	.st31{fill:none;stroke:#000000;stroke-width:2;stroke-miterlimit:10;}
	.st32{fill-rule:evenodd;clip-rule:evenodd;fill:none;stroke:#000000;stroke-width:2;stroke-miterlimit:10;}
	.st33{fill:url(#SVGID_27_);}
	.st34{fill:url(#SVGID_28_);}
	.st35{fill:url(#SVGID_29_);}
	.st36{fill:url(#SVGID_30_);}
	.st37{fill:url(#SVGID_31_);}
	.st38{opacity:0.84;}
	.st39{fill:#FEFEFE;}
	.st40{fill:#FCFCFC;}
	.st41{fill:#FDFDFD;}
	.st42{fill:#E94335;}
	.st43{fill:#34A753;}
	.st44{fill:#4284F3;}
	.st45{fill:#FABB05;}
	.st46{fill:none;stroke:#000000;stroke-width:3;stroke-miterlimit:10;}
	.st47{fill:url(#SVGID_32_);}
	.st48{fill:url(#SVGID_33_);}
	.st49{fill:url(#SVGID_34_);}
	.st50{fill:url(#SVGID_35_);}
</style>
<path d="M59.23,64c-1.02,0-1.99-0.4-2.72-1.12L38.55,44.92c-0.44-0.44-1.15-0.52-1.7-0.2c-3.8,2.2-8.16,3.29-12.61,3.19
	C11.41,47.57,0.96,36.84,0.94,23.99C0.93,17.24,3.79,10.76,8.79,6.22c5.06-4.6,11.62-6.77,18.5-6.1c11.02,1.07,20,9.8,21.37,20.77
	c0.77,6.15-0.81,12.27-4.44,17.21c-0.39,0.53-0.31,1.3,0.18,1.79l17.54,17.55c1.46,1.47,1.49,3.88,0.06,5.37
	c-0.72,0.75-1.69,1.17-2.73,1.19H59.23z M37.58,42.01c1.01,0,2.01,0.39,2.75,1.13L58.29,61.1c0.26,0.26,0.55,0.41,0.96,0.39
	c0.36,0,0.69-0.15,0.94-0.41c0.5-0.52,0.49-1.35-0.02-1.86L42.63,41.67c-1.36-1.36-1.54-3.53-0.43-5.05
	c3.25-4.43,4.66-9.9,3.97-15.42c-1.22-9.81-9.26-17.63-19.12-18.58C20.9,2.03,15.01,3.96,10.48,8.08C6,12.15,3.45,17.94,3.45,23.98
	c0.01,11.5,9.37,21.11,20.86,21.41c3.97,0.11,7.88-0.88,11.28-2.85C36.21,42.19,36.9,42.01,37.58,42.01 M24.9,42.18
	c-10.06,0-18.24-8.18-18.24-18.22c0-10.06,8.18-18.24,18.24-18.24c10.05,0,18.23,8.18,18.23,18.24
	C43.12,34.01,34.95,42.18,24.9,42.18 M24.9,8.24c-8.67,0-15.72,7.05-15.72,15.72c0,8.66,7.05,15.71,15.72,15.71
	c8.66,0,15.71-7.05,15.71-15.71C40.61,15.29,33.56,8.24,24.9,8.24"/>
</svg>
