<?xml version="1.0" encoding="utf-8"?>
<!-- Generator: Adobe Illustrator 25.0.1, SVG Export Plug-In . SVG Version: 6.00 Build 0)  -->
<svg version="1.1" id="Layer_1" xmlns="http://www.w3.org/2000/svg" xmlns:xlink="http://www.w3.org/1999/xlink" x="0px" y="0px"
	 viewBox="0 0 64 64" style="enable-background:new 0 0 64 64;" xml:space="preserve">
<style type="text/css">
	.st0{clip-path:url(#SVGID_2_);}
	.st1{clip-path:url(#SVGID_4_);fill:#231F20;}
	.st2{clip-path:url(#SVGID_6_);}
	.st3{clip-path:url(#SVGID_8_);fill:#231F20;}
	.st4{clip-path:url(#SVGID_10_);}
	.st5{clip-path:url(#SVGID_12_);fill:#231F20;}
	.st6{clip-path:url(#SVGID_14_);}
	.st7{clip-path:url(#SVGID_16_);fill:#231F20;}
	.st8{stroke:#000000;stroke-width:1.1;stroke-miterlimit:10;}
	.st9{fill:url(#SVGID_17_);}
	.st10{fill:#FFFFFF;}
	.st11{fill-rule:evenodd;clip-rule:evenodd;}
	.st12{fill:none;stroke:#231F20;stroke-width:3;stroke-miterlimit:10;}
	.st13{fill:url(#SVGID_18_);}
	.st14{fill:url(#SVGID_19_);}
	.st15{opacity:0.66;fill:url(#SVGID_20_);}
	.st16{fill:none;stroke:#000000;stroke-width:7;stroke-miterlimit:10;}
	.st17{fill:none;stroke:#000000;stroke-width:3;stroke-linecap:round;stroke-miterlimit:10;}
	.st18{fill:#FF1A51;}
	.st19{fill:url(#SVGID_21_);}
	.st20{fill:url(#SVGID_22_);}
	.st21{fill:#853900;}
	.st22{fill:#6F53C2;}
	.st23{fill:url(#SVGID_23_);}
	.st24{fill:url(#SVGID_24_);}
	.st25{fill:#B66643;}
	.st26{fill:url(#SVGID_25_);}
	.st27{fill:url(#SVGID_26_);}
	.st28{fill:none;stroke:#FF1A51;stroke-width:2;stroke-miterlimit:10;}
	.st29{fill:none;stroke:#FF1A51;stroke-width:2;stroke-linecap:round;stroke-miterlimit:10;}
	.st30{stroke:#000000;stroke-width:2;stroke-miterlimit:10;}
	.st31{fill:none;stroke:#000000;stroke-width:2;stroke-miterlimit:10;}
	.st32{fill-rule:evenodd;clip-rule:evenodd;fill:none;stroke:#000000;stroke-width:2;stroke-miterlimit:10;}
	.st33{fill:url(#SVGID_27_);}
	.st34{fill:url(#SVGID_28_);}
	.st35{fill:url(#SVGID_29_);}
	.st36{fill:url(#SVGID_30_);}
	.st37{fill:url(#SVGID_31_);}
	.st38{opacity:0.84;}
	.st39{fill:#FEFEFE;}
	.st40{fill:#FCFCFC;}
	.st41{fill:#FDFDFD;}
	.st42{fill:#E94335;}
	.st43{fill:#34A753;}
	.st44{fill:#4284F3;}
	.st45{fill:#FABB05;}
	.st46{fill:none;stroke:#000000;stroke-width:3;stroke-miterlimit:10;}
	.st47{fill:url(#SVGID_32_);}
	.st48{fill:url(#SVGID_33_);}
	.st49{fill:url(#SVGID_34_);}
	.st50{fill:url(#SVGID_35_);}
</style>
<g>
	<path d="M63.61,25.79c-0.26-0.36-0.62-0.63-1.04-0.77l-7.61-2.53l3.59-7.18c0.18-0.38,0.25-0.81,0.17-1.24
		c-0.07-0.44-0.27-0.83-0.58-1.14l-7.07-7.07c-0.31-0.31-0.71-0.52-1.15-0.59c-0.43-0.07-0.87-0.01-1.27,0.19l-7.16,3.58l-2.54-7.61
		c-0.14-0.41-0.4-0.77-0.76-1.03S37.41,0.01,36.98,0h-9.96c-0.01,0-0.01,0-0.01,0c-0.44,0-0.87,0.14-1.22,0.4
		c-0.37,0.25-0.63,0.61-0.77,1.03l-2.54,7.61l-7.17-3.59c-0.38-0.18-0.82-0.24-1.25-0.17c-0.43,0.07-0.82,0.27-1.13,0.58l-7.08,7.07
		c-0.31,0.32-0.51,0.71-0.58,1.15c-0.08,0.44-0.01,0.87,0.19,1.27l3.58,7.17l-7.62,2.54c-0.41,0.13-0.76,0.4-1.02,0.75
		C0.14,26.17,0,26.59,0,27.03v9.96c0,0.44,0.13,0.87,0.39,1.23c0.26,0.36,0.62,0.62,1.04,0.77l7.61,2.53l-3.59,7.17
		c-0.18,0.38-0.24,0.82-0.17,1.25c0.07,0.43,0.27,0.83,0.58,1.14l7.07,7.07c0.31,0.31,0.71,0.52,1.15,0.59
		c0.43,0.07,0.87,0,1.27-0.19l7.16-3.58l2.54,7.61c0.14,0.41,0.41,0.77,0.77,1.03S26.6,64,27.04,64c0.01,0,0.01,0,0.01,0h9.97
		c0.44,0,0.87-0.13,1.23-0.39s0.62-0.62,0.77-1.04l2.53-7.6l7.17,3.58c0.37,0.18,0.81,0.24,1.23,0.17c0.43-0.08,0.82-0.27,1.13-0.58
		l7.07-7.07c0.31-0.31,0.51-0.71,0.58-1.14c0.08-0.44,0.01-0.88-0.18-1.28l-3.59-7.16l7.62-2.54c0.41-0.14,0.76-0.4,1.02-0.76
		c0.26-0.35,0.4-0.77,0.4-1.21v-9.96C64,26.57,63.87,26.15,63.61,25.79z M42.03,38.71c-1.33,1.99-3.2,3.53-5.41,4.44
		c-2.21,0.92-4.63,1.16-6.97,0.69c-2.35-0.47-4.49-1.61-6.18-3.3c-1.7-1.7-2.84-3.83-3.31-6.18c-0.46-2.35-0.23-4.76,0.69-6.97
		c0.92-2.22,2.45-4.09,4.44-5.42c2-1.33,4.32-2.03,6.71-2.03c3.22,0,6.25,1.25,8.53,3.53c2.28,2.28,3.54,5.31,3.54,8.53
		C44.07,34.4,43.37,36.72,42.03,38.71z"/>
	<path d="M39.86,32c0,2.1-0.81,4.08-2.3,5.57c-1.49,1.48-3.46,2.3-5.56,2.3c-1.56,0-3.07-0.46-4.37-1.33
		c-1.3-0.86-2.3-2.08-2.9-3.53c-0.59-1.44-0.75-3.01-0.44-4.54c0.3-1.53,1.05-2.93,2.15-4.03s2.5-1.85,4.03-2.15
		c1.53-0.3,3.1-0.15,4.54,0.45c1.44,0.6,2.66,1.6,3.53,2.89C39.41,28.93,39.86,30.44,39.86,32z"/>
</g>
</svg>
