<?xml version="1.0" encoding="utf-8"?>
<!-- Generator: Adobe Illustrator 25.0.1, SVG Export Plug-In . SVG Version: 6.00 Build 0)  -->
<svg version="1.1" id="Layer_1" xmlns="http://www.w3.org/2000/svg" xmlns:xlink="http://www.w3.org/1999/xlink" x="0px" y="0px"
	 viewBox="0 0 64 64" style="enable-background:new 0 0 64 64;" xml:space="preserve">
<style type="text/css">
	.st0{clip-path:url(#SVGID_2_);}
	.st1{clip-path:url(#SVGID_4_);fill:#231F20;}
	.st2{clip-path:url(#SVGID_6_);}
	.st3{clip-path:url(#SVGID_8_);fill:#231F20;}
	.st4{clip-path:url(#SVGID_10_);}
	.st5{clip-path:url(#SVGID_12_);fill:#231F20;}
	.st6{clip-path:url(#SVGID_14_);}
	.st7{clip-path:url(#SVGID_16_);fill:#231F20;}
	.st8{stroke:#000000;stroke-width:1.1;stroke-miterlimit:10;}
	.st9{fill:url(#SVGID_17_);}
	.st10{fill:#FFFFFF;}
	.st11{fill-rule:evenodd;clip-rule:evenodd;}
	.st12{fill:none;stroke:#231F20;stroke-width:3;stroke-miterlimit:10;}
	.st13{fill:url(#SVGID_18_);}
	.st14{fill:url(#SVGID_19_);}
	.st15{opacity:0.66;fill:url(#SVGID_20_);}
	.st16{fill:none;stroke:#000000;stroke-width:7;stroke-miterlimit:10;}
	.st17{fill:none;stroke:#000000;stroke-width:3;stroke-linecap:round;stroke-miterlimit:10;}
	.st18{fill:#FF1A51;}
	.st19{fill:url(#SVGID_21_);}
	.st20{fill:url(#SVGID_22_);}
	.st21{fill:#853900;}
	.st22{fill:#6F53C2;}
	.st23{fill:url(#SVGID_23_);}
	.st24{fill:url(#SVGID_24_);}
	.st25{fill:#B66643;}
	.st26{fill:url(#SVGID_25_);}
	.st27{fill:url(#SVGID_26_);}
	.st28{fill:none;stroke:#FF1A51;stroke-width:2;stroke-miterlimit:10;}
	.st29{fill:none;stroke:#FF1A51;stroke-width:2;stroke-linecap:round;stroke-miterlimit:10;}
	.st30{stroke:#000000;stroke-width:2;stroke-miterlimit:10;}
	.st31{fill:none;stroke:#000000;stroke-width:2;stroke-miterlimit:10;}
	.st32{fill-rule:evenodd;clip-rule:evenodd;fill:none;stroke:#000000;stroke-width:2;stroke-miterlimit:10;}
	.st33{fill:url(#SVGID_27_);}
	.st34{fill:url(#SVGID_28_);}
	.st35{fill:url(#SVGID_29_);}
	.st36{fill:url(#SVGID_30_);}
	.st37{fill:url(#SVGID_31_);}
	.st38{opacity:0.84;}
	.st39{fill:#FEFEFE;}
	.st40{fill:#FCFCFC;}
	.st41{fill:#FDFDFD;}
	.st42{fill:#E94335;}
	.st43{fill:#34A753;}
	.st44{fill:#4284F3;}
	.st45{fill:#FABB05;}
	.st46{fill:none;stroke:#000000;stroke-width:3;stroke-miterlimit:10;}
	.st47{fill:url(#SVGID_32_);}
	.st48{fill:url(#SVGID_33_);}
	.st49{fill:url(#SVGID_34_);}
	.st50{fill:url(#SVGID_35_);}
</style>
<path d="M30.81,5.06c-0.55-0.24-1.16-0.33-1.76-0.26c-0.6,0.07-1.17,0.3-1.65,0.66L12.64,18.35H4.19c-0.9,0-1.77,0.36-2.41,1
	c-0.64,0.64-1,1.5-1,2.41v20.43c0,0.9,0.36,1.77,1,2.41c0.64,0.64,1.5,1,2.41,1h8.45l14.59,12.87c0.6,0.48,1.34,0.74,2.11,0.75
	c0.51,0.01,1.01-0.11,1.46-0.34c0.58-0.28,1.07-0.71,1.41-1.25c0.34-0.54,0.53-1.17,0.53-1.81V8.13c0-0.64-0.18-1.27-0.53-1.81
	C31.88,5.77,31.39,5.34,30.81,5.06z M25.94,48.73l-9.99-9.2c-0.6-0.48-1.34-0.74-2.11-0.75H7.59V25.16h6.24
	c0.77,0,1.51-0.27,2.11-0.75l9.99-9.2V48.73z M55.43,12.69c-0.64-0.64-1.51-1-2.42-1c-0.91,0-1.78,0.36-2.42,1
	c-0.64,0.64-1,1.51-1,2.42c0,0.91,0.36,1.78,1,2.42c2.01,2,3.57,4.4,4.6,7.04c1.03,2.64,1.5,5.47,1.38,8.3
	c-0.12,2.83-0.83,5.61-2.08,8.15c-1.25,2.54-3.02,4.8-5.19,6.62c-0.53,0.45-0.9,1.05-1.08,1.72c-0.18,0.67-0.14,1.38,0.09,2.03
	c0.24,0.65,0.67,1.22,1.23,1.62c0.57,0.4,1.24,0.62,1.93,0.63c0.8,0,1.57-0.28,2.18-0.78c2.9-2.43,5.26-5.43,6.93-8.82
	c1.67-3.39,2.62-7.09,2.79-10.87c0.17-3.78-0.45-7.55-1.82-11.07C60.19,18.57,58.11,15.37,55.43,12.69z M45.8,22.33
	c-0.32-0.32-0.69-0.57-1.11-0.74c-0.41-0.17-0.86-0.26-1.31-0.26c-0.45,0-0.89,0.09-1.31,0.26c-0.42,0.17-0.79,0.42-1.11,0.74
	c-0.32,0.32-0.57,0.69-0.74,1.11c-0.17,0.41-0.26,0.86-0.26,1.31c0,0.45,0.09,0.89,0.26,1.31c0.17,0.41,0.42,0.79,0.74,1.11
	c1.28,1.27,2,3,2.01,4.8c0,0.99-0.22,1.97-0.63,2.87c-0.42,0.9-1.03,1.7-1.79,2.34c-0.35,0.29-0.63,0.64-0.84,1.03
	c-0.21,0.4-0.34,0.83-0.38,1.28c-0.04,0.45,0.01,0.9,0.14,1.32c0.13,0.43,0.35,0.82,0.64,1.17c0.29,0.34,0.64,0.62,1.04,0.83
	c0.4,0.21,0.83,0.33,1.28,0.37c0.45,0.04,0.9-0.01,1.32-0.15c0.43-0.14,0.82-0.35,1.16-0.64c1.52-1.28,2.75-2.87,3.59-4.67
	c0.84-1.8,1.28-3.76,1.28-5.75C49.76,28.36,48.33,24.9,45.8,22.33z"/>
</svg>
