<?xml version="1.0" encoding="utf-8"?>
<!-- Generator: Adobe Illustrator 25.0.1, SVG Export Plug-In . SVG Version: 6.00 Build 0)  -->
<svg version="1.1" id="Layer_1" xmlns="http://www.w3.org/2000/svg" xmlns:xlink="http://www.w3.org/1999/xlink" x="0px" y="0px"
	 viewBox="0 0 64 64" style="enable-background:new 0 0 64 64;" xml:space="preserve">
<style type="text/css">
	.st0{clip-path:url(#SVGID_2_);}
	.st1{clip-path:url(#SVGID_4_);fill:#231F20;}
	.st2{clip-path:url(#SVGID_6_);}
	.st3{clip-path:url(#SVGID_8_);fill:#231F20;}
	.st4{clip-path:url(#SVGID_10_);}
	.st5{clip-path:url(#SVGID_12_);fill:#231F20;}
	.st6{clip-path:url(#SVGID_14_);}
	.st7{clip-path:url(#SVGID_16_);fill:#231F20;}
	.st8{stroke:#000000;stroke-width:1.1;stroke-miterlimit:10;}
	.st9{fill:url(#SVGID_17_);}
	.st10{fill:#FFFFFF;}
	.st11{fill-rule:evenodd;clip-rule:evenodd;}
	.st12{fill:none;stroke:#231F20;stroke-width:3;stroke-miterlimit:10;}
	.st13{fill:url(#SVGID_18_);}
	.st14{fill:url(#SVGID_19_);}
	.st15{opacity:0.66;fill:url(#SVGID_20_);}
	.st16{fill:none;stroke:#000000;stroke-width:7;stroke-miterlimit:10;}
	.st17{fill:none;stroke:#000000;stroke-width:3;stroke-linecap:round;stroke-miterlimit:10;}
	.st18{fill:#FF1A51;}
	.st19{fill:url(#SVGID_21_);}
	.st20{fill:url(#SVGID_22_);}
	.st21{fill:#853900;}
	.st22{fill:#6F53C2;}
	.st23{fill:url(#SVGID_23_);}
	.st24{fill:url(#SVGID_24_);}
	.st25{fill:#B66643;}
	.st26{fill:url(#SVGID_25_);}
	.st27{fill:url(#SVGID_26_);}
	.st28{fill:none;stroke:#FF1A51;stroke-width:2;stroke-miterlimit:10;}
	.st29{fill:none;stroke:#FF1A51;stroke-width:2;stroke-linecap:round;stroke-miterlimit:10;}
	.st30{stroke:#000000;stroke-width:2;stroke-miterlimit:10;}
	.st31{fill:none;stroke:#000000;stroke-width:2;stroke-miterlimit:10;}
	.st32{fill-rule:evenodd;clip-rule:evenodd;fill:none;stroke:#000000;stroke-width:2;stroke-miterlimit:10;}
	.st33{fill:url(#SVGID_27_);}
	.st34{fill:url(#SVGID_28_);}
	.st35{fill:url(#SVGID_29_);}
	.st36{fill:url(#SVGID_30_);}
	.st37{fill:url(#SVGID_31_);}
	.st38{opacity:0.84;}
	.st39{fill:#FEFEFE;}
	.st40{fill:#FCFCFC;}
	.st41{fill:#FDFDFD;}
	.st42{fill:#E94335;}
	.st43{fill:#34A753;}
	.st44{fill:#4284F3;}
	.st45{fill:#FABB05;}
	.st46{fill:none;stroke:#000000;stroke-width:3;stroke-miterlimit:10;}
	.st47{fill:url(#SVGID_32_);}
	.st48{fill:url(#SVGID_33_);}
	.st49{fill:url(#SVGID_34_);}
	.st50{fill:url(#SVGID_35_);}
</style>
<path d="M60.86,19.28l1.79-1.79c0.57-0.57,0.25-1.54-0.54-1.67l-0.87-0.14c-0.13-0.02-0.26-0.02-0.39,0.01l-3.08,0.74h-6.55v-0.4
	l2.51-2.51c0.57-0.57,0.25-1.54-0.54-1.67l-0.82-0.13c-0.16-0.03-0.33-0.01-0.49,0.04l-3.63,1.29H36.08l-1.98-2.81V5.99
	c0-0.24-0.09-0.48-0.25-0.66l-1.09-1.24c-0.4-0.46-1.11-0.46-1.51,0l-1.09,1.24c-0.16,0.18-0.25,0.42-0.25,0.66v4.27l-1.98,2.81
	H15.75l-3.63-1.29c-0.16-0.06-0.32-0.07-0.49-0.04l-0.82,0.13c-0.79,0.13-1.1,1.1-0.54,1.67l2.51,2.51v0.4H6.23L3.15,15.7
	c-0.13-0.03-0.26-0.04-0.39-0.01l-0.87,0.14c-0.79,0.13-1.1,1.1-0.54,1.67l1.79,1.79L0.7,36.52c-0.08,0.59,0.38,1.12,0.97,1.12h2.71
	v22.15c0,0.54,0.44,0.98,0.98,0.98h9.51h2.1h7.64h14.78h7.64h2.1h9.51c0.54,0,0.98-0.44,0.98-0.98V37.64h2.71
	c0.6,0,1.06-0.53,0.97-1.12L60.86,19.28z M51.22,20.64h5.6l1.81,12.81h-7.41V20.64z M47.02,17.27v1.27v10.11l-8-11.37H47.02z
	 M45.28,33.45H18.72L32,14.57L45.28,33.45z M16.98,28.64v-10.1v-1.27h8L16.98,28.64z M12.78,33.45H5.37l1.81-12.81h5.6V33.45z
	 M12.78,56.58h-4.2V37.64h2.07h2.14V56.58z M28.81,56.58v-7.67L32,46.43l3.19,2.48v7.67H28.81z M39.39,56.58v-9.72L32,41.12
	l-7.39,5.73v9.72h-7.64V37.64h30.05v18.94H39.39z M55.42,56.58h-4.2V37.64h2.13h2.07V56.58z"/>
</svg>
