<?xml version="1.0" encoding="utf-8"?>
<!-- Generator: Adobe Illustrator 25.0.1, SVG Export Plug-In . SVG Version: 6.00 Build 0)  -->
<svg version="1.1" id="Layer_1" xmlns="http://www.w3.org/2000/svg" xmlns:xlink="http://www.w3.org/1999/xlink" x="0px" y="0px"
	 viewBox="0 0 64 64" style="enable-background:new 0 0 64 64;" xml:space="preserve">
<style type="text/css">
	.st0{clip-path:url(#SVGID_2_);}
	.st1{clip-path:url(#SVGID_4_);fill:#231F20;}
	.st2{clip-path:url(#SVGID_6_);}
	.st3{clip-path:url(#SVGID_8_);fill:#231F20;}
	.st4{clip-path:url(#SVGID_10_);}
	.st5{clip-path:url(#SVGID_12_);fill:#231F20;}
	.st6{clip-path:url(#SVGID_14_);}
	.st7{clip-path:url(#SVGID_16_);fill:#231F20;}
	.st8{stroke:#000000;stroke-width:1.1;stroke-miterlimit:10;}
	.st9{fill:url(#SVGID_17_);}
	.st10{fill:#FFFFFF;}
	.st11{fill-rule:evenodd;clip-rule:evenodd;}
	.st12{fill:none;stroke:#231F20;stroke-width:3;stroke-miterlimit:10;}
	.st13{fill:url(#SVGID_18_);}
	.st14{fill:url(#SVGID_19_);}
	.st15{opacity:0.66;fill:url(#SVGID_20_);}
	.st16{fill:none;stroke:#000000;stroke-width:7;stroke-miterlimit:10;}
	.st17{fill:none;stroke:#000000;stroke-width:3;stroke-linecap:round;stroke-miterlimit:10;}
	.st18{fill:#FF1A51;}
	.st19{fill:url(#SVGID_21_);}
	.st20{fill:url(#SVGID_22_);}
	.st21{fill:#853900;}
	.st22{fill:#6F53C2;}
	.st23{fill:url(#SVGID_23_);}
	.st24{fill:url(#SVGID_24_);}
	.st25{fill:#B66643;}
	.st26{fill:url(#SVGID_25_);}
	.st27{fill:url(#SVGID_26_);}
	.st28{fill:none;stroke:#FF1A51;stroke-width:2;stroke-miterlimit:10;}
	.st29{fill:none;stroke:#FF1A51;stroke-width:2;stroke-linecap:round;stroke-miterlimit:10;}
	.st30{stroke:#000000;stroke-width:2;stroke-miterlimit:10;}
	.st31{fill:none;stroke:#000000;stroke-width:2;stroke-miterlimit:10;}
	.st32{fill-rule:evenodd;clip-rule:evenodd;fill:none;stroke:#000000;stroke-width:2;stroke-miterlimit:10;}
	.st33{fill:url(#SVGID_27_);}
	.st34{fill:url(#SVGID_28_);}
	.st35{fill:url(#SVGID_29_);}
	.st36{fill:url(#SVGID_30_);}
	.st37{fill:url(#SVGID_31_);}
	.st38{opacity:0.84;}
	.st39{fill:#FEFEFE;}
	.st40{fill:#FCFCFC;}
	.st41{fill:#FDFDFD;}
	.st42{fill:#E94335;}
	.st43{fill:#34A753;}
	.st44{fill:#4284F3;}
	.st45{fill:#FABB05;}
	.st46{fill:none;stroke:#000000;stroke-width:3;stroke-miterlimit:10;}
	.st47{fill:url(#SVGID_32_);}
	.st48{fill:url(#SVGID_33_);}
	.st49{fill:url(#SVGID_34_);}
	.st50{fill:url(#SVGID_35_);}
</style>
<path d="M61.83,31.47c1.94-1.89,2.63-4.67,1.79-7.25c-0.84-2.58-3.03-4.42-5.71-4.81l-13.29-1.93c-0.15-0.02-0.27-0.12-0.34-0.24
	L38.34,5.19c-1.2-2.43-3.63-3.94-6.34-3.94c-2.71,0-5.14,1.51-6.34,3.94l-5.94,12.04c-0.07,0.13-0.19,0.22-0.33,0.24L6.09,19.41
	c-2.68,0.39-4.87,2.23-5.71,4.81c-0.84,2.58-0.15,5.36,1.79,7.25l9.62,9.37c0.11,0.1,0.15,0.25,0.13,0.4L9.65,54.47
	c-0.46,2.67,0.62,5.32,2.81,6.92c1.24,0.9,2.69,1.36,4.15,1.36c1.12,0,2.26-0.27,3.3-0.82l11.89-6.25c0.13-0.07,0.28-0.07,0.41,0
	l11.89,6.25c2.35,1.24,5.29,1.02,7.45-0.54c2.19-1.59,3.27-4.24,2.81-6.92l-2.27-13.24c-0.02-0.14,0.02-0.29,0.13-0.39L61.83,31.47z
	 M47.82,55.6c0.03,0.19-0.02,0.32-0.18,0.43c-0.16,0.11-0.3,0.12-0.47,0.04l-11.89-6.25c-2.06-1.08-4.52-1.09-6.58,0l-11.89,6.25
	c-0.17,0.09-0.31,0.08-0.47-0.03c-0.16-0.11-0.21-0.25-0.18-0.44l2.27-13.23c0.4-2.29-0.36-4.63-2.03-6.26L6.8,26.73
	c-0.14-0.14-0.17-0.28-0.12-0.46c0.06-0.18,0.17-0.28,0.36-0.3l13.29-1.93c2.31-0.33,4.3-1.78,5.33-3.87L31.6,8.12
	c0.08-0.17,0.21-0.25,0.4-0.25c0.19,0,0.32,0.08,0.4,0.25l5.94,12.04c1.03,2.09,3.02,3.54,5.33,3.87l13.29,1.93
	c0.19,0.03,0.3,0.12,0.36,0.3s0.02,0.32-0.11,0.46l-9.62,9.37c-1.67,1.63-2.43,3.96-2.03,6.26"/>
</svg>
