<svg width="24" height="24" viewBox="0 0 24 24" fill="none" xmlns="http://www.w3.org/2000/svg">
<path fill-rule="evenodd" clip-rule="evenodd" d="M21.3714 7.25H15.0157L18.5525 2.15265C20.1799 2.62992 21.3714 4.17171 21.3714 6V7.25ZM1.94286 8.75H21.3714V18C21.3714 20.2091 19.6317 22 17.4857 22H5.82857C3.68255 22 1.94286 20.2091 1.94286 18V8.75ZM5.45357 7.25H1.94286V6C1.94286 3.79086 3.68255 2 5.82857 2H9.09643L5.45357 7.25ZM7.24426 7.25L10.8871 2H16.8678L13.2249 7.25H7.24426ZM15.1198 13.4939C15.3847 13.1822 15.354 12.7083 15.0512 12.4356C14.7484 12.1628 14.2882 12.1944 14.0232 12.5061L11.2352 15.786C11.1497 15.8867 11.0022 15.9002 10.9008 15.8166L9.19802 14.4144C8.88381 14.1556 8.42533 14.208 8.17397 14.5315C7.9226 14.8549 7.97354 15.3269 8.28775 15.5857L9.99046 16.9879C10.7009 17.5729 11.7328 17.4786 12.3319 16.7738L15.1198 13.4939Z" fill="url(#paint0_linear_954_177)"/>
<defs>
<linearGradient id="paint0_linear_954_177" x1="11.6571" y1="2" x2="11.6571" y2="22" gradientUnits="userSpaceOnUse">
<stop stop-color="#9AE6F6"/>
<stop offset="1" stop-color="#00C0FD"/>
</linearGradient>
</defs>
</svg>
