<?xml version="1.0" encoding="utf-8"?>
<!-- Generator: Adobe Illustrator 25.0.1, SVG Export Plug-In . SVG Version: 6.00 Build 0)  -->
<svg version="1.1" id="Layer_1" xmlns="http://www.w3.org/2000/svg" xmlns:xlink="http://www.w3.org/1999/xlink" x="0px" y="0px"
	 viewBox="0 0 74.95 64" style="enable-background:new 0 0 74.95 64;" xml:space="preserve">
<style type="text/css">
	.st0{clip-path:url(#SVGID_2_);}
	.st1{clip-path:url(#SVGID_4_);fill:#231F20;}
	.st2{clip-path:url(#SVGID_6_);}
	.st3{clip-path:url(#SVGID_8_);fill:#231F20;}
	.st4{clip-path:url(#SVGID_10_);}
	.st5{clip-path:url(#SVGID_12_);fill:#231F20;}
	.st6{clip-path:url(#SVGID_14_);}
	.st7{clip-path:url(#SVGID_16_);fill:#231F20;}
	.st8{stroke:#000000;stroke-width:1.1;stroke-miterlimit:10;}
	.st9{fill:url(#SVGID_17_);}
	.st10{fill:#FFFFFF;}
	.st11{fill-rule:evenodd;clip-rule:evenodd;}
	.st12{fill:none;stroke:#231F20;stroke-width:3;stroke-miterlimit:10;}
	.st13{fill:url(#SVGID_18_);}
	.st14{fill:url(#SVGID_19_);}
	.st15{opacity:0.66;fill:url(#SVGID_20_);}
	.st16{fill:none;stroke:#000000;stroke-width:7;stroke-miterlimit:10;}
	.st17{fill:none;stroke:#000000;stroke-width:3;stroke-linecap:round;stroke-miterlimit:10;}
	.st18{fill:#FF1A51;}
	.st19{fill:url(#SVGID_21_);}
	.st20{fill:url(#SVGID_22_);}
	.st21{fill:#853900;}
	.st22{fill:#6F53C2;}
	.st23{fill:url(#SVGID_23_);}
	.st24{fill:url(#SVGID_24_);}
	.st25{fill:#B66643;}
	.st26{fill:url(#SVGID_25_);}
	.st27{fill:url(#SVGID_26_);}
	.st28{fill:none;stroke:#FF1A51;stroke-width:2;stroke-miterlimit:10;}
	.st29{fill:none;stroke:#FF1A51;stroke-width:2;stroke-linecap:round;stroke-miterlimit:10;}
	.st30{stroke:#000000;stroke-width:2;stroke-miterlimit:10;}
	.st31{fill:none;stroke:#000000;stroke-width:2;stroke-miterlimit:10;}
	.st32{fill-rule:evenodd;clip-rule:evenodd;fill:none;stroke:#000000;stroke-width:2;stroke-miterlimit:10;}
	.st33{fill:url(#SVGID_27_);}
	.st34{fill:url(#SVGID_28_);}
	.st35{fill:url(#SVGID_29_);}
	.st36{fill:url(#SVGID_30_);}
	.st37{fill:url(#SVGID_31_);}
	.st38{opacity:0.84;}
	.st39{fill:#FEFEFE;}
	.st40{fill:#FCFCFC;}
	.st41{fill:#FDFDFD;}
	.st42{fill:#E94335;}
	.st43{fill:#34A753;}
	.st44{fill:#4284F3;}
	.st45{fill:#FABB05;}
	.st46{fill:none;stroke:#000000;stroke-width:3;stroke-miterlimit:10;}
	.st47{fill:url(#SVGID_32_);}
	.st48{fill:url(#SVGID_33_);}
	.st49{fill:url(#SVGID_34_);}
	.st50{fill:url(#SVGID_35_);}
</style>
<g>
	<polygon class="st22" points="50.83,40.66 50.83,63.67 45.49,61.46 40.15,59.25 37.48,58.15 34.8,59.25 29.46,61.46 24.12,63.67 
		24.12,40.66 	"/>
	<polygon class="st10" points="45.49,45.14 45.49,61.46 40.15,59.25 40.15,45.14 	"/>
	<polygon class="st10" points="34.8,45.14 34.8,59.25 29.46,61.46 29.46,45.14 	"/>
	<linearGradient id="SVGID_2_" gradientUnits="userSpaceOnUse" x1="37.4213" y1="61.5665" x2="37.5097" y2="46.1649">
		<stop  offset="0.2107" style="stop-color:#FBF3A2;stop-opacity:0"/>
		<stop  offset="0.5175" style="stop-color:#B9A7B1;stop-opacity:0.4633"/>
		<stop  offset="0.8728" style="stop-color:#6F53C2"/>
	</linearGradient>
	<polygon style="fill:url(#SVGID_2_);" points="50.83,40.66 50.83,63.67 45.49,61.46 40.15,59.25 37.48,58.15 34.8,59.25 
		29.46,61.46 24.12,63.67 24.12,40.66 	"/>
	<linearGradient id="SVGID_4_" gradientUnits="userSpaceOnUse" x1="13.4236" y1="0.3614" x2="55.1732" y2="43.7282">
		<stop  offset="0.2899" style="stop-color:#FFF9FC"/>
		<stop  offset="0.8919" style="stop-color:#E7CAF8"/>
		<stop  offset="1" style="stop-color:#FBFAF8"/>
	</linearGradient>
	<circle style="fill:url(#SVGID_4_);" cx="37.48" cy="25.35" r="25.01"/>
	<g>
		<path class="st22" d="M48.57,32.03c0,0.32-0.04,0.81-0.11,1.45c-0.07,0.65-0.1,1.14-0.1,1.48c0,0.34-0.01,0.87-0.02,1.59
			c-0.01,0.72-0.02,1.26-0.02,1.61c0,0.35-0.23,0.53-0.7,0.53c-0.17,0-0.83-0.13-1.98-0.4c-1.28-0.28-3.67-0.42-7.17-0.42
			c-1.08,0-2.71,0.06-4.87,0.18c-2.17,0.12-3.78,0.18-4.83,0.18c-0.37,0-0.57-0.18-0.61-0.53c-0.04-0.48-0.15-1.19-0.32-2.13
			c-0.35-1.43-0.53-2.26-0.53-2.47c0-0.31,0.59-0.54,1.77-0.7c1.38-0.18,2.26-0.44,2.66-0.76c1.42-1.19,2.88-2.71,4.37-4.53
			c1.9-2.31,2.85-4.04,2.85-5.19c0-1-0.36-1.84-1.09-2.52c-0.72-0.68-1.59-1.02-2.58-1.02c-1.13,0-2.24,0.23-3.35,0.68
			c-0.75,0.28-1.53,0.69-2.34,1.22c-0.69,0.44-1.07,0.66-1.14,0.66c-0.48,0-0.72-0.56-0.72-1.69c0-0.87-0.04-1.5-0.11-1.9
			c-0.03-0.18-0.13-0.56-0.32-1.14c-0.17-0.49-0.25-0.86-0.25-1.1c0-0.18,0.12-0.36,0.36-0.53c1.17-0.83,2.73-1.48,4.68-1.96
			c1.74-0.42,3.44-0.63,5.08-0.63c2.67,0,4.91,0.59,6.71,1.77c2.12,1.38,3.19,3.34,3.19,5.88c0,3.39-2.57,7.35-7.7,11.88
			c3.64-0.18,6.5-0.27,8.56-0.27C48.36,31.25,48.57,31.51,48.57,32.03z"/>
	</g>
</g>
</svg>
