<?xml version="1.0" encoding="utf-8"?>
<!-- Generator: Adobe Illustrator 25.0.1, SVG Export Plug-In . SVG Version: 6.00 Build 0)  -->
<svg version="1.1" id="Layer_1" xmlns="http://www.w3.org/2000/svg" xmlns:xlink="http://www.w3.org/1999/xlink" x="0px" y="0px"
	 viewBox="0 0 66.71 64" style="enable-background:new 0 0 66.71 64;" xml:space="preserve">
<style type="text/css">
	.st0{clip-path:url(#SVGID_2_);}
	.st1{clip-path:url(#SVGID_4_);fill:#231F20;}
	.st2{clip-path:url(#SVGID_6_);}
	.st3{clip-path:url(#SVGID_8_);fill:#231F20;}
	.st4{clip-path:url(#SVGID_10_);}
	.st5{clip-path:url(#SVGID_12_);fill:#231F20;}
	.st6{clip-path:url(#SVGID_14_);}
	.st7{clip-path:url(#SVGID_16_);fill:#231F20;}
	.st8{stroke:#000000;stroke-width:1.1;stroke-miterlimit:10;}
	.st9{fill:url(#SVGID_17_);}
	.st10{fill:#FFFFFF;}
	.st11{fill-rule:evenodd;clip-rule:evenodd;}
	.st12{fill:none;stroke:#231F20;stroke-width:3;stroke-miterlimit:10;}
	.st13{fill:url(#SVGID_18_);}
	.st14{fill:url(#SVGID_19_);}
	.st15{opacity:0.66;fill:url(#SVGID_20_);}
	.st16{fill:none;stroke:#000000;stroke-width:7;stroke-miterlimit:10;}
	.st17{fill:none;stroke:#000000;stroke-width:3;stroke-linecap:round;stroke-miterlimit:10;}
	.st18{fill:#FF1A51;}
	.st19{fill:url(#SVGID_21_);}
	.st20{fill:url(#SVGID_22_);}
	.st21{fill:#853900;}
	.st22{fill:#6F53C2;}
	.st23{fill:url(#SVGID_23_);}
	.st24{fill:url(#SVGID_24_);}
	.st25{fill:#B66643;}
	.st26{fill:url(#SVGID_25_);}
	.st27{fill:url(#SVGID_26_);}
	.st28{fill:none;stroke:#FF1A51;stroke-width:2;stroke-miterlimit:10;}
	.st29{fill:none;stroke:#FF1A51;stroke-width:2;stroke-linecap:round;stroke-miterlimit:10;}
	.st30{stroke:#000000;stroke-width:2;stroke-miterlimit:10;}
	.st31{fill:none;stroke:#000000;stroke-width:2;stroke-miterlimit:10;}
	.st32{fill-rule:evenodd;clip-rule:evenodd;fill:none;stroke:#000000;stroke-width:2;stroke-miterlimit:10;}
	.st33{fill:url(#SVGID_27_);}
	.st34{fill:url(#SVGID_28_);}
	.st35{fill:url(#SVGID_29_);}
	.st36{fill:url(#SVGID_30_);}
	.st37{fill:url(#SVGID_31_);}
	.st38{opacity:0.84;}
	.st39{fill:#FEFEFE;}
	.st40{fill:#FCFCFC;}
	.st41{fill:#FDFDFD;}
	.st42{fill:#E94335;}
	.st43{fill:#34A753;}
	.st44{fill:#4284F3;}
	.st45{fill:#FABB05;}
	.st46{fill:none;stroke:#000000;stroke-width:3;stroke-miterlimit:10;}
	.st47{fill:url(#SVGID_32_);}
	.st48{fill:url(#SVGID_33_);}
	.st49{fill:url(#SVGID_34_);}
	.st50{fill:url(#SVGID_35_);}
</style>
<g>
	<polygon class="st25" points="46.7,40.66 46.7,63.67 41.36,61.46 36.02,59.25 33.35,58.15 30.68,59.25 25.34,61.46 20,63.67 
		20,40.66 	"/>
	<polygon class="st10" points="41.36,45.14 41.36,61.46 36.02,59.25 36.02,45.14 	"/>
	<polygon class="st10" points="30.68,45.14 30.68,59.25 25.34,61.46 25.34,45.14 	"/>
	<linearGradient id="SVGID_2_" gradientUnits="userSpaceOnUse" x1="33.2985" y1="61.5665" x2="33.3869" y2="46.1649">
		<stop  offset="0.2107" style="stop-color:#FBF3A2;stop-opacity:0"/>
		<stop  offset="0.4548" style="stop-color:#DFBA7C;stop-opacity:0.393"/>
		<stop  offset="0.8318" style="stop-color:#B66643"/>
	</linearGradient>
	<polygon style="fill:url(#SVGID_2_);" points="46.7,40.66 46.7,63.67 41.36,61.46 36.02,59.25 33.35,58.15 30.68,59.25 
		25.34,61.46 20,63.67 20,40.66 	"/>
	<linearGradient id="SVGID_4_" gradientUnits="userSpaceOnUse" x1="9.3008" y1="0.3614" x2="51.0504" y2="43.7282">
		<stop  offset="0.2899" style="stop-color:#FCD7B9"/>
		<stop  offset="0.4479" style="stop-color:#FDC592"/>
		<stop  offset="0.8048" style="stop-color:#FF9F3E"/>
		<stop  offset="0.8669" style="stop-color:#FFA040"/>
		<stop  offset="0.898" style="stop-color:#FFA448"/>
		<stop  offset="0.9221" style="stop-color:#FEAA55"/>
		<stop  offset="0.9427" style="stop-color:#FEB268"/>
		<stop  offset="0.9611" style="stop-color:#FDBD80"/>
		<stop  offset="0.9778" style="stop-color:#FCCB9E"/>
		<stop  offset="0.993" style="stop-color:#FCDBC1"/>
		<stop  offset="1" style="stop-color:#FBE4D4"/>
	</linearGradient>
	<circle style="fill:url(#SVGID_4_);" cx="33.35" cy="25.35" r="25.01"/>
	<g>
		<g>
			<path class="st21" d="M43.22,30.85c0,2.6-1.08,4.6-3.23,6.01c-1.83,1.21-4.11,1.81-6.85,1.81c-2.11,0-3.85-0.15-5.21-0.44
				c-2.97-0.62-4.45-1.17-4.45-1.65c0-0.08,0.03-0.21,0.08-0.38c0.2-0.52,0.49-1.3,0.86-2.34c0.11-0.52,0.31-1.29,0.59-2.32
				c0.13-0.35,0.34-0.53,0.63-0.53c-0.04,0,0.59,0.23,1.89,0.7c1.3,0.46,2.37,0.7,3.2,0.7c2.76,0,4.13-0.92,4.13-2.76
				c0-1.48-1.31-2.22-3.92-2.22c-0.35,0-0.82,0.01-1.39,0.04c-0.58,0.03-0.96,0.04-1.14,0.04c-0.86,0-1.33-0.01-1.41-0.02
				c-0.62-0.07-0.93-0.31-0.93-0.72c0-2.15,0.08-3.5,0.25-4.05c0.11-0.35,0.34-0.53,0.68-0.53c0.48,0,1.18,0.06,2.12,0.18
				c0.94,0.12,1.63,0.18,2.1,0.18c0.6,0,1.11-0.2,1.51-0.6s0.6-0.91,0.6-1.53c0-1.66-1.21-2.49-3.63-2.49
				c-1.01,0-2.38,0.27-4.11,0.82c-0.07,0.01-0.13,0.02-0.19,0.02c-0.18,0-0.34-0.2-0.46-0.59c-0.03-0.59-0.07-1.27-0.13-2.03
				c-0.01-0.17-0.06-0.5-0.13-1.01c-0.06-0.41-0.08-0.74-0.08-0.99c0-0.75,1.15-1.32,3.46-1.73c1.59-0.28,3.13-0.42,4.62-0.42
				c2.39,0,4.48,0.53,6.29,1.58c2.18,1.27,3.27,3.02,3.27,5.25c0,2.57-1.17,4.53-3.5,5.86c1.38,0.46,2.47,1.25,3.28,2.34
				C42.82,28.15,43.22,29.42,43.22,30.85z"/>
		</g>
	</g>
</g>
</svg>
