<?xml version="1.0" encoding="utf-8"?>
<!-- Generator: Adobe Illustrator 25.0.1, SVG Export Plug-In . SVG Version: 6.00 Build 0)  -->
<svg version="1.1" id="Layer_1" xmlns="http://www.w3.org/2000/svg" xmlns:xlink="http://www.w3.org/1999/xlink" x="0px" y="0px"
	 viewBox="0 0 64 64" style="enable-background:new 0 0 64 64;" xml:space="preserve">
<style type="text/css">
	.st0{clip-path:url(#SVGID_2_);}
	.st1{clip-path:url(#SVGID_4_);fill:#231F20;}
	.st2{clip-path:url(#SVGID_6_);}
	.st3{clip-path:url(#SVGID_8_);fill:#231F20;}
	.st4{clip-path:url(#SVGID_10_);}
	.st5{clip-path:url(#SVGID_12_);fill:#231F20;}
	.st6{clip-path:url(#SVGID_14_);}
	.st7{clip-path:url(#SVGID_16_);fill:#231F20;}
	.st8{stroke:#000000;stroke-width:1.1;stroke-miterlimit:10;}
	.st9{fill:url(#SVGID_17_);}
	.st10{fill:#FFFFFF;}
	.st11{fill-rule:evenodd;clip-rule:evenodd;}
	.st12{fill:none;stroke:#231F20;stroke-width:3;stroke-miterlimit:10;}
	.st13{fill:url(#SVGID_18_);}
	.st14{fill:url(#SVGID_19_);}
	.st15{opacity:0.66;fill:url(#SVGID_20_);}
	.st16{fill:none;stroke:#000000;stroke-width:7;stroke-miterlimit:10;}
	.st17{fill:none;stroke:#000000;stroke-width:3;stroke-linecap:round;stroke-miterlimit:10;}
	.st18{fill:#FF1A51;}
	.st19{fill:url(#SVGID_21_);}
	.st20{fill:url(#SVGID_22_);}
	.st21{fill:#853900;}
	.st22{fill:#6F53C2;}
	.st23{fill:url(#SVGID_23_);}
	.st24{fill:url(#SVGID_24_);}
	.st25{fill:#B66643;}
	.st26{fill:url(#SVGID_25_);}
	.st27{fill:url(#SVGID_26_);}
	.st28{fill:none;stroke:#FF1A51;stroke-width:2;stroke-miterlimit:10;}
	.st29{fill:none;stroke:#FF1A51;stroke-width:2;stroke-linecap:round;stroke-miterlimit:10;}
	.st30{stroke:#000000;stroke-width:2;stroke-miterlimit:10;}
	.st31{fill:none;stroke:#000000;stroke-width:2;stroke-miterlimit:10;}
	.st32{fill-rule:evenodd;clip-rule:evenodd;fill:none;stroke:#000000;stroke-width:2;stroke-miterlimit:10;}
	.st33{fill:url(#SVGID_27_);}
	.st34{fill:url(#SVGID_28_);}
	.st35{fill:url(#SVGID_29_);}
	.st36{fill:url(#SVGID_30_);}
	.st37{fill:url(#SVGID_31_);}
	.st38{opacity:0.84;}
	.st39{fill:#FEFEFE;}
	.st40{fill:#FCFCFC;}
	.st41{fill:#FDFDFD;}
	.st42{fill:#E94335;}
	.st43{fill:#34A753;}
	.st44{fill:#4284F3;}
	.st45{fill:#FABB05;}
	.st46{fill:none;stroke:#000000;stroke-width:3;stroke-miterlimit:10;}
	.st47{fill:url(#SVGID_32_);}
	.st48{fill:url(#SVGID_33_);}
	.st49{fill:url(#SVGID_34_);}
	.st50{fill:url(#SVGID_35_);}
</style>
<g>
	<path d="M62.89,60.03c-0.05-0.07-0.11-0.14-0.17-0.2c-0.01-0.01-0.01-0.01-0.02-0.02l-8.14-9.01c4.28-5.34,6.62-11.95,6.62-18.8
		c0-16.63-13.52-30.15-30.15-30.15C14.41,1.85,0.88,15.37,0.88,32c0,16.62,13.53,30.15,30.15,30.15h30.73
		c0.75,0,1.36-0.61,1.36-1.36C63.12,60.51,63.04,60.24,62.89,60.03z M43.27,35.4c1.31,0,2.29,0.25,2.96,0.75
		c0.66,0.5,0.99,1.14,0.99,1.9c0,0.77-0.33,1.39-0.98,1.87c-0.65,0.48-1.64,0.72-2.97,0.72h-4.5l-1.38,5.39
		c-0.21,0.86-0.4,1.53-0.57,2c-0.17,0.47-0.48,0.88-0.95,1.23c-0.47,0.35-1.14,0.53-2.02,0.53c-0.97,0-1.75-0.22-2.31-0.66
		c-0.57-0.44-0.85-1.01-0.85-1.71c0-0.64,0.14-1.44,0.41-2.4l1.08-4.38h-6.46l-1.38,5.39c-0.35,1.33-0.72,2.29-1.1,2.88
		c-0.38,0.58-1.19,0.88-2.44,0.88c-0.99,0-1.77-0.22-2.34-0.66s-0.85-1.01-0.85-1.71c0-0.36,0.06-0.77,0.16-1.21
		c0.11-0.45,0.2-0.84,0.28-1.19l1.08-4.38c-2.69-0.05-4.03-0.91-4.03-2.59c0-0.78,0.33-1.42,1-1.91c0.68-0.49,1.67-0.74,2.97-0.74
		h1.38l1.67-6.83h-3.05c-1.26,0-2.24-0.25-2.94-0.76c-0.69-0.51-1.03-1.13-1.03-1.87c0-0.78,0.33-1.41,1-1.89
		c0.68-0.47,1.67-0.71,2.97-0.71h4.36l1.38-5.38c0.21-0.9,0.45-1.62,0.72-2.13c0.26-0.52,0.62-0.91,1.08-1.18
		c0.46-0.26,1.06-0.39,1.8-0.39c1.03,0,1.82,0.22,2.37,0.65c0.54,0.44,0.82,1,0.82,1.69c0,0.16-0.17,0.95-0.5,2.37l-1.08,4.37h6.41
		l1.4-5.38c0.19-0.81,0.38-1.47,0.56-1.97c0.17-0.5,0.49-0.92,0.95-1.26c0.45-0.35,1.12-0.52,2-0.52c1.01,0,1.8,0.21,2.36,0.63
		c0.55,0.43,0.83,1,0.83,1.72c0,0.32-0.02,0.65-0.07,0.96s-0.12,0.61-0.19,0.9c-0.08,0.29-0.13,0.48-0.15,0.55l-1.08,4.42
		c2.79,0.04,4.18,0.91,4.18,2.6c0,0.78-0.33,1.41-0.99,1.88c-0.67,0.47-1.65,0.7-2.96,0.7h-1.49l-1.76,6.83H43.27z"/>
	<polygon points="26.98,35.4 33.5,35.4 35.17,28.57 28.7,28.57 	"/>
</g>
</svg>
