<?xml version="1.0" encoding="utf-8"?>
<!-- Generator: Adobe Illustrator 25.0.1, SVG Export Plug-In . SVG Version: 6.00 Build 0)  -->
<svg version="1.1" id="Layer_1" xmlns="http://www.w3.org/2000/svg" xmlns:xlink="http://www.w3.org/1999/xlink" x="0px" y="0px"
	 viewBox="0 0 64 64" style="enable-background:new 0 0 64 64;" xml:space="preserve">
<style type="text/css">
	.st0{clip-path:url(#SVGID_2_);}
	.st1{clip-path:url(#SVGID_4_);fill:#231F20;}
	.st2{clip-path:url(#SVGID_6_);}
	.st3{clip-path:url(#SVGID_8_);fill:#231F20;}
	.st4{clip-path:url(#SVGID_10_);}
	.st5{clip-path:url(#SVGID_12_);fill:#231F20;}
	.st6{clip-path:url(#SVGID_14_);}
	.st7{clip-path:url(#SVGID_16_);fill:#231F20;}
	.st8{stroke:#000000;stroke-width:1.1;stroke-miterlimit:10;}
	.st9{fill:url(#SVGID_17_);}
	.st10{fill:#FFFFFF;}
	.st11{fill-rule:evenodd;clip-rule:evenodd;}
	.st12{fill:none;stroke:#231F20;stroke-width:3;stroke-miterlimit:10;}
	.st13{fill:url(#SVGID_18_);}
	.st14{fill:url(#SVGID_19_);}
	.st15{opacity:0.66;fill:url(#SVGID_20_);}
	.st16{fill:none;stroke:#000000;stroke-width:7;stroke-miterlimit:10;}
	.st17{fill:none;stroke:#000000;stroke-width:3;stroke-linecap:round;stroke-miterlimit:10;}
	.st18{fill:#FF1A51;}
	.st19{fill:url(#SVGID_21_);}
	.st20{fill:url(#SVGID_22_);}
	.st21{fill:#853900;}
	.st22{fill:#6F53C2;}
	.st23{fill:url(#SVGID_23_);}
	.st24{fill:url(#SVGID_24_);}
	.st25{fill:#B66643;}
	.st26{fill:url(#SVGID_25_);}
	.st27{fill:url(#SVGID_26_);}
	.st28{fill:none;stroke:#FF1A51;stroke-width:2;stroke-miterlimit:10;}
	.st29{fill:none;stroke:#FF1A51;stroke-width:2;stroke-linecap:round;stroke-miterlimit:10;}
	.st30{stroke:#000000;stroke-width:2;stroke-miterlimit:10;}
	.st31{fill:none;stroke:#000000;stroke-width:2;stroke-miterlimit:10;}
	.st32{fill-rule:evenodd;clip-rule:evenodd;fill:none;stroke:#000000;stroke-width:2;stroke-miterlimit:10;}
	.st33{fill:url(#SVGID_27_);}
	.st34{fill:url(#SVGID_28_);}
	.st35{fill:url(#SVGID_29_);}
	.st36{fill:url(#SVGID_30_);}
	.st37{fill:url(#SVGID_31_);}
	.st38{opacity:0.84;}
	.st39{fill:#FEFEFE;}
	.st40{fill:#FCFCFC;}
	.st41{fill:#FDFDFD;}
	.st42{fill:#E94335;}
	.st43{fill:#34A753;}
	.st44{fill:#4284F3;}
	.st45{fill:#FABB05;}
	.st46{fill:none;stroke:#000000;stroke-width:3;stroke-miterlimit:10;}
	.st47{fill:url(#SVGID_32_);}
	.st48{fill:url(#SVGID_33_);}
	.st49{fill:url(#SVGID_34_);}
	.st50{fill:url(#SVGID_35_);}
</style>
<path d="M63.83,12.29c-2.39,1.04-4.92,1.72-7.51,2.04c2.73-1.63,4.78-4.2,5.76-7.23c-2.57,1.53-5.38,2.6-8.31,3.18
	c-1.96-2.12-4.57-3.54-7.42-4.02c-2.85-0.48-5.78,0-8.33,1.36c-2.55,1.36-4.57,3.53-5.76,6.17c-1.18,2.64-1.46,5.59-0.78,8.4
	c-5.19-0.26-10.27-1.61-14.9-3.97c-4.63-2.35-8.72-5.65-12-9.69c-1.15,2.01-1.75,4.28-1.75,6.59c0,2.15,0.52,4.26,1.53,6.16
	c1.01,1.89,2.47,3.51,4.26,4.7c-2.08-0.06-4.11-0.61-5.92-1.62v0.16c0.02,3.01,1.07,5.92,2.98,8.24c1.91,2.32,4.57,3.91,7.52,4.5
	c-1.14,0.35-2.31,0.53-3.5,0.54c-0.82-0.01-1.64-0.08-2.45-0.22c0.84,2.59,2.47,4.85,4.65,6.47c2.19,1.62,4.82,2.52,7.54,2.57
	c-4.59,3.61-10.26,5.59-16.11,5.6c-1.06,0-2.13-0.06-3.18-0.19c5.97,3.85,12.92,5.9,20.02,5.89c4.9,0.05,9.76-0.88,14.3-2.72
	c4.54-1.85,8.66-4.58,12.14-8.05c3.47-3.46,6.22-7.58,8.08-12.11c1.86-4.53,2.8-9.39,2.76-14.3c0-0.54,0-1.11,0-1.69
	C59.97,17.18,62.12,14.9,63.83,12.29z"/>
</svg>
