<svg width="18" height="18" viewBox="0 0 18 18" fill="none" xmlns="http://www.w3.org/2000/svg">
<path d="M17.0892 8.41083L14.8333 6.155V3.99999C14.8333 3.77898 14.7455 3.56702 14.5893 3.41074C14.433 3.25446 14.221 3.16666 14 3.16666H11.845L9.58916 0.910828C9.43289 0.754602 9.22097 0.66684 9 0.66684C8.77903 0.66684 8.5671 0.754602 8.41083 0.910828L6.155 3.16666H3.99999C3.77898 3.16666 3.56702 3.25446 3.41074 3.41074C3.25446 3.56702 3.16666 3.77898 3.16666 3.99999V6.155L0.910828 8.41083C0.754602 8.5671 0.66684 8.77903 0.66684 9C0.66684 9.22097 0.754602 9.43289 0.910828 9.58916L3.16666 11.845V14C3.16666 14.221 3.25446 14.433 3.41074 14.5893C3.56702 14.7455 3.77898 14.8333 3.99999 14.8333H6.155L8.41083 17.0892C8.5671 17.2454 8.77903 17.3332 9 17.3332C9.22097 17.3332 9.43289 17.2454 9.58916 17.0892L11.845 14.8333H14C14.221 14.8333 14.433 14.7455 14.5893 14.5893C14.7455 14.433 14.8333 14.221 14.8333 14V11.845L17.0892 9.58916C17.2454 9.43289 17.3332 9.22097 17.3332 9C17.3332 8.77903 17.2454 8.5671 17.0892 8.41083Z" fill="url(#paint0_linear_954_137)"/>
<path d="M7.75 11.9167C7.52901 11.9166 7.31708 11.8288 7.16084 11.6725L5.49417 10.0058C5.41458 9.92895 5.35109 9.837 5.30742 9.73533C5.26374 9.63366 5.24075 9.52431 5.23979 9.41366C5.23883 9.30301 5.25992 9.19328 5.30182 9.09087C5.34372 8.98845 5.40559 8.89541 5.48384 8.81716C5.56208 8.73892 5.65513 8.67704 5.75754 8.63514C5.85995 8.59324 5.96969 8.57216 6.08034 8.57312C6.19099 8.57408 6.30034 8.59707 6.40201 8.64074C6.50368 8.68442 6.59563 8.7479 6.6725 8.82749L7.75 9.90499L11.3275 6.32749C11.4847 6.17569 11.6952 6.0917 11.9137 6.0936C12.1322 6.0955 12.3412 6.18314 12.4957 6.33764C12.6502 6.49215 12.7378 6.70116 12.7397 6.91966C12.7416 7.13816 12.6576 7.34866 12.5058 7.50583L8.33917 11.6725C8.18292 11.8288 7.971 11.9166 7.75 11.9167Z" fill="url(#paint1_linear_954_137)"/>
<defs>
<linearGradient id="paint0_linear_954_137" x1="14.8898" y1="14.8897" x2="3.11024" y2="3.11024" gradientUnits="userSpaceOnUse">
<stop stop-color="#0061FF"/>
<stop offset="0.131" stop-color="#066AFF"/>
<stop offset="0.35" stop-color="#1884FF"/>
<stop offset="0.629" stop-color="#34ADFF"/>
<stop offset="0.954" stop-color="#5AE6FF"/>
<stop offset="1" stop-color="#60EFFF"/>
</linearGradient>
<linearGradient id="paint1_linear_954_137" x1="7.5775" y1="6.74416" x2="10.4225" y2="9.58916" gradientUnits="userSpaceOnUse">
<stop stop-color="#EFFFF4"/>
<stop offset="1" stop-color="#D1FFEC"/>
</linearGradient>
</defs>
</svg>
