<?xml version="1.0" encoding="utf-8"?>
<!-- Generator: Adobe Illustrator 25.0.1, SVG Export Plug-In . SVG Version: 6.00 Build 0)  -->
<svg version="1.1" id="Layer_1" xmlns="http://www.w3.org/2000/svg" xmlns:xlink="http://www.w3.org/1999/xlink" x="0px" y="0px"
	 viewBox="0 0 66.55 64" style="enable-background:new 0 0 66.55 64;" xml:space="preserve">
<style type="text/css">
	.st0{clip-path:url(#SVGID_2_);}
	.st1{clip-path:url(#SVGID_4_);fill:#231F20;}
	.st2{clip-path:url(#SVGID_6_);}
	.st3{clip-path:url(#SVGID_8_);fill:#231F20;}
	.st4{clip-path:url(#SVGID_10_);}
	.st5{clip-path:url(#SVGID_12_);fill:#231F20;}
	.st6{clip-path:url(#SVGID_14_);}
	.st7{clip-path:url(#SVGID_16_);fill:#231F20;}
	.st8{stroke:#000000;stroke-width:1.1;stroke-miterlimit:10;}
	.st9{fill:url(#SVGID_17_);}
	.st10{fill:#FFFFFF;}
	.st11{fill-rule:evenodd;clip-rule:evenodd;}
	.st12{fill:none;stroke:#231F20;stroke-width:3;stroke-miterlimit:10;}
	.st13{fill:url(#SVGID_18_);}
	.st14{fill:url(#SVGID_19_);}
	.st15{opacity:0.66;fill:url(#SVGID_20_);}
	.st16{fill:none;stroke:#000000;stroke-width:7;stroke-miterlimit:10;}
	.st17{fill:none;stroke:#000000;stroke-width:3;stroke-linecap:round;stroke-miterlimit:10;}
	.st18{fill:#FF1A51;}
	.st19{fill:url(#SVGID_21_);}
	.st20{fill:url(#SVGID_22_);}
	.st21{fill:#853900;}
	.st22{fill:#6F53C2;}
	.st23{fill:url(#SVGID_23_);}
	.st24{fill:url(#SVGID_24_);}
	.st25{fill:#B66643;}
	.st26{fill:url(#SVGID_25_);}
	.st27{fill:url(#SVGID_26_);}
	.st28{fill:none;stroke:#FF1A51;stroke-width:2;stroke-miterlimit:10;}
	.st29{fill:none;stroke:#FF1A51;stroke-width:2;stroke-linecap:round;stroke-miterlimit:10;}
	.st30{stroke:#000000;stroke-width:2;stroke-miterlimit:10;}
	.st31{fill:none;stroke:#000000;stroke-width:2;stroke-miterlimit:10;}
	.st32{fill-rule:evenodd;clip-rule:evenodd;fill:none;stroke:#000000;stroke-width:2;stroke-miterlimit:10;}
	.st33{fill:url(#SVGID_27_);}
	.st34{fill:url(#SVGID_28_);}
	.st35{fill:url(#SVGID_29_);}
	.st36{fill:url(#SVGID_30_);}
	.st37{fill:url(#SVGID_31_);}
	.st38{opacity:0.84;}
	.st39{fill:#FEFEFE;}
	.st40{fill:#FCFCFC;}
	.st41{fill:#FDFDFD;}
	.st42{fill:#E94335;}
	.st43{fill:#34A753;}
	.st44{fill:#4284F3;}
	.st45{fill:#FABB05;}
	.st46{fill:none;stroke:#000000;stroke-width:3;stroke-miterlimit:10;}
	.st47{fill:url(#SVGID_32_);}
	.st48{fill:url(#SVGID_33_);}
	.st49{fill:url(#SVGID_34_);}
	.st50{fill:url(#SVGID_35_);}
</style>
<path d="M39.21,56.34C39.21,56.34,39.21,56.34,39.21,56.34h-26.7c-3.4,0-6.69-1.57-9.03-4.29C1.23,49.43,0,45.99,0,42.36V21.64
	c0-3.63,1.23-7.07,3.48-9.68c2.34-2.73,5.64-4.3,9.03-4.3h26.7c0,0,0,0,0.01,0c3.31,0,6.54,1.5,8.87,4.11
	c1.03,1.15,1.86,2.48,2.46,3.92l6.15-3.53c2.08-1.33,4.82-1.3,6.87,0.08l0.1,0.07c0.91,0.66,1.66,1.57,2.16,2.63
	c0.47,0.99,0.72,2.11,0.72,3.23v27.63c0,1.11-0.25,2.23-0.72,3.23c-0.5,1.06-1.25,1.96-2.16,2.63c-1.11,0.8-2.39,1.17-3.71,1.21
	c-1.14-0.02-2.21-0.33-3.15-0.89l-6.28-3.66c-0.6,1.43-1.43,2.75-2.45,3.89C45.75,54.84,42.52,56.34,39.21,56.34z M12.51,14.89
	c-1.31,0-2.57,0.63-3.55,1.78c-1.1,1.28-1.73,3.1-1.73,4.97v20.72c0,1.88,0.63,3.69,1.73,4.97c0.98,1.14,2.25,1.77,3.55,1.77h26.7
	c0,0,0,0,0,0c1.27,0,2.51-0.6,3.48-1.69c1.09-1.22,1.75-2.97,1.81-4.79l0.19-6.06l14.64,8.52V18.98l-14.64,8.4l-0.19-6.01
	c-0.06-1.82-0.72-3.57-1.81-4.79c-0.97-1.09-2.21-1.69-3.48-1.69h0H12.51z M60.47,45.76l0.01,0.01
	C60.48,45.77,60.47,45.77,60.47,45.76z"/>
</svg>
