<?xml version="1.0" encoding="utf-8"?>
<!-- Generator: Adobe Illustrator 25.0.1, SVG Export Plug-In . SVG Version: 6.00 Build 0)  -->
<svg version="1.1" id="Layer_1" xmlns="http://www.w3.org/2000/svg" xmlns:xlink="http://www.w3.org/1999/xlink" x="0px" y="0px"
	 viewBox="0 0 64 64" style="enable-background:new 0 0 64 64;" xml:space="preserve">
<style type="text/css">
	.st0{clip-path:url(#SVGID_2_);}
	.st1{clip-path:url(#SVGID_4_);fill:#231F20;}
	.st2{clip-path:url(#SVGID_6_);}
	.st3{clip-path:url(#SVGID_8_);fill:#231F20;}
	.st4{clip-path:url(#SVGID_10_);}
	.st5{clip-path:url(#SVGID_12_);fill:#231F20;}
	.st6{clip-path:url(#SVGID_14_);}
	.st7{clip-path:url(#SVGID_16_);fill:#231F20;}
	.st8{stroke:#000000;stroke-width:1.1;stroke-miterlimit:10;}
	.st9{fill:url(#SVGID_17_);}
	.st10{fill:#FFFFFF;}
	.st11{fill-rule:evenodd;clip-rule:evenodd;}
	.st12{fill:none;stroke:#231F20;stroke-width:3;stroke-miterlimit:10;}
	.st13{fill:url(#SVGID_18_);}
	.st14{fill:url(#SVGID_19_);}
	.st15{opacity:0.66;fill:url(#SVGID_20_);}
	.st16{fill:none;stroke:#000000;stroke-width:7;stroke-miterlimit:10;}
	.st17{fill:none;stroke:#000000;stroke-width:3;stroke-linecap:round;stroke-miterlimit:10;}
	.st18{fill:#FF1A51;}
	.st19{fill:url(#SVGID_21_);}
	.st20{fill:url(#SVGID_22_);}
	.st21{fill:#853900;}
	.st22{fill:#6F53C2;}
	.st23{fill:url(#SVGID_23_);}
	.st24{fill:url(#SVGID_24_);}
	.st25{fill:#B66643;}
	.st26{fill:url(#SVGID_25_);}
	.st27{fill:url(#SVGID_26_);}
	.st28{fill:none;stroke:#FF1A51;stroke-width:2;stroke-miterlimit:10;}
	.st29{fill:none;stroke:#FF1A51;stroke-width:2;stroke-linecap:round;stroke-miterlimit:10;}
	.st30{stroke:#000000;stroke-width:2;stroke-miterlimit:10;}
	.st31{fill:none;stroke:#000000;stroke-width:2;stroke-miterlimit:10;}
	.st32{fill-rule:evenodd;clip-rule:evenodd;fill:none;stroke:#000000;stroke-width:2;stroke-miterlimit:10;}
	.st33{fill:url(#SVGID_27_);}
	.st34{fill:url(#SVGID_28_);}
	.st35{fill:url(#SVGID_29_);}
	.st36{fill:url(#SVGID_30_);}
	.st37{fill:url(#SVGID_31_);}
	.st38{opacity:0.84;}
	.st39{fill:#E94335;}
	.st40{fill:#34A753;}
	.st41{fill:#4284F3;}
	.st42{fill:#FABB05;}
	.st43{fill:none;stroke:#000000;stroke-width:3;stroke-miterlimit:10;}
	.st44{fill:url(#SVGID_32_);}
	.st45{fill:url(#SVGID_33_);}
	.st46{fill:url(#SVGID_34_);}
	.st47{fill:url(#SVGID_35_);}
	.st48{fill:none;stroke:#FFFFFF;stroke-width:4;stroke-linecap:round;stroke-linejoin:round;stroke-miterlimit:10;}
	.st49{fill:none;}
</style>
<g>
	<linearGradient id="SVGID_2_" gradientUnits="userSpaceOnUse" x1="2.0845" y1="0.9256" x2="54.0104" y2="54.863">
		<stop  offset="0.2899" style="stop-color:#FCD7B9"/>
		<stop  offset="0.7737" style="stop-color:#FFBD17"/>
		<stop  offset="0.9264" style="stop-color:#FDCD64"/>
		<stop  offset="0.9441" style="stop-color:#FDD380"/>
		<stop  offset="1" style="stop-color:#FBE4D4"/>
	</linearGradient>
	<circle style="fill:url(#SVGID_2_);" cx="32" cy="32" r="31.11"/>
	<g class="st38">
		<path class="st10" d="M43.88,43.48c-1.16-0.12-2.24-0.24-3.33-0.34c-4.1-0.39-8.21-0.47-12.32-0.32c-2.61,0.1-5.21,0.32-7.81,0.64
			c-0.98,0.12-1.81-0.36-2.27-1.29c-2-4.02-3.58-8.22-4.64-12.63c-0.43-1.79-0.77-3.61-1.05-5.44c-0.04-0.26-0.03-0.51,0.21-0.67
			c0.24-0.16,0.46-0.05,0.65,0.11c0.71,0.6,1.2,1.4,1.71,2.18c1.26,1.95,2.38,3.99,3.67,5.92c0.61,0.92,1.27,1.79,2.02,2.59
			c1.69,1.79,3.3,1.05,4.39-0.31c0.8-1,1.29-2.19,1.78-3.37c0.74-1.82,1.39-3.68,2.29-5.42c0.39-0.76,0.81-1.48,1.31-2.16
			c0.18-0.25,0.38-0.49,0.6-0.7c0.57-0.57,1.26-0.58,1.83,0c0.79,0.8,1.35,1.79,1.87,2.8c0.93,1.78,1.59,3.7,2.35,5.56
			c0.44,1.08,0.9,2.15,1.58,3.09c0.41,0.56,0.88,1.04,1.5,1.33c0.85,0.4,1.66,0.35,2.42-0.24c0.96-0.74,1.68-1.71,2.37-2.71
			c1.33-1.91,2.46-3.97,3.7-5.94c0.42-0.67,0.85-1.33,1.35-1.94c0.19-0.24,0.4-0.47,0.64-0.66c0.19-0.14,0.39-0.25,0.62-0.1
			c0.24,0.15,0.26,0.4,0.21,0.66c-0.16,0.94-0.3,1.88-0.48,2.81c-1.03,5.39-2.82,10.48-5.24,15.33
			C45.39,43.09,44.69,43.47,43.88,43.48z"/>
		<path class="st10" d="M32.02,44.17c4-0.01,7.99,0.25,11.96,0.77c0.55,0.07,0.76,0.39,0.68,0.99c-0.02,0.13-0.02,0.26-0.04,0.39
			c-0.09,0.51-0.39,0.75-0.88,0.68c-2.6-0.36-5.22-0.57-7.84-0.69c-4.06-0.19-8.12-0.07-12.17,0.29c-1.16,0.1-2.31,0.26-3.47,0.39
			c-0.5,0.06-0.8-0.18-0.88-0.72c-0.02-0.14-0.04-0.29-0.05-0.43c-0.06-0.51,0.17-0.85,0.66-0.91c1.37-0.16,2.73-0.32,4.1-0.44
			C26.72,44.27,29.37,44.17,32.02,44.17z"/>
		<path class="st10" d="M41.3,34.31c-0.51-0.04-0.92-0.26-1.26-0.6c-0.6-0.59-0.99-1.35-1.36-2.11c-0.05-0.1-0.05-0.19,0-0.3
			c0.66-1.6,1.26-3.22,2.19-4.67c0.14-0.22,0.3-0.43,0.47-0.61c0.34-0.36,0.69-0.33,0.97,0.08c0.24,0.35,0.4,0.76,0.56,1.16
			c0.52,1.34,0.81,2.74,1.14,4.14c0.03,0.12,0.03,0.23-0.05,0.34c-0.58,0.81-1.16,1.62-1.93,2.23
			C41.81,34.15,41.57,34.31,41.3,34.31z"/>
		<path class="st10" d="M22.71,34.31c-0.32-0.01-0.58-0.2-0.82-0.4c-0.73-0.6-1.29-1.38-1.85-2.16c-0.07-0.1-0.1-0.21-0.07-0.33
			c0.38-1.63,0.72-3.27,1.41-4.79c0.09-0.2,0.2-0.4,0.33-0.57c0.27-0.37,0.6-0.39,0.92-0.06c0.43,0.43,0.72,0.97,1.01,1.51
			c0.64,1.19,1.13,2.47,1.65,3.73c0.05,0.12,0.08,0.23,0.01,0.37c-0.36,0.76-0.75,1.49-1.33,2.08
			C23.62,34.04,23.21,34.27,22.71,34.31z"/>
		<path class="st10" d="M50.27,21.23c0-0.94,0.61-1.67,1.4-1.67c0.72,0,1.3,0.68,1.3,1.53c0,0.92-0.62,1.69-1.39,1.7
			C50.83,22.79,50.26,22.12,50.27,21.23z"/>
		<path class="st10" d="M30.65,19.52c0-0.88,0.59-1.6,1.32-1.61c0.76-0.01,1.37,0.7,1.37,1.6c0.01,0.9-0.6,1.63-1.34,1.64
			C31.26,21.15,30.66,20.42,30.65,19.52z"/>
		<path class="st10" d="M11.04,21.09c0-0.79,0.5-1.44,1.15-1.52c0.68-0.09,1.35,0.47,1.51,1.24c0.24,1.18-0.56,2.19-1.54,1.95
			C11.51,22.6,11.03,21.89,11.04,21.09z"/>
		<path class="st10" d="M21.09,24.13c0.01-0.61,0.4-1.09,0.9-1.09c0.53,0,0.95,0.53,0.94,1.19c-0.01,0.61-0.41,1.1-0.9,1.09
			C21.52,25.32,21.09,24.77,21.09,24.13z"/>
		<path class="st10" d="M41.06,24.21c0-0.67,0.42-1.18,0.96-1.17c0.5,0.01,0.89,0.49,0.89,1.1c0,0.64-0.44,1.19-0.96,1.18
			C41.45,25.31,41.06,24.82,41.06,24.21z"/>
	</g>
</g>
</svg>
