<?xml version="1.0" encoding="utf-8"?>
<!-- Generator: Adobe Illustrator 25.0.1, SVG Export Plug-In . SVG Version: 6.00 Build 0)  -->
<svg version="1.1" id="Layer_1" xmlns="http://www.w3.org/2000/svg" xmlns:xlink="http://www.w3.org/1999/xlink" x="0px" y="0px"
	 viewBox="0 0 64 64" style="enable-background:new 0 0 64 64;" xml:space="preserve">
<style type="text/css">
	.st0{clip-path:url(#SVGID_2_);}
	.st1{clip-path:url(#SVGID_4_);fill:#231F20;}
	.st2{clip-path:url(#SVGID_6_);}
	.st3{clip-path:url(#SVGID_8_);fill:#231F20;}
	.st4{clip-path:url(#SVGID_10_);}
	.st5{clip-path:url(#SVGID_12_);fill:#231F20;}
	.st6{clip-path:url(#SVGID_14_);}
	.st7{clip-path:url(#SVGID_16_);fill:#231F20;}
	.st8{stroke:#000000;stroke-width:1.1;stroke-miterlimit:10;}
	.st9{fill:url(#SVGID_17_);}
	.st10{fill:#FFFFFF;}
	.st11{fill-rule:evenodd;clip-rule:evenodd;}
	.st12{fill:none;stroke:#231F20;stroke-width:3;stroke-miterlimit:10;}
	.st13{fill:url(#SVGID_18_);}
	.st14{fill:url(#SVGID_19_);}
	.st15{opacity:0.66;fill:url(#SVGID_20_);}
	.st16{fill:none;stroke:#000000;stroke-width:7;stroke-miterlimit:10;}
	.st17{fill:none;stroke:#000000;stroke-width:3;stroke-linecap:round;stroke-miterlimit:10;}
	.st18{fill:#FF1A51;}
	.st19{fill:url(#SVGID_21_);}
	.st20{fill:url(#SVGID_22_);}
	.st21{fill:#853900;}
	.st22{fill:#6F53C2;}
	.st23{fill:url(#SVGID_23_);}
	.st24{fill:url(#SVGID_24_);}
	.st25{fill:#B66643;}
	.st26{fill:url(#SVGID_25_);}
	.st27{fill:url(#SVGID_26_);}
	.st28{fill:none;stroke:#FF1A51;stroke-width:2;stroke-miterlimit:10;}
	.st29{fill:none;stroke:#FF1A51;stroke-width:2;stroke-linecap:round;stroke-miterlimit:10;}
	.st30{stroke:#000000;stroke-width:2;stroke-miterlimit:10;}
	.st31{fill:none;stroke:#000000;stroke-width:2;stroke-miterlimit:10;}
	.st32{fill-rule:evenodd;clip-rule:evenodd;fill:none;stroke:#000000;stroke-width:2;stroke-miterlimit:10;}
	.st33{fill:url(#SVGID_27_);}
	.st34{fill:url(#SVGID_28_);}
	.st35{fill:url(#SVGID_29_);}
	.st36{fill:url(#SVGID_30_);}
	.st37{fill:url(#SVGID_31_);}
	.st38{opacity:0.84;}
	.st39{fill:#FEFEFE;}
	.st40{fill:#FCFCFC;}
	.st41{fill:#FDFDFD;}
	.st42{fill:#E94335;}
	.st43{fill:#34A753;}
	.st44{fill:#4284F3;}
	.st45{fill:#FABB05;}
	.st46{fill:none;stroke:#000000;stroke-width:3;stroke-miterlimit:10;}
	.st47{fill:url(#SVGID_32_);}
	.st48{fill:url(#SVGID_33_);}
	.st49{fill:url(#SVGID_34_);}
	.st50{fill:url(#SVGID_35_);}
</style>
<path d="M61.42,51h-7c-2.64,0-3.45-2.16-8.2-6.91c-4.17-3.98-5.9-4.51-6.96-4.51c-1.44,0-1.82,0.43-1.82,2.4v6.33
	c0,1.68-0.58,2.69-5.04,2.69c-4.32-0.29-8.49-1.58-12.19-3.84c-3.69-2.21-6.86-5.28-9.12-8.97C5.63,31.43,1.89,23.51,0.02,15.02
	c0-1.06,0.43-2.01,2.4-2.01h7c1.82,0,2.45,0.82,3.17,2.64c3.41,10.03,9.21,18.71,11.56,18.71c0.86,0,1.3-0.38,1.3-2.64V21.4
	c-0.34-4.7-2.83-5.09-2.83-6.76c0.05-0.48,0.24-0.86,0.58-1.2c0.34-0.29,0.77-0.43,1.25-0.43h10.99c1.49,0,2.01,0.77,2.01,2.54
	v13.91c0,1.49,0.62,2.01,1.1,2.01c0.86,0,1.58-0.53,3.21-2.16c3.55-4.32,6.43-9.16,8.59-14.3c0.24-0.62,0.67-1.15,1.2-1.54
	c0.58-0.34,1.2-0.53,1.87-0.48h7c2.11,0,2.54,1.06,2.11,2.54c-2.59,5.71-5.71,11.13-9.4,16.17c-0.77,1.15-1.06,1.73,0,3.07
	c0.67,1.06,3.12,3.12,4.8,5.09c2.4,2.35,4.37,5.13,5.9,8.16C64.4,49.99,63.39,51,61.42,51z"/>
</svg>
