<svg width="24" height="24" viewBox="0 0 24 24" fill="none" xmlns="http://www.w3.org/2000/svg">
<path fill-rule="evenodd" clip-rule="evenodd" d="M21 18.0001C21 17.2501 21 15.7501 19.5 15.7501H18C15.9292 15.7501 14.25 14.0708 14.25 12.0001C14.25 9.92931 15.9292 8.25006 18 8.25006H19.5C21 8.25006 21 6.75006 21 6.00006C21 3.00006 15.924 3.00006 12 3.00006C5.24999 3.00006 2.24999 3.75006 2.24999 12.0001C2.24999 20.2501 5.24999 21.0001 12 21.0001C15.924 21.0001 21 21.0001 21 18.0001ZM21.6187 10.4491C21.5467 10.1663 21.3157 9.95181 21.0277 9.90081C20.55 9.83181 19.9575 9.75006 18.75 9.75006H17.9947C16.755 9.75006 15.75 10.7551 15.75 11.9948V12.0053C15.75 13.2451 16.755 14.2501 17.9947 14.2501H18.75C19.9575 14.2501 20.55 14.1683 21.0285 14.1031C21.318 14.0521 21.5505 13.8361 21.6232 13.5518C21.6832 13.2136 21.75 12.6968 21.75 12.0001C21.75 11.3033 21.6832 10.7866 21.6187 10.4491ZM18 11.2501C18.414 11.2501 18.75 11.5861 18.75 12.0001C18.75 12.4141 18.414 12.7501 18 12.7501C17.586 12.7501 17.25 12.4141 17.25 12.0001C17.25 11.5861 17.586 11.2501 18 11.2501Z" fill="url(#paint0_linear_954_162)"/>
<defs>
<linearGradient id="paint0_linear_954_162" x1="12" y1="21" x2="12" y2="3" gradientUnits="userSpaceOnUse">
<stop stop-color="#9644FE"/>
<stop offset="1" stop-color="#CBA2FF"/>
</linearGradient>
</defs>
</svg>
