<?xml version="1.0" encoding="utf-8"?>
<!-- Generator: Adobe Illustrator 23.0.0, SVG Export Plug-In . SVG Version: 6.00 Build 0)  -->
<svg version="1.1" id="Layer_1" xmlns="http://www.w3.org/2000/svg" xmlns:xlink="http://www.w3.org/1999/xlink" x="0px" y="0px"
	 viewBox="0 0 64 64" style="enable-background:new 0 0 64 64;" xml:space="preserve">
<style type="text/css">
	.st0{clip-path:url(#SVGID_2_);}
	.st1{clip-path:url(#SVGID_4_);fill:#231F20;}
	.st2{clip-path:url(#SVGID_6_);}
	.st3{clip-path:url(#SVGID_8_);fill:#231F20;}
	.st4{clip-path:url(#SVGID_10_);}
	.st5{clip-path:url(#SVGID_12_);fill:#231F20;}
	.st6{clip-path:url(#SVGID_14_);}
	.st7{clip-path:url(#SVGID_16_);fill:#231F20;}
	.st8{stroke:#000000;stroke-width:1.1;stroke-miterlimit:10;}
	.st9{fill:url(#SVGID_17_);}
	.st10{fill:#FFFFFF;}
	.st11{fill-rule:evenodd;clip-rule:evenodd;}
	.st12{fill:none;stroke:#231F20;stroke-width:3;stroke-miterlimit:10;}
	.st13{fill:url(#SVGID_18_);}
	.st14{fill:url(#SVGID_19_);}
	.st15{opacity:0.66;fill:url(#SVGID_20_);}
	.st16{fill:none;stroke:#000000;stroke-width:7;stroke-miterlimit:10;}
	.st17{fill:none;stroke:#000000;stroke-width:3;stroke-linecap:round;stroke-miterlimit:10;}
	.st18{fill:#FF1A51;}
	.st19{fill:url(#SVGID_21_);}
	.st20{fill:url(#SVGID_22_);}
	.st21{fill:#853900;}
	.st22{fill:#6F53C2;}
	.st23{fill:url(#SVGID_23_);}
	.st24{fill:url(#SVGID_24_);}
	.st25{fill:#B66643;}
	.st26{fill:url(#SVGID_25_);}
	.st27{fill:url(#SVGID_26_);}
	.st28{fill:none;stroke:#FF1A51;stroke-width:2;stroke-miterlimit:10;}
	.st29{fill:none;stroke:#FF1A51;stroke-width:2;stroke-linecap:round;stroke-miterlimit:10;}
	.st30{stroke:#000000;stroke-width:2;stroke-miterlimit:10;}
	.st31{fill:none;stroke:#000000;stroke-width:2;stroke-miterlimit:10;}
	.st32{fill-rule:evenodd;clip-rule:evenodd;fill:none;stroke:#000000;stroke-width:2;stroke-miterlimit:10;}
	.st33{fill:url(#SVGID_27_);}
	.st34{fill:url(#SVGID_28_);}
	.st35{fill:url(#SVGID_29_);}
	.st36{fill:url(#SVGID_30_);}
	.st37{fill:url(#SVGID_31_);}
	.st38{opacity:0.84;}
	.st39{fill:#FEFEFE;}
	.st40{fill:#FCFCFC;}
	.st41{fill:#FDFDFD;}
	.st42{fill:#E94335;}
	.st43{fill:#34A753;}
	.st44{fill:#4284F3;}
	.st45{fill:#FABB05;}
	.st46{fill:none;stroke:#000000;stroke-width:3;stroke-miterlimit:10;}
	.st47{fill:url(#SVGID_32_);}
	.st48{fill:url(#SVGID_33_);}
	.st49{fill:url(#SVGID_34_);}
	.st50{fill:url(#SVGID_35_);}
	.st51{fill:none;}
	.st52{fill:#231F20;}
</style>
<g>
	<path d="M63.5,32.1C63.5,14.7,49.4,0.6,32,0.6C14.6,0.6,0.5,14.7,0.5,32.1c0,13.2,8.1,24.4,19.5,29.1v-3.3c0-1.4,1.1-2.5,2.5-2.5
		h0.3c1.4,0,2.5,1.1,2.5,2.5v4.9c1.3,0.3,2.7,0.5,4.1,0.6c-0.1-0.2-0.1-0.4-0.1-0.6v-9.1c0-1.4,1.1-2.5,2.5-2.5h0.3
		c1.4,0,2.5,1.1,2.5,2.5v9.1c0,0.2,0,0.4-0.1,0.6c1.4-0.1,2.8-0.3,4.1-0.6v-4.9c0-1.4,1.1-2.5,2.5-2.5h0.3c1.4,0,2.5,1.1,2.5,2.5
		v3.3C55.4,56.5,63.5,45.2,63.5,32.1z M45.8,53.6c-0.4,0.7-1.1,1.2-1.9,1.2c-0.3,0-0.7-0.1-1-0.2L32,48.8l-10.9,5.7
		c-1.1,0.6-2.4,0.1-2.9-0.9c-0.6-1.1-0.1-2.4,0.9-2.9L32,43.9l12.9,6.8C45.9,51.2,46.3,52.5,45.8,53.6z M42.4,33.3l2.5,14.3L32,40.8
		l-12.9,6.8l2.5-14.3L11.2,23.1L25.6,21L32,8l6.4,13l14.4,2.1L42.4,33.3z"/>
</g>
</svg>
