<svg width="14" height="14" viewBox="0 0 14 14" fill="none" xmlns="http://www.w3.org/2000/svg">
<path d="M7.00009 0.142868C3.22866 0.142868 0.142944 3.19741 0.142944 7.00001C0.142944 10.7714 3.19749 13.8572 7.00009 13.8572C10.8027 13.8572 13.8572 10.8026 13.8572 7.00001C13.8261 3.22858 10.7403 0.142868 7.00009 0.142868ZM11.3637 2.66754C11.6442 2.94806 11.6131 3.44676 11.2702 3.69611L8.55853 5.8156C8.43385 5.9091 8.30918 5.9091 8.21567 5.8156C8.12216 5.72209 8.12216 5.59741 8.21567 5.47274L10.3663 2.76105C10.6157 2.41819 11.1144 2.41819 11.3637 2.66754ZM9.40009 1.32728C9.77411 1.48313 9.92996 1.95066 9.71178 2.32469L7.99749 5.31689C7.93515 5.44157 7.77931 5.50391 7.6858 5.44157C7.5923 5.37923 7.49879 5.25456 7.52996 5.12988L8.49619 1.79482C8.62087 1.38962 9.05723 1.17144 9.40009 1.32728ZM7.03126 0.828582C7.40528 0.828582 7.71697 1.20261 7.65463 1.6078L7.21827 5.03637C7.1871 5.19222 7.09359 5.25456 6.96892 5.25456C6.84424 5.25456 6.75074 5.12988 6.75074 5.03637L6.34554 1.6078C6.31437 1.20261 6.62606 0.828582 7.03126 0.828582ZM4.69359 1.26495C5.06762 1.1091 5.50398 1.32728 5.62866 1.73248L6.53255 5.06754C6.56372 5.19222 6.50139 5.31689 6.37671 5.37923C6.25204 5.44157 6.12736 5.37923 6.06502 5.25456L4.38191 2.23118C4.16372 1.88832 4.35074 1.45196 4.69359 1.26495ZM2.69879 2.57404C2.97931 2.32469 3.44684 2.35586 3.72736 2.66754L5.84684 5.4104C5.94035 5.53508 5.94035 5.65975 5.81567 5.75326C5.72217 5.84676 5.59749 5.84676 5.47281 5.75326L2.76113 3.60261C2.41827 3.35326 2.41827 2.85456 2.69879 2.57404ZM1.35853 4.53767C1.51437 4.19482 1.98191 4.03897 2.32476 4.25715L5.31697 6.00261C5.44165 6.06495 5.50398 6.22079 5.44165 6.3143C5.37931 6.43897 5.25463 6.50131 5.12996 6.47014L1.79489 5.50391C1.3897 5.37923 1.17152 4.9117 1.35853 4.53767ZM0.859827 6.93767C0.859827 6.56365 1.23385 6.25196 1.63905 6.3143L5.06762 6.75066C5.22346 6.78183 5.2858 6.87534 5.2858 7.00001C5.2858 7.12469 5.16113 7.21819 5.06762 7.21819L1.63905 7.62339C1.20268 7.68572 0.828659 7.34287 0.859827 6.93767ZM1.29619 9.27534C1.14035 8.90131 1.35853 8.46495 1.76372 8.34027L5.09879 7.43637C5.22346 7.40521 5.34814 7.46754 5.41048 7.59222C5.47281 7.71689 5.41048 7.84157 5.2858 7.90391L2.26242 9.58702C1.91957 9.80521 1.45204 9.64936 1.29619 9.27534ZM2.60528 11.2701C2.35593 10.9896 2.3871 10.5221 2.69879 10.2416L5.44165 8.12209C5.56632 8.02858 5.691 8.02858 5.7845 8.15326C5.87801 8.24676 5.87801 8.37144 5.7845 8.49611L3.63385 11.2078C3.35333 11.5507 2.85463 11.5507 2.60528 11.2701ZM4.56892 12.6416C4.22606 12.4857 4.07022 12.0182 4.2884 11.6753L6.03385 8.68313C6.09619 8.55845 6.25203 8.49611 6.34554 8.55845C6.43905 8.62079 6.53255 8.74547 6.50139 8.87014L5.53515 12.174C5.37931 12.5792 4.91178 12.7974 4.56892 12.6416ZM7.00009 13.1403C6.59489 13.1403 6.2832 12.7662 6.34554 12.361L6.7819 8.93248C6.81307 8.77663 6.90658 8.7143 7.03126 8.7143C7.15593 8.7143 7.24944 8.83897 7.28061 8.93248L7.6858 12.3922C7.6858 12.7662 7.37411 13.1403 7.00009 13.1403ZM9.27541 12.6727C8.93255 12.8286 8.49619 12.5792 8.37152 12.2052L7.46762 8.87014C7.43645 8.7143 7.49879 8.62079 7.62346 8.55845C7.74814 8.49611 7.87281 8.55845 7.93515 8.68313L9.5871 11.7065C9.83645 12.0494 9.64944 12.5481 9.27541 12.6727ZM11.3014 11.3636C11.0209 11.6442 10.5222 11.613 10.2728 11.2701L8.1845 8.55845C8.091 8.43378 8.091 8.3091 8.1845 8.21559C8.27801 8.12209 8.40268 8.12209 8.52736 8.21559L11.239 10.3662C11.5507 10.6156 11.5507 11.0831 11.3014 11.3636ZM12.6416 9.40001C12.4858 9.77404 12.0183 9.92988 11.6442 9.7117L8.65203 7.99741C8.52736 7.93508 8.46502 7.77923 8.52736 7.68573C8.5897 7.56105 8.71437 7.49871 8.83905 7.52988L12.1741 8.49611C12.5793 8.58962 12.7975 9.02598 12.6416 9.40001ZM13.1403 7.00001C13.1403 7.40521 12.7663 7.71689 12.3611 7.65456L8.93255 7.21819C8.77671 7.18702 8.71437 7.09352 8.71437 6.96884C8.71437 6.84417 8.83905 6.75066 8.93255 6.71949L12.3923 6.3143C12.7975 6.28313 13.1403 6.59482 13.1403 7.00001ZM12.704 4.69352C12.8598 5.03637 12.6105 5.47274 12.2365 5.59741L8.90139 6.50131C8.74554 6.53248 8.65204 6.47014 8.5897 6.34547C8.52736 6.22079 8.5897 6.09611 8.71437 6.03378L11.7377 4.38183C12.0806 4.13248 12.5481 4.31949 12.704 4.69352Z" fill="url(#paint0_linear_14_146)"/>
<defs>
<linearGradient id="paint0_linear_14_146" x1="7.00009" y1="0.142868" x2="7.00009" y2="13.8572" gradientUnits="userSpaceOnUse">
<stop stop-color="#FDFE9D"/>
<stop offset="1" stop-color="#F3D573"/>
</linearGradient>
</defs>
</svg>
