<svg width="24" height="24" viewBox="0 0 24 24" fill="none" xmlns="http://www.w3.org/2000/svg">
<g clip-path="url(#clip0_104_79)">
<path d="M11.8924 13.3106C13.5819 13.3106 15.2716 12.6616 16.5578 11.3637C19.1303 8.76778 19.1303 4.54396 16.5578 1.94804C13.9853 -0.647881 9.79949 -0.647881 7.22701 1.94804C4.65447 4.54391 4.65447 8.76773 7.22701 11.3637C8.5132 12.6616 10.2028 13.3106 11.8924 13.3106ZM8.21241 2.94244C9.19535 1.95057 10.5023 1.40431 11.8924 1.40431C13.2825 1.40431 14.5894 1.95057 15.5723 2.94244C17.6014 4.99004 17.6014 8.32165 15.5723 10.3692C13.5432 12.4168 10.2416 12.4168 8.21241 10.3692C6.1833 8.32165 6.1833 4.99004 8.21241 2.94244Z" fill="#808080"/>
<path d="M23.0998 14.5224C22.189 13.6033 20.7076 13.6022 19.7954 14.5192L17.2919 16.9854C16.9008 16.3423 16.198 15.912 15.3973 15.9109L11.8371 15.8866L11.6368 15.696C10.6783 14.7843 9.42727 14.2254 8.11399 14.1223C6.87458 14.0248 5.62805 14.3373 4.57836 15.004H0.696823C0.311991 15.004 0 15.3188 0 15.7071V22.1008C0 22.4891 0.311991 22.804 0.696823 22.804H4.71619L10.4924 23.985C10.538 23.9944 10.5844 23.999 10.6308 23.999H16.7277C16.9125 23.999 17.0897 23.925 17.2204 23.7931L23.0998 17.8602C24.0118 16.9399 24.0118 15.4427 23.0998 14.5224ZM1.39365 16.4103H4.08924V21.3976H1.39365V16.4103ZM22.1144 16.8658L16.439 22.5927H10.7007L5.48288 21.5258V16.0959C7.14114 15.1423 9.27434 15.3815 10.6809 16.7194L11.0806 17.0996C11.2087 17.2214 11.3778 17.2898 11.5538 17.291L15.3894 17.3172H15.3942C15.8524 17.3172 16.2252 17.6934 16.2252 18.1558V18.9944H10.6308C10.2459 18.9944 9.93396 19.3092 9.93396 19.6975C9.93396 20.0859 10.2459 20.4007 10.6308 20.4007H16.9219C17.3068 20.4007 17.6188 20.0859 17.6188 19.6975V18.6288L20.7716 15.5228C20.7736 15.5209 20.7756 15.5189 20.7776 15.5169C21.1462 15.145 21.7458 15.145 22.1144 15.5169C22.483 15.8888 22.483 16.4939 22.1144 16.8658Z" fill="#808080"/>
<path d="M12.56 9.20588C12.7065 9.20588 12.8489 9.19519 12.9873 9.1738C13.1256 9.15241 13.2572 9.12032 13.382 9.07754L13.5 9.87968C13.3427 9.91711 13.1785 9.94652 13.0076 9.96791C12.8367 9.9893 12.6631 10 12.4868 10C12.1531 10 11.8466 9.95187 11.5671 9.85561C11.2904 9.75936 11.0504 9.61631 10.8469 9.42647C10.6434 9.23396 10.4847 8.99599 10.3708 8.71257C10.2596 8.42647 10.204 8.09358 10.204 7.7139V6.35428C10.204 5.9639 10.2596 5.62299 10.3708 5.33155C10.4847 5.03743 10.6448 4.79144 10.851 4.59358C11.0599 4.39572 11.3054 4.24733 11.5875 4.1484C11.8723 4.04947 12.187 4 12.5315 4C12.6997 4 12.8625 4.01203 13.0198 4.0361C13.1799 4.05749 13.3399 4.0869 13.5 4.12433L13.382 4.93048C13.2626 4.89037 13.1324 4.85829 12.9914 4.83422C12.853 4.81016 12.7133 4.79813 12.5722 4.79813C12.3633 4.79813 12.1748 4.82888 12.0066 4.89037C11.8411 4.95187 11.7001 5.04545 11.5834 5.17112C11.4668 5.29412 11.3772 5.45321 11.3149 5.6484C11.2552 5.84358 11.2253 6.0762 11.2253 6.34626V7.7139C11.2253 7.98128 11.2565 8.20989 11.3189 8.39973C11.384 8.5869 11.4749 8.74064 11.5916 8.86096C11.7082 8.97861 11.8479 9.06551 12.0107 9.12166C12.1762 9.17781 12.3593 9.20588 12.56 9.20588ZM12.6821 6.16979V6.71925H9.5V6.16979H12.6821ZM12.6821 7.24465V7.79412H9.5V7.24465H12.6821Z" fill="#808080"/>
</g>
<defs>
<clipPath id="clip0_104_79">
<rect width="23.7838" height="24" fill="white"/>
</clipPath>
</defs>
</svg>
