<svg width="224" height="62" viewBox="0 0 224 62" fill="none" xmlns="http://www.w3.org/2000/svg">
<path d="M79.2595 52.3071C79.1944 52.1531 79.0188 52.0742 78.8471 52.1216L74.4446 53.3075C73.9019 53.4575 73.6118 54.0515 73.8131 54.5369C74.0084 55.0066 74.6103 55.2158 75.0898 54.9553L79.0938 52.7353C79.2536 52.6484 79.3246 52.4629 79.2595 52.3071Z" fill="white"/>
<path d="M74.2628 52.3388L78.7916 51.812C78.9692 51.7922 79.1034 51.6541 79.1053 51.4883C79.1073 51.3186 78.9731 51.1746 78.7935 51.1529L74.2529 50.5707C73.7122 50.5056 73.2307 50.924 73.2228 51.4311C73.2129 51.956 73.7023 52.4 74.2628 52.3388Z" fill="white"/>
<path d="M79.7509 53.0636C79.6344 52.9413 79.4371 52.9334 79.2931 53.0439L75.6562 55.8243C75.226 56.1578 75.1786 56.7952 75.5299 57.1622C75.893 57.5411 76.5541 57.5135 76.9073 57.0754L79.7548 53.5155C79.8693 53.3774 79.8673 53.184 79.7509 53.0636Z" fill="white"/>
<path d="M74.486 49.5293L78.8648 50.7981C79.0365 50.8494 79.2141 50.7725 79.2812 50.6205C79.3503 50.4646 79.2812 50.2791 79.1233 50.1903L75.1628 47.8953C74.6892 47.625 74.0834 47.8243 73.8782 48.29C73.667 48.7695 73.9472 49.3674 74.486 49.5293Z" fill="white"/>
<path d="M81.6493 54.0399C81.6295 53.8583 81.4855 53.7242 81.3158 53.7242C81.15 53.7261 81.0099 53.8583 80.9882 54.0359L80.4199 58.5588C80.3528 59.1173 80.7928 59.6106 81.3177 59.6067C81.8249 59.6027 82.2492 59.1252 82.188 58.5845L81.6493 54.0399Z" fill="white"/>
<path d="M83.3559 53.0847C83.2138 52.9702 83.0165 52.9742 82.8981 53.0945C82.7816 53.2129 82.7757 53.4063 82.8843 53.5464L85.6627 57.1616C86.0081 57.6056 86.6691 57.647 87.0381 57.2741C87.3973 56.913 87.3618 56.2775 86.9375 55.9342L83.3559 53.0847Z" fill="white"/>
<path d="M82.6104 53.7242C82.5255 53.5683 82.3459 53.4953 82.192 53.5564C82.0341 53.6176 81.9513 53.7972 81.9986 53.9728L83.1787 58.3971C83.3227 58.922 83.893 59.2101 84.3666 59.0246C84.856 58.8351 85.083 58.2135 84.8146 57.7182L82.6104 53.7242Z" fill="white"/>
<path d="M82.239 49.4342C82.3929 49.4974 82.5725 49.4283 82.6613 49.2744L84.9385 45.3238C85.2167 44.8344 85.0016 44.2088 84.5162 44.0095C84.0465 43.8161 83.4703 44.0924 83.3164 44.6153L82.0535 49.0159C82.0022 49.1895 82.0831 49.3691 82.239 49.4342Z" fill="white"/>
<path d="M82.9537 49.9337C83.0721 50.0501 83.2655 50.056 83.4056 49.9475L87.0208 47.169C87.4648 46.8237 87.5062 46.1626 87.1332 45.7936C86.7721 45.4345 86.1367 45.47 85.7933 45.8943L82.9419 49.4759C82.8294 49.618 82.8333 49.8153 82.9537 49.9337Z" fill="white"/>
<path d="M79.3165 49.8979C79.4546 50.0103 79.648 50.0084 79.7684 49.8939C79.8907 49.7775 79.8986 49.5801 79.7881 49.4361L77.0077 45.7992C76.6742 45.369 76.0368 45.3217 75.6697 45.6729C75.2908 46.036 75.3185 46.6971 75.7566 47.0503L79.3165 49.8979Z" fill="white"/>
<path d="M81.0198 48.9327C81.0396 49.1103 81.1777 49.2445 81.3435 49.2464C81.5132 49.2484 81.6572 49.1142 81.6789 48.9346L82.2611 44.394C82.3262 43.8533 81.9078 43.3718 81.4007 43.3639C80.8758 43.354 80.4318 43.8454 80.493 44.4039L81.0198 48.9327Z" fill="white"/>
<path d="M80.096 49.2344C80.1828 49.3943 80.3663 49.4653 80.5242 49.4002C80.6781 49.3351 80.7571 49.1594 80.7097 48.9877L79.5237 44.5852C79.3737 44.0426 78.7798 43.7525 78.2943 43.9538C77.8247 44.1491 77.6155 44.751 77.876 45.2305L80.096 49.2344Z" fill="white"/>
<path d="M80.4771 53.5506C80.3213 53.4815 80.1358 53.5506 80.047 53.7085L77.752 57.669C77.4816 58.1426 77.6809 58.7484 78.1466 58.9536C78.6262 59.1648 79.226 58.8865 79.3879 58.3458L80.6567 53.967C80.7061 53.7953 80.6311 53.6177 80.4771 53.5506Z" fill="white"/>
<path d="M88.2163 53.458L83.8157 52.195C83.642 52.1437 83.4605 52.2226 83.3954 52.3805C83.3322 52.5344 83.4013 52.714 83.5552 52.8028L87.5058 55.0801C87.9952 55.3583 88.6208 55.1432 88.8201 54.6578C89.0155 54.1881 88.7392 53.6119 88.2163 53.458Z" fill="white"/>
<path d="M21.4976 41.3908H14.4468H14.4429V61.5801H14.4468H21.4976H202.508H209.559V41.3908H202.508H21.4976ZM45.4599 59.8199H41.5369L38.4229 48.0035L35.1669 59.8199L31.2676 59.8436L26.798 43.228H30.3638L33.2883 56.112L36.6627 43.228H40.3706L43.5556 56.0409L46.5038 43.228H50.0933L45.4599 59.8199ZM81.3451 60.5165C76.3585 60.5165 72.3151 56.4731 72.3151 51.4865C72.3151 46.4998 76.3585 42.4564 81.3451 42.4564C86.3317 42.4564 90.3751 46.4998 90.3751 51.4865C90.3751 56.4731 86.3317 60.5165 81.3451 60.5165ZM122.27 59.8199L118.608 53.3532H117.039V59.8199H113.71V43.228H119.938C121.222 43.228 122.316 43.453 123.219 43.9049C124.123 44.3568 124.802 44.9665 125.252 45.7361C125.702 46.5038 125.931 47.3641 125.931 48.3153C125.931 49.4085 125.613 50.3952 124.98 51.2753C124.344 52.1554 123.401 52.7612 122.15 53.0947L126.12 59.8219H122.27V59.8199ZM159.142 59.8199H150.347V43.228H153.676V57.1815H159.142V59.8199ZM196.119 55.9087C195.396 57.1539 194.376 58.1149 193.052 58.7957C191.73 59.4785 190.195 59.8199 188.452 59.8199H182.653V43.228H188.452C190.195 43.228 191.73 43.5694 193.052 44.2502C194.374 44.933 195.396 45.9019 196.119 47.1629C196.841 48.4238 197.2 49.8841 197.2 51.5476C197.2 53.2112 196.841 54.6635 196.119 55.9087Z" fill="white"/>
<path d="M121.844 46.6143C121.4 46.194 120.727 45.9829 119.823 45.9829H117.041V50.857H119.823C120.727 50.857 121.4 50.64 121.844 50.2019C122.286 49.7658 122.509 49.1619 122.509 48.3825C122.507 47.6227 122.286 47.0327 121.844 46.6143Z" fill="white"/>
<path d="M188.334 46.0317H185.982V56.9916H188.334C190.079 56.9916 191.424 56.5161 192.376 55.5649C193.327 54.6138 193.802 53.2758 193.802 51.5472C193.802 49.8205 193.327 48.4688 192.376 47.4959C191.424 46.5171 190.079 46.0317 188.334 46.0317Z" fill="white"/>
<path d="M83.5829 50.2212C83.427 50.3061 83.3539 50.4857 83.4151 50.6396C83.4763 50.7975 83.6559 50.8803 83.8315 50.833L88.2557 49.6529C88.7806 49.5089 89.0688 48.9386 88.8833 48.465C88.6938 47.9756 88.0722 47.7486 87.5769 48.017L83.5829 50.2212Z" fill="white"/>
<path d="M88.4453 50.642L83.8987 51.1827C83.7172 51.2024 83.583 51.3465 83.583 51.5162C83.585 51.682 83.7172 51.8221 83.8948 51.8438L88.4177 52.4121C88.9762 52.4792 89.4695 52.0391 89.4655 51.5142C89.4636 51.0051 88.986 50.5828 88.4453 50.642Z" fill="white"/>
<path d="M214.303 41.3908H211.375V61.5801H214.303V41.3908Z" fill="white"/>
<path d="M218.297 41.3908H216.318V61.5801H218.297V41.3908Z" fill="white"/>
<path d="M221.326 41.3908H220.574V61.5801H221.326V41.3908Z" fill="white"/>
<path d="M224 41.3908H223.438V61.5801H224V41.3908Z" fill="white"/>
<path d="M12.6316 41.3908H9.70312V61.5801H12.6316V41.3908Z" fill="white"/>
<path d="M7.68825 41.3908H5.70898V61.5801H7.68825V41.3908Z" fill="white"/>
<path d="M3.43153 41.3908H2.67969V61.5801H3.43153V41.3908Z" fill="white"/>
<path d="M0.566308 41.3909H0.00390625V61.5801H0.566308V41.3909Z" fill="white"/>
<path d="M43.5594 56.0408L40.3744 43.2259H36.6645L33.2901 56.1098L30.3656 43.2259H26.7998L31.2694 59.8434L35.1668 59.8197L38.4228 48.0033L41.5387 59.8197H45.4597L50.0951 43.2259H46.5076L43.5594 56.0408Z" fill="black"/>
<path d="M124.982 51.2732C125.615 50.3931 125.933 49.4064 125.933 48.3132C125.933 47.362 125.706 46.5016 125.254 45.734C124.804 44.9664 124.125 44.3566 123.221 43.9027C122.318 43.4528 121.224 43.2259 119.94 43.2259H113.712V59.8177H117.041V53.3511H118.61L122.272 59.8177H126.124L122.154 53.0906C123.403 52.7591 124.346 52.1533 124.982 51.2732ZM119.823 50.8568H117.041V45.9826H119.823C120.727 45.9826 121.4 46.1938 121.844 46.6141C122.286 47.0344 122.509 47.6245 122.509 48.3842C122.509 49.1617 122.288 49.7675 121.844 50.2036C121.398 50.6397 120.727 50.8568 119.823 50.8568Z" fill="black"/>
<path d="M153.674 43.2259H150.347V59.8197H159.142V57.1814H153.674V43.2259Z" fill="black"/>
<path d="M193.054 44.2481C191.732 43.5673 190.196 43.2259 188.454 43.2259H182.654V59.8177H188.454C190.196 59.8177 191.732 59.4763 193.054 58.7936C194.376 58.1128 195.398 57.1518 196.12 55.9066C196.843 54.6614 197.202 53.207 197.202 51.5435C197.202 49.88 196.841 48.4197 196.12 47.1587C195.4 45.8978 194.376 44.9289 193.054 44.2481ZM192.375 55.5632C191.424 56.5144 190.078 56.9899 188.334 56.9899H185.981V46.03H188.334C190.078 46.03 191.424 46.5154 192.375 47.4922C193.326 48.4671 193.802 49.8168 193.802 51.5435C193.802 53.2741 193.326 54.6121 192.375 55.5632Z" fill="black"/>
<path d="M24.9056 32.2996C27.313 30.9676 29.2548 29.1522 30.7328 26.8552C32.2109 24.5602 33.0772 22.0304 33.3337 19.2696V15.8972H15.2697V19.463H28.6608C28.3076 22.8039 27.0703 25.4541 24.9529 27.4117C22.8335 29.3712 20.136 30.35 16.8602 30.35C14.5159 30.35 12.4044 29.8132 10.5278 28.7377C8.64719 27.6623 7.16915 26.129 6.09565 24.1379C5.02018 22.1468 4.48146 19.836 4.48146 17.2016C4.48146 14.5691 5.02018 12.2485 6.09565 10.2416C7.16915 8.23472 8.64719 6.69354 10.5278 5.6161C12.4064 4.5426 14.5159 4.00387 16.8602 4.00387C19.2046 4.00387 21.2608 4.5426 23.0269 5.6161C24.7931 6.69354 26.1409 8.21104 27.0723 10.1686H32.3233C31.0703 6.95797 29.0713 4.46761 26.3264 2.70147C23.5795 0.935328 20.4241 0.0512695 16.8583 0.0512695C13.7443 0.0512695 10.9007 0.78338 8.33145 2.24365C5.76216 3.7059 3.73159 5.74436 2.23974 8.36101C0.745923 10.9796 0 13.9258 0 17.2016C0 20.4773 0.745923 23.4156 2.23974 26.0165C3.73159 28.6174 5.76216 30.6499 8.33145 32.1102C10.9007 33.5724 13.7443 34.3026 16.8583 34.3026C19.8163 34.2967 22.4981 33.6316 24.9056 32.2996Z" fill="white"/>
<path d="M66.5744 34.0089H70.9592V21.34L81.8935 0.43248H77.0292L68.7431 17.4368L60.4571 0.43248H55.5928L66.5744 21.34V34.0089Z" fill="white"/>
<path d="M110.172 19.9903H116.627C120.546 19.9903 123.46 19.0687 125.369 17.2197C127.279 15.3727 128.236 13.052 128.236 10.2597C128.236 7.36878 127.247 5.00866 125.272 3.1774C123.299 1.34614 120.416 0.43248 116.625 0.43248H105.785V34.0069H110.17V19.9903H110.172ZM110.172 4.04567H116.627C121.38 4.04567 123.756 6.11571 123.756 10.2597C123.756 12.2193 123.178 13.7289 122.022 14.7885C120.867 15.8482 119.068 16.3791 116.627 16.3791H110.172V4.04567Z" fill="white"/>
<path d="M168.531 29.0713C167.326 30.1152 165.68 30.6381 163.594 30.6381C161.408 30.6381 159.746 30.1014 158.607 29.0239C157.467 27.9504 156.816 26.6243 156.658 25.0516H151.985C152.016 26.8828 152.53 28.4951 153.526 29.8922C154.523 31.2873 155.894 32.3825 157.646 33.1679C159.395 33.9553 161.378 34.348 163.596 34.348C165.907 34.348 167.914 33.9 169.617 33.0002C171.318 32.1004 172.602 30.9282 173.471 29.4837C174.337 28.0392 174.771 26.4961 174.771 24.8602C174.771 22.7388 174.292 21.0615 173.327 19.8242C172.362 18.5889 171.207 17.6733 169.859 17.0793C168.51 16.4853 166.728 15.8815 164.512 15.2717C162.68 14.7586 161.26 14.3008 160.249 13.9002C159.237 13.4977 158.384 12.9116 157.696 12.14C157.005 11.3704 156.662 10.3758 156.662 9.15433C156.662 7.45331 157.24 6.12723 158.394 5.18002C159.551 4.23282 161.044 3.75922 162.876 3.75922C164.833 3.75922 166.408 4.24861 167.596 5.22936C168.784 6.21011 169.459 7.34083 169.621 8.6235H174.438C174.181 6.02264 173.048 3.93682 171.043 2.36209C169.037 0.787364 166.459 0 163.31 0C161.125 0 159.192 0.386775 157.506 1.15638C155.821 1.92598 154.511 3.02119 153.579 4.43213C152.646 5.84504 152.182 7.4691 152.182 9.29839C152.182 11.3862 152.656 13.0477 153.603 14.2831C154.55 15.5203 155.691 16.4281 157.023 17.0063C158.355 17.5844 160.129 18.1607 162.347 18.7389C164.145 19.2204 165.573 19.6722 166.633 20.0886C167.693 20.507 168.575 21.1148 169.283 21.9179C169.99 22.7211 170.341 23.7669 170.341 25.0496C170.337 26.6855 169.735 28.0274 168.531 29.0713Z" fill="white"/>
<path d="M208.683 34.0089H213.068V21.34L224 0.43248H219.136L210.85 17.4368L202.564 0.43248H197.699L208.683 21.34V34.0089Z" fill="white"/>
<path d="M81.345 42.456C76.3583 42.456 72.3149 46.4994 72.3149 51.486C72.3149 56.4726 76.3583 60.516 81.345 60.516C86.3316 60.516 90.375 56.4726 90.375 51.486C90.375 46.4994 86.3316 42.456 81.345 42.456ZM87.1328 45.7929C87.5057 46.1639 87.4643 46.823 87.0203 47.1683L83.4051 49.9468C83.265 50.0573 83.0716 50.0514 82.9532 49.933C82.8329 49.8126 82.8289 49.6153 82.9434 49.4752L85.7948 45.8935C86.1362 45.4693 86.7736 45.4338 87.1328 45.7929ZM84.5161 44.009C85.0016 44.2083 85.2167 44.8339 84.9384 45.3232L82.6612 49.2739C82.5724 49.4298 82.3928 49.4969 82.2389 49.4337C82.083 49.3686 82.0021 49.189 82.0534 49.0134L83.3163 44.6128C83.4702 44.0919 84.0465 43.8156 84.5161 44.009ZM81.4002 43.3637C81.9074 43.3716 82.3277 43.8531 82.2606 44.3938L81.6785 48.9345C81.6567 49.114 81.5127 49.2482 81.343 49.2463C81.1772 49.2443 81.0371 49.1081 81.0194 48.9325L80.4925 44.4037C80.4313 43.8452 80.8753 43.3538 81.4002 43.3637ZM78.2942 43.9557C78.7776 43.7525 79.3736 44.0445 79.5236 44.5872L80.7095 48.9897C80.7569 49.1614 80.678 49.337 80.524 49.4021C80.3682 49.4673 80.1827 49.3962 80.0958 49.2364L77.8758 45.2325C77.6153 44.7529 77.8265 44.1511 78.2942 43.9557ZM75.6696 45.6705C76.0367 45.3193 76.6721 45.3667 77.0075 45.7968L79.788 49.4337C79.8985 49.5778 79.8906 49.7751 79.7683 49.8915C79.6479 50.006 79.4545 50.008 79.3164 49.8955L75.7565 47.0479C75.3184 46.6947 75.2907 46.0336 75.6696 45.6705ZM73.8778 48.2872C74.0831 47.8215 74.6889 47.6222 75.1625 47.8925L79.123 50.1875C79.2808 50.2783 79.3479 50.4638 79.2808 50.6177C79.2137 50.7697 79.0361 50.8466 78.8645 50.7953L74.4856 49.5265C73.9469 49.3666 73.6667 48.7687 73.8778 48.2872ZM73.2227 51.4307C73.2306 50.9236 73.7121 50.5033 74.2528 50.5704L78.7934 51.1525C78.973 51.1742 79.1072 51.3183 79.1052 51.488C79.1032 51.6537 78.9671 51.7938 78.7915 51.8116L74.2626 52.3385C73.7022 52.3996 73.2128 51.9556 73.2227 51.4307ZM73.8127 54.5368C73.6095 54.0533 73.9015 53.4574 74.4442 53.3074L78.8467 52.1214C79.0184 52.074 79.194 52.153 79.2591 52.3069C79.3243 52.4628 79.2532 52.6483 79.0934 52.7351L75.0895 54.9551C74.6119 55.2156 74.01 55.0045 73.8127 54.5368ZM75.5295 57.1613C75.1783 56.7943 75.2256 56.1589 75.6558 55.8234L79.2927 53.043C79.4367 52.9325 79.6341 52.9403 79.7505 53.0627C79.865 53.1831 79.8669 53.3765 79.7544 53.5146L76.9069 57.0745C76.5537 57.5126 75.8926 57.5402 75.5295 57.1613ZM78.1462 58.9531C77.6805 58.7479 77.4812 58.1421 77.7515 57.6685L80.0465 53.708C80.1373 53.5501 80.3228 53.483 80.4767 53.5501C80.6286 53.6172 80.7056 53.7948 80.6543 53.9665L79.3854 58.3453C79.2256 58.8841 78.6257 59.1643 78.1462 58.9531ZM81.3193 59.6083C80.7944 59.6122 80.3543 59.1189 80.4214 58.5604L80.9898 54.0375C81.0115 53.8599 81.1496 53.7277 81.3173 53.7257C81.487 53.7238 81.6311 53.8599 81.6508 54.0415L82.1915 58.5881C82.2487 59.1268 81.8265 59.6043 81.3193 59.6083ZM84.3642 59.0242C83.8906 59.2077 83.3203 58.9215 83.1762 58.3966L81.9962 53.9724C81.9488 53.7968 82.0317 53.6172 82.1895 53.556C82.3454 53.4949 82.523 53.5679 82.6079 53.7238L84.8101 57.7158C85.0805 58.2111 84.8536 58.8327 84.3642 59.0242ZM87.038 57.2758C86.6671 57.6487 86.008 57.6073 85.6626 57.1633L82.8842 53.5481C82.7737 53.408 82.7796 53.2146 82.898 53.0962C83.0183 52.9759 83.2157 52.9719 83.3558 53.0864L86.9374 55.9378C87.3617 56.2773 87.3972 56.9147 87.038 57.2758ZM88.822 54.6572C88.6226 55.1426 87.9971 55.3577 87.5077 55.0794L83.5571 52.8022C83.4012 52.7134 83.3341 52.5338 83.3972 52.3799C83.4624 52.224 83.6419 52.1431 83.8176 52.1944L88.2181 53.4574C88.7391 53.6113 89.0153 54.1875 88.822 54.6572ZM89.4672 51.5116C89.4712 52.0366 88.9778 52.4766 88.4194 52.4095L83.8965 51.8412C83.7189 51.8195 83.5867 51.6814 83.5847 51.5136C83.5827 51.3439 83.7189 51.1999 83.9004 51.1801L88.447 50.6394C88.9857 50.5822 89.4633 51.0045 89.4672 51.5116ZM88.8812 48.4668C89.0647 48.9404 88.7785 49.5107 88.2536 49.6547L83.8294 50.8348C83.6538 50.8821 83.4742 50.7993 83.413 50.6414C83.3518 50.4855 83.4249 50.3079 83.5808 50.2231L87.5728 48.0208C88.0701 47.7505 88.6917 47.9774 88.8812 48.4668Z" fill="black"/>
</svg>
